<?xml version="1.0" encoding="UTF-8"?>
<svg version="1.1" xmlns="http://www.w3.org/2000/svg" width="542" height="542">
<path d="M0 0 C16.75854784 11.41007512 23.30577218 42.35713053 26.9375 61 C27.5975 61 28.2575 61 28.9375 61 C40.65529146 49.09472388 45.3152534 35.37913369 48.70703125 19.3671875 C51.49056969 6.29795354 51.49056969 6.29795354 57.75 2.125 C62.684757 0.38332106 66.27115717 0.39114396 71.1875 2.1875 C74.3588626 4.27771626 75.33538269 5.57350634 76.9375 9 C77.23560286 11.7852159 77.36391967 14.2846281 77.3125 17.0625 C77.30524902 17.85269531 77.29799805 18.64289063 77.29052734 19.45703125 C77.14116791 26.06521202 76.24538192 32.44938752 75.14819336 38.95751953 C73.97694393 46.09728078 73.37488455 53.22208826 72.875 60.4375 C72.27720002 69.05057207 71.55341511 77.50785036 69.9375 86 C79.85181048 68.12034605 85.48354133 54.53184504 80.36328125 34.01171875 C79.24235512 28.71559988 79.1312983 23.92330874 81.6875 19.0625 C83.89298787 16.06058596 84.62212867 15.27468248 87.9375 14 C92.66682777 13.32884127 96.77652605 13.56189662 101.25 15.25 C105.46828053 19.56638007 107.09017484 24.31592259 108.9375 30 C109.53111328 31.77890625 109.53111328 31.77890625 110.13671875 33.59375 C117.2068447 57.74875528 114.38222796 87.51000976 106.609375 111.08203125 C105.90192829 114.15448876 106.07232229 115.99960806 106.9375 119 C107.38738281 118.52691406 107.83726562 118.05382812 108.30078125 117.56640625 C112.97433147 112.76173438 117.88855319 108.45165745 123.12109375 104.265625 C124.88618449 102.84571844 126.6320217 101.40115795 128.34765625 99.921875 C141.59288766 88.58681167 156.61916464 79.38697605 171.95703125 71.18359375 C180.3458897 66.80935207 180.3458897 66.80935207 187.3125 60.5625 C187.87582031 59.88960937 188.43914062 59.21671875 189.01953125 58.5234375 C190.53149708 56.53417085 191.97024458 54.53282265 193.38671875 52.4765625 C194.03471436 51.54154907 194.03471436 51.54154907 194.69580078 50.58764648 C195.54771716 49.3464512 196.38661563 48.09619175 197.21044922 46.83618164 C199.959637 42.79855685 202.37184863 40.73433468 206.9375 39 C212.15281417 38.44121634 215.54432104 39.10449569 219.9375 42 C222.79678019 45.04989887 223.25938127 48.01120157 223.5625 52.0625 C223.31288988 59.27239238 219.92854389 64.21847565 215.9375 70 C215.27814453 70.97960693 215.27814453 70.97960693 214.60546875 71.97900391 C209.4661784 79.60122276 204.13227646 86.97406972 198.125 93.9375 C181.02936351 113.82891351 171.71422865 138.76280054 164.25 163.6875 C162.08583838 170.80664445 159.25735981 177.35555573 155.9375 184 C155.49470703 184.89251465 155.05191406 185.7850293 154.59570312 186.70458984 C151.39796363 193.14734159 148.17662123 199.57796227 144.9375 206 C146.29742065 206.24000732 146.29742065 206.24000732 147.68481445 206.48486328 C156.46970281 208.12579178 164.76112716 210.31800393 173.22729492 213.22412109 C175.13187722 213.87735876 177.04093863 214.51584321 178.95117188 215.15234375 C185.87238439 217.49160627 192.60729301 220.03252225 199.265625 223.04370117 C206.34145421 225.57623251 212.96036845 224.10630386 219.9375 222 C223.77988347 221.54839038 227.05406874 221.6385963 230.6875 223.125 C234.61463874 226.39761562 236.69517473 229.33401377 237.4375 234.4375 C236.84612416 238.65105284 235.74713079 241.77718821 232.9375 245 C226.57671709 249.77741206 219.47855336 251.85600885 211.9375 254 C211.26654297 254.19126465 210.59558594 254.3825293 209.90429688 254.57958984 C198.36864641 257.72242107 186.78227925 258.53675386 174.89337158 259.17572021 C140.90974754 260.78704941 140.90974754 260.78704941 111.9375 277 C112.70449219 277.01417969 113.47148437 277.02835937 114.26171875 277.04296875 C128.51307893 277.65539654 141.90320101 281.04700221 155.23828125 286 C155.96386734 286.26914719 156.68945343 286.53829437 157.43702698 286.81559753 C161.07238449 288.17262214 164.69347015 289.55879359 168.30200195 290.9855957 C175.69437456 293.85469745 182.88578595 296.56244186 190.9375 295 C198.79234129 291.0350307 204.29613742 283.30582506 209.6875 276.5625 C212.39728678 273.47635394 214.27235028 272.18145862 218.375 271.734375 C219.6434375 271.74210938 219.6434375 271.74210938 220.9375 271.75 C221.783125 271.74484375 222.62875 271.7396875 223.5 271.734375 C226.14442157 272.02254914 227.70897951 272.56193763 229.9375 274 C233.02712089 278.29114012 234.62839933 281.50993327 234.32397461 286.97583008 C233.06480629 293.57075398 228.71473072 298.96658579 224.375 303.875 C223.84471191 304.47940918 223.31442383 305.08381836 222.76806641 305.70654297 C207.05242532 323.35094311 183.36397215 340.80032957 159.9375 346 C156.24445769 346.1955155 152.57404494 346.09128185 148.87890625 345.984375 C146.6959827 345.94930696 144.51303871 345.91549386 142.33007812 345.8828125 C138.92689858 345.82130484 135.52477437 345.75068047 132.12231445 345.65722656 C117.81292632 345.28563548 107.00104273 346.01531801 93.9375 352 C70.42140767 360.22035506 43.05415731 357.47744825 19.89599609 349.27709961 C15.26460394 347.66371003 12.73904387 348.35277712 8.3125 350.3125 C2.6688879 352.75895893 -1.91156694 354.15860518 -8.08203125 354.02734375 C-9.02240234 354.01509766 -9.96277344 354.00285156 -10.93164062 353.99023438 C-12.88223952 353.95528668 -14.83277013 353.9162734 -16.78320312 353.87304688 C-21.11110093 353.82282554 -25.0791096 353.84181119 -29.2734375 354.98046875 C-43.48260997 358.80376155 -55.64098229 354.77240569 -68.00390625 347.828125 C-70.93198185 346.07801085 -73.80164512 344.25837779 -76.67138672 342.4152832 C-92.2839877 332.42344545 -108.93281887 324.47475727 -127.375 321.5625 C-141.48400688 319.33383046 -154.59252418 313.97310254 -167.68359375 308.41796875 C-171.88436406 306.65510213 -174.87475814 305.87254495 -179.39453125 305.8671875 C-180.44060547 305.86589844 -181.48667969 305.86460937 -182.56445312 305.86328125 C-183.65693359 305.86714844 -184.74941406 305.87101562 -185.875 305.875 C-187.49631836 305.86919922 -187.49631836 305.86919922 -189.15039062 305.86328125 C-190.20033203 305.86457031 -191.25027344 305.86585938 -192.33203125 305.8671875 C-193.28698486 305.86831543 -194.24193848 305.86944336 -195.22583008 305.87060547 C-198.23949482 306.00807361 -201.09346517 306.47842976 -204.0625 307 C-209.90114235 307.37070745 -213.88645441 307.08571949 -219.0625 304 C-221.90989878 300.74942971 -222.95441983 297.75656122 -223.5625 293.5 C-222.96342062 289.30644436 -221.95066324 286.10660807 -219.0625 283 C-213.17737893 279.54320559 -206.42422128 277.74677588 -199.875 276 C-198.92955322 275.74508789 -197.98410645 275.49017578 -197.01000977 275.22753906 C-186.80129306 272.55244204 -176.47501761 270.68045473 -166.0625 269 C-165.32950684 268.88140625 -164.59651367 268.7628125 -163.84130859 268.640625 C-160.25231666 268.06570186 -156.66043921 267.51593091 -153.0625 267 C-153.87332031 266.38253906 -154.68414062 265.76507813 -155.51953125 265.12890625 C-156.63828288 264.27378023 -157.75675123 263.41828351 -158.875 262.5625 C-159.75599365 261.88948853 -159.75599365 261.88948853 -160.65478516 261.20288086 C-164.50008509 258.24914696 -168.23420089 255.19407978 -171.9375 252.0625 C-174.82449156 249.66994241 -177.3758602 247.62056023 -180.875 246.25 C-184.05753186 245.00194829 -185.89035013 243.41887144 -188.42822266 241.19189453 C-195.13522574 236.30041126 -204.63809641 236.11849151 -212.59765625 235.359375 C-217.14896525 234.81927755 -219.48020552 234.47297483 -223.12109375 231.515625 C-226.71596548 226.85748135 -227.67515125 224.02440397 -227.0625 218 C-225.37692712 213.76869077 -223.09335802 210.26735764 -219.0625 208 C-202.21362963 202.6320519 -177.7227476 206.57368552 -160.80078125 211.12109375 C-157.49295667 211.89879545 -155.36915905 212.15110254 -152.0625 211.6875 C-151.22976562 211.57921875 -150.39703125 211.4709375 -149.5390625 211.359375 C-148.31316406 211.18148437 -148.31316406 211.18148437 -147.0625 211 C-145.52108516 210.81044089 -143.97943858 210.62275057 -142.4375 210.4375 C-140.766875 210.2209375 -140.766875 210.2209375 -139.0625 210 C-141.15393456 205.906274 -142.85501411 204.24195745 -147 202.3125 C-151.49277135 200.01894612 -155.08003467 197.44686643 -158.875 194.125 C-168.01554891 186.29024379 -177.72425185 181.27797227 -189.00830078 177.2902832 C-193.93678875 175.51643435 -198.56275984 173.39541999 -203.1875 170.9375 C-203.79070068 170.62103516 -204.39390137 170.30457031 -205.01538086 169.97851562 C-211.32687005 166.53315176 -216.09230308 162.41315136 -220.25 156.5625 C-220.90355469 155.65628906 -221.55710937 154.75007812 -222.23046875 153.81640625 C-226.83315332 146.74063743 -228.09648507 141.38676781 -227.0625 133 C-225.35384278 129.32955115 -224.19929827 127.6759341 -220.75 125.625 C-216.24927386 124.5783195 -212.58155651 124.47163252 -208.1875 126 C-205.35972338 127.80977703 -203.24285087 129.64785365 -200.8125 131.9375 C-191.40654172 140.42769666 -179.12126009 141.67243645 -167.0625 144 C-172.70769215 127.91975568 -178.96600783 112.80628376 -190.625 100.125 C-201.30043193 88.28162255 -217.53764081 70.11361896 -217.34375 53.51171875 C-216.9266349 49.78664915 -215.58131251 47.72304055 -213.0625 45 C-209.14950456 42.67335407 -205.54671565 42.60664775 -201.0625 43 C-193.68972617 45.30399182 -190.0343373 52.10065575 -185.88671875 58.19921875 C-180.36511017 66.10405612 -174.64272608 70.74270552 -165.9453125 75.05957031 C-147.66556886 84.18996094 -130.78100329 95.88752616 -115.63427734 109.58398438 C-114.07928115 110.98488185 -112.50512297 112.36103437 -110.92578125 113.734375 C-103.53601735 120.23849187 -97.23742935 127.35427054 -91.0625 135 C-90.35306516 118.89764821 -90.84707201 105.0225499 -96.41870117 89.82348633 C-98.08311673 85.10922019 -98.27979136 80.53840399 -98.375 75.5625 C-98.43107422 73.64630859 -98.43107422 73.64630859 -98.48828125 71.69140625 C-97.99386421 67.40494661 -96.76203589 65.31983366 -94.0625 62 C-90.14950456 59.67335407 -86.54671565 59.60664775 -82.0625 60 C-77.03541309 61.77426597 -74.4189946 64.31083182 -72.0625 69 C-70.92096024 72.45180743 -70.09445697 75.96553411 -69.25 79.5 C-66.30705551 91.02669151 -62.53265295 104.14501525 -52.75 111.8125 C-49.05866523 114.81707482 -46.12136963 118.36814327 -43.0625 122 C-41.38389559 119.48209339 -40.55924842 117.8297446 -39.65234375 115.03515625 C-39.25861572 113.85179687 -39.25861572 113.85179687 -38.85693359 112.64453125 C-38.57414551 111.79246094 -38.29135742 110.94039063 -38 110.0625 C-34.3442293 99.37432783 -29.8452423 89.22290041 -25.0625 79 C-23.62034217 75.89914796 -22.17919775 72.79783024 -20.73898315 69.69607544 C-19.26852565 66.52991997 -17.79554149 63.36500863 -16.31591797 60.203125 C-15.77854004 59.05199219 -15.24116211 57.90085938 -14.6875 56.71484375 C-13.96433594 55.16978149 -13.96433594 55.16978149 -13.2265625 53.59350586 C-9.08950485 44.37623166 -11.97754849 36.14021107 -15.0625 27 C-15.78539357 25.42477584 -16.53182799 23.85990346 -17.3125 22.3125 C-19.66885949 17.30056077 -19.89657166 12.44252818 -19.0625 7 C-17.3529206 3.39088794 -16.1630495 1.65438079 -12.75 -0.375 C-8.16998241 -1.44012037 -4.48855924 -1.465652 0 0 Z " fill="#0D450F" transform="translate(266.0625,94)"/>
<path d="M0 0 C16.75854784 11.41007512 23.30577218 42.35713053 26.9375 61 C27.5975 61 28.2575 61 28.9375 61 C40.65529146 49.09472388 45.3152534 35.37913369 48.70703125 19.3671875 C51.49056969 6.29795354 51.49056969 6.29795354 57.75 2.125 C62.684757 0.38332106 66.27115717 0.39114396 71.1875 2.1875 C74.3588626 4.27771626 75.33538269 5.57350634 76.9375 9 C77.23560286 11.7852159 77.36391967 14.2846281 77.3125 17.0625 C77.30524902 17.85269531 77.29799805 18.64289063 77.29052734 19.45703125 C77.14116791 26.06521202 76.24538192 32.44938752 75.14819336 38.95751953 C73.97694393 46.09728078 73.37488455 53.22208826 72.875 60.4375 C72.27720002 69.05057207 71.55341511 77.50785036 69.9375 86 C79.85181048 68.12034605 85.48354133 54.53184504 80.36328125 34.01171875 C79.24235512 28.71559988 79.1312983 23.92330874 81.6875 19.0625 C83.89298787 16.06058596 84.62212867 15.27468248 87.9375 14 C92.66682777 13.32884127 96.77652605 13.56189662 101.25 15.25 C105.46828053 19.56638007 107.09017484 24.31592259 108.9375 30 C109.53111328 31.77890625 109.53111328 31.77890625 110.13671875 33.59375 C117.2068447 57.74875528 114.38222796 87.51000976 106.609375 111.08203125 C105.90192829 114.15448876 106.07232229 115.99960806 106.9375 119 C107.38738281 118.52691406 107.83726562 118.05382812 108.30078125 117.56640625 C112.97433147 112.76173438 117.88855319 108.45165745 123.12109375 104.265625 C124.88618449 102.84571844 126.6320217 101.40115795 128.34765625 99.921875 C141.59288766 88.58681167 156.61916464 79.38697605 171.95703125 71.18359375 C180.3458897 66.80935207 180.3458897 66.80935207 187.3125 60.5625 C187.87582031 59.88960937 188.43914062 59.21671875 189.01953125 58.5234375 C190.53149708 56.53417085 191.97024458 54.53282265 193.38671875 52.4765625 C194.03471436 51.54154907 194.03471436 51.54154907 194.69580078 50.58764648 C195.54771716 49.3464512 196.38661563 48.09619175 197.21044922 46.83618164 C199.959637 42.79855685 202.37184863 40.73433468 206.9375 39 C212.15281417 38.44121634 215.54432104 39.10449569 219.9375 42 C222.79678019 45.04989887 223.25938127 48.01120157 223.5625 52.0625 C223.31288988 59.27239238 219.92854389 64.21847565 215.9375 70 C215.27814453 70.97960693 215.27814453 70.97960693 214.60546875 71.97900391 C209.4661784 79.60122276 204.13227646 86.97406972 198.125 93.9375 C181.02936351 113.82891351 171.71422865 138.76280054 164.25 163.6875 C162.08583838 170.80664445 159.25735981 177.35555573 155.9375 184 C155.49470703 184.89251465 155.05191406 185.7850293 154.59570312 186.70458984 C151.39796363 193.14734159 148.17662123 199.57796227 144.9375 206 C146.29742065 206.24000732 146.29742065 206.24000732 147.68481445 206.48486328 C156.46970281 208.12579178 164.76112716 210.31800393 173.22729492 213.22412109 C175.13187722 213.87735876 177.04093863 214.51584321 178.95117188 215.15234375 C185.87238439 217.49160627 192.60729301 220.03252225 199.265625 223.04370117 C206.34145421 225.57623251 212.96036845 224.10630386 219.9375 222 C223.77988347 221.54839038 227.05406874 221.6385963 230.6875 223.125 C234.61463874 226.39761562 236.69517473 229.33401377 237.4375 234.4375 C236.84612416 238.65105284 235.74713079 241.77718821 232.9375 245 C226.57671709 249.77741206 219.47855336 251.85600885 211.9375 254 C211.26654297 254.19126465 210.59558594 254.3825293 209.90429688 254.57958984 C198.36864641 257.72242107 186.78227925 258.53675386 174.89337158 259.17572021 C140.90974754 260.78704941 140.90974754 260.78704941 111.9375 277 C112.70449219 277.01417969 113.47148437 277.02835937 114.26171875 277.04296875 C128.51307893 277.65539654 141.90320101 281.04700221 155.23828125 286 C155.96386734 286.26914719 156.68945343 286.53829437 157.43702698 286.81559753 C161.07238449 288.17262214 164.69347015 289.55879359 168.30200195 290.9855957 C175.69437456 293.85469745 182.88578595 296.56244186 190.9375 295 C198.79234129 291.0350307 204.29613742 283.30582506 209.6875 276.5625 C212.39728678 273.47635394 214.27235028 272.18145862 218.375 271.734375 C219.6434375 271.74210938 219.6434375 271.74210938 220.9375 271.75 C221.783125 271.74484375 222.62875 271.7396875 223.5 271.734375 C226.14442157 272.02254914 227.70897951 272.56193763 229.9375 274 C233.02712089 278.29114012 234.62839933 281.50993327 234.32397461 286.97583008 C233.06480629 293.57075398 228.71473072 298.96658579 224.375 303.875 C223.84471191 304.47940918 223.31442383 305.08381836 222.76806641 305.70654297 C207.05242532 323.35094311 183.36397215 340.80032957 159.9375 346 C156.24445769 346.1955155 152.57404494 346.09128185 148.87890625 345.984375 C146.6959827 345.94930696 144.51303871 345.91549386 142.33007812 345.8828125 C138.92689858 345.82130484 135.52477437 345.75068047 132.12231445 345.65722656 C117.81292632 345.28563548 107.00104273 346.01531801 93.9375 352 C70.42140767 360.22035506 43.05415731 357.47744825 19.89599609 349.27709961 C15.26460394 347.66371003 12.73904387 348.35277712 8.3125 350.3125 C2.6688879 352.75895893 -1.91156694 354.15860518 -8.08203125 354.02734375 C-9.02240234 354.01509766 -9.96277344 354.00285156 -10.93164062 353.99023438 C-12.88223952 353.95528668 -14.83277013 353.9162734 -16.78320312 353.87304688 C-21.11110093 353.82282554 -25.0791096 353.84181119 -29.2734375 354.98046875 C-43.48260997 358.80376155 -55.64098229 354.77240569 -68.00390625 347.828125 C-70.93198185 346.07801085 -73.80164512 344.25837779 -76.67138672 342.4152832 C-92.2839877 332.42344545 -108.93281887 324.47475727 -127.375 321.5625 C-141.48400688 319.33383046 -154.59252418 313.97310254 -167.68359375 308.41796875 C-171.88436406 306.65510213 -174.87475814 305.87254495 -179.39453125 305.8671875 C-180.44060547 305.86589844 -181.48667969 305.86460937 -182.56445312 305.86328125 C-183.65693359 305.86714844 -184.74941406 305.87101562 -185.875 305.875 C-187.49631836 305.86919922 -187.49631836 305.86919922 -189.15039062 305.86328125 C-190.20033203 305.86457031 -191.25027344 305.86585938 -192.33203125 305.8671875 C-193.28698486 305.86831543 -194.24193848 305.86944336 -195.22583008 305.87060547 C-198.23949482 306.00807361 -201.09346517 306.47842976 -204.0625 307 C-209.90114235 307.37070745 -213.88645441 307.08571949 -219.0625 304 C-221.90989878 300.74942971 -222.95441983 297.75656122 -223.5625 293.5 C-222.96342062 289.30644436 -221.95066324 286.10660807 -219.0625 283 C-213.17737893 279.54320559 -206.42422128 277.74677588 -199.875 276 C-198.92955322 275.74508789 -197.98410645 275.49017578 -197.01000977 275.22753906 C-186.80129306 272.55244204 -176.47501761 270.68045473 -166.0625 269 C-165.32950684 268.88140625 -164.59651367 268.7628125 -163.84130859 268.640625 C-160.25231666 268.06570186 -156.66043921 267.51593091 -153.0625 267 C-153.87332031 266.38253906 -154.68414062 265.76507813 -155.51953125 265.12890625 C-156.63828288 264.27378023 -157.75675123 263.41828351 -158.875 262.5625 C-159.75599365 261.88948853 -159.75599365 261.88948853 -160.65478516 261.20288086 C-164.50008509 258.24914696 -168.23420089 255.19407978 -171.9375 252.0625 C-174.82449156 249.66994241 -177.3758602 247.62056023 -180.875 246.25 C-184.05753186 245.00194829 -185.89035013 243.41887144 -188.42822266 241.19189453 C-195.13522574 236.30041126 -204.63809641 236.11849151 -212.59765625 235.359375 C-217.14896525 234.81927755 -219.48020552 234.47297483 -223.12109375 231.515625 C-226.71596548 226.85748135 -227.67515125 224.02440397 -227.0625 218 C-225.37692712 213.76869077 -223.09335802 210.26735764 -219.0625 208 C-202.21362963 202.6320519 -177.7227476 206.57368552 -160.80078125 211.12109375 C-157.49295667 211.89879545 -155.36915905 212.15110254 -152.0625 211.6875 C-151.22976562 211.57921875 -150.39703125 211.4709375 -149.5390625 211.359375 C-148.31316406 211.18148437 -148.31316406 211.18148437 -147.0625 211 C-145.52108516 210.81044089 -143.97943858 210.62275057 -142.4375 210.4375 C-140.766875 210.2209375 -140.766875 210.2209375 -139.0625 210 C-141.15393456 205.906274 -142.85501411 204.24195745 -147 202.3125 C-151.49277135 200.01894612 -155.08003467 197.44686643 -158.875 194.125 C-168.01554891 186.29024379 -177.72425185 181.27797227 -189.00830078 177.2902832 C-193.93678875 175.51643435 -198.56275984 173.39541999 -203.1875 170.9375 C-203.79070068 170.62103516 -204.39390137 170.30457031 -205.01538086 169.97851562 C-211.32687005 166.53315176 -216.09230308 162.41315136 -220.25 156.5625 C-220.90355469 155.65628906 -221.55710937 154.75007812 -222.23046875 153.81640625 C-226.83315332 146.74063743 -228.09648507 141.38676781 -227.0625 133 C-225.35384278 129.32955115 -224.19929827 127.6759341 -220.75 125.625 C-216.24927386 124.5783195 -212.58155651 124.47163252 -208.1875 126 C-205.35972338 127.80977703 -203.24285087 129.64785365 -200.8125 131.9375 C-191.40654172 140.42769666 -179.12126009 141.67243645 -167.0625 144 C-172.70769215 127.91975568 -178.96600783 112.80628376 -190.625 100.125 C-201.30043193 88.28162255 -217.53764081 70.11361896 -217.34375 53.51171875 C-216.9266349 49.78664915 -215.58131251 47.72304055 -213.0625 45 C-209.14950456 42.67335407 -205.54671565 42.60664775 -201.0625 43 C-193.68972617 45.30399182 -190.0343373 52.10065575 -185.88671875 58.19921875 C-180.36511017 66.10405612 -174.64272608 70.74270552 -165.9453125 75.05957031 C-147.66556886 84.18996094 -130.78100329 95.88752616 -115.63427734 109.58398438 C-114.07928115 110.98488185 -112.50512297 112.36103437 -110.92578125 113.734375 C-103.53601735 120.23849187 -97.23742935 127.35427054 -91.0625 135 C-90.35306516 118.89764821 -90.84707201 105.0225499 -96.41870117 89.82348633 C-98.08311673 85.10922019 -98.27979136 80.53840399 -98.375 75.5625 C-98.43107422 73.64630859 -98.43107422 73.64630859 -98.48828125 71.69140625 C-97.99386421 67.40494661 -96.76203589 65.31983366 -94.0625 62 C-90.14950456 59.67335407 -86.54671565 59.60664775 -82.0625 60 C-77.03541309 61.77426597 -74.4189946 64.31083182 -72.0625 69 C-70.92096024 72.45180743 -70.09445697 75.96553411 -69.25 79.5 C-66.30705551 91.02669151 -62.53265295 104.14501525 -52.75 111.8125 C-49.05866523 114.81707482 -46.12136963 118.36814327 -43.0625 122 C-41.38389559 119.48209339 -40.55924842 117.8297446 -39.65234375 115.03515625 C-39.25861572 113.85179687 -39.25861572 113.85179687 -38.85693359 112.64453125 C-38.57414551 111.79246094 -38.29135742 110.94039063 -38 110.0625 C-34.3442293 99.37432783 -29.8452423 89.22290041 -25.0625 79 C-23.62034217 75.89914796 -22.17919775 72.79783024 -20.73898315 69.69607544 C-19.26852565 66.52991997 -17.79554149 63.36500863 -16.31591797 60.203125 C-15.77854004 59.05199219 -15.24116211 57.90085938 -14.6875 56.71484375 C-13.96433594 55.16978149 -13.96433594 55.16978149 -13.2265625 53.59350586 C-9.08950485 44.37623166 -11.97754849 36.14021107 -15.0625 27 C-15.78539357 25.42477584 -16.53182799 23.85990346 -17.3125 22.3125 C-19.66885949 17.30056077 -19.89657166 12.44252818 -19.0625 7 C-17.3529206 3.39088794 -16.1630495 1.65438079 -12.75 -0.375 C-8.16998241 -1.44012037 -4.48855924 -1.465652 0 0 Z M-14.0625 8 C-15.17772995 14.44355079 -12.99796216 18.93228195 -10.35131836 24.78735352 C-6.35094204 33.67535841 -4.00594676 43.43942519 -7.0078125 53.015625 C-8.25418792 56.07277227 -9.60870655 59.03618904 -11.0625 62 C-11.44664062 62.78632813 -11.83078125 63.57265625 -12.2265625 64.3828125 C-13.01374887 65.96254025 -13.80978988 67.53787769 -14.61328125 69.109375 C-16.4919955 72.85667566 -18.2797777 76.64377745 -20.0625 80.4375 C-20.40724365 81.17073486 -20.7519873 81.90396973 -21.10717773 82.65942383 C-23.47689014 87.71529916 -25.79421956 92.79262529 -28.0546875 97.8984375 C-29.0625 100 -29.0625 100 -31.0625 103 C-31.55318621 104.73583792 -31.98292408 106.48926642 -32.375 108.25 C-33.73055839 113.97269239 -35.48389478 119.47077597 -37.43676758 125.01074219 C-38.4128561 127.82349211 -39.0625 129.99597758 -39.0625 133 C-42.97414547 130.91919377 -45.25444769 128.80291723 -47.875 125.25 C-50.45842592 121.89154631 -52.99300353 119.02256688 -56.25 116.3125 C-67.80955527 106.55560442 -71.67941662 92.13565065 -74.79467773 77.87109375 C-76.11808037 72.0782576 -76.11808037 72.0782576 -79.55859375 67.34375 C-82.71461789 65.65003346 -84.5245243 65.48404521 -88.0625 66 C-90.78502543 67.05946529 -90.78502543 67.05946529 -93.0625 69 C-95.99909937 80.13939091 -90.60909114 92.56616608 -87.0625 103 C-85.81602694 106.73941918 -85.71935861 110.35079012 -85.52734375 114.25390625 C-85.48436661 115.06939438 -85.44138947 115.88488251 -85.39710999 116.7250824 C-85.30692162 118.45406921 -85.21879498 120.1831646 -85.13256836 121.91235352 C-85.00170327 124.52845029 -84.86370662 127.14409509 -84.72460938 129.75976562 C-84.30394094 137.84710911 -83.93709436 145.89879553 -84.0625 154 C-84.44019531 153.42894531 -84.81789062 152.85789063 -85.20703125 152.26953125 C-96.06041053 136.28176645 -109.45115912 121.91344142 -124.62109375 109.9453125 C-126.83270458 108.18310099 -128.91558956 106.34642619 -131 104.4375 C-135.96068634 100.05387309 -141.50410241 96.57076482 -147.0625 93 C-148.10019531 92.319375 -149.13789063 91.63875 -150.20703125 90.9375 C-154.79169264 87.47582663 -154.79169264 87.47582663 -160.0625 86 C-160.0625 85.34 -160.0625 84.68 -160.0625 84 C-161.4546875 83.443125 -161.4546875 83.443125 -162.875 82.875 C-172.62212245 78.67502041 -181.52588926 74.28677811 -187.0625 65 C-189.62031583 61.57530935 -192.33390868 58.28940851 -195.0625 55 C-195.50851563 54.41992188 -195.95453125 53.83984375 -196.4140625 53.2421875 C-198.06935374 51.2716027 -199.49754833 50.11388354 -202.0390625 49.6015625 C-204.97155041 49.4629358 -207.41916349 49.67833175 -210.0625 51 C-212.01012032 54.89524064 -211.39279157 59.34854217 -210.5625 63.5 C-210.3975 63.995 -210.2325 64.49 -210.0625 65 C-209.4025 65 -208.7425 65 -208.0625 65 C-207.84207031 65.66257813 -207.62164062 66.32515625 -207.39453125 67.0078125 C-205.6263191 70.97980813 -203.26264669 74.33909808 -200.75 77.875 C-199.95855591 78.99720947 -199.95855591 78.99720947 -199.15112305 80.14208984 C-195.49330839 85.23772981 -191.56886907 89.96610869 -187.375 94.625 C-178.68436362 104.35480419 -172.42692989 114.74014064 -168.1328125 127.09765625 C-166.98831408 130.20116838 -165.57954066 133.06275106 -164.0625 136 C-161.81602011 140.752169 -160.71939947 144.8005787 -160.0625 150 C-193.37754009 147.71300442 -193.37754009 147.71300442 -205.55078125 135.5078125 C-208.5449449 132.65084772 -210.69974298 131.62694751 -214.75 131.4375 C-217.58832733 131.62895547 -218.80252684 131.82413581 -221.1875 133.4375 C-222.85008142 138.30648845 -222.16267763 142.6900185 -219.96484375 147.3046875 C-211.14406818 161.50638187 -196.3684415 169.59550892 -180.69140625 173.89453125 C-177.22944022 174.94914523 -174.27124695 176.35073242 -171.0625 178 C-170.4025 178 -169.7425 178 -169.0625 178 C-169.0625 178.66 -169.0625 179.32 -169.0625 180 C-168.48242188 180.30292969 -167.90234375 180.60585938 -167.3046875 180.91796875 C-161.27590779 184.15122519 -155.93154389 187.19643417 -152.0625 193 C-149.30223747 194.64177626 -149.30223747 194.64177626 -146.125 196.125 C-145.06410156 196.64320313 -144.00320312 197.16140625 -142.91015625 197.6953125 C-140.07861109 199.05444127 -140.07861109 199.05444127 -137.0625 200 C-136.0625 202.1875 -136.0625 202.1875 -135.0625 205 C-134.52625 206.03125 -133.99 207.0625 -133.4375 208.125 C-132.0625 211 -132.0625 211 -132.0625 214 C-146.5134629 217.90315397 -160.40570248 218.42974003 -174.94921875 214.75390625 C-182.63617095 212.89244857 -190.20930698 212.78248396 -198.07836914 212.75976562 C-200.12361533 212.75000661 -202.16787699 212.71889006 -204.21289062 212.6875 C-206.16678711 212.67976563 -206.16678711 212.67976563 -208.16015625 212.671875 C-209.93144897 212.65785645 -209.93144897 212.65785645 -211.73852539 212.64355469 C-215.43047325 213.03945949 -217.86535113 214.15847142 -221.0625 216 C-221.124375 217.2375 -221.18625 218.475 -221.25 219.75 C-221.28480469 220.44609375 -221.31960937 221.1421875 -221.35546875 221.859375 C-220.95145983 224.81133351 -220.26318748 225.97096615 -218.0625 228 C-215.49055903 228.55134308 -213.22323688 228.87366407 -210.625 229.0625 C-203.55429848 229.74854741 -196.91514855 231.09042437 -190.0625 233 C-188.94101563 233.23396484 -188.94101563 233.23396484 -187.796875 233.47265625 C-187.22453125 233.64667969 -186.6521875 233.82070313 -186.0625 234 C-185.36098848 235.3153341 -184.69724075 236.65117592 -184.0625 238 C-181.87064449 240.0352944 -180.26872539 240.94244873 -177.375 241.75 C-171.50607886 243.96468722 -166.84874715 248.17018584 -162.5 252.625 C-159.85290592 255.20421987 -157.13380795 256.8620301 -153.9765625 258.7421875 C-151.32643143 260.4837022 -149.29916336 262.76333664 -147.0625 265 C-144.06242729 266.70855022 -144.06242729 266.70855022 -141.0625 268 C-139.72916667 268.66666667 -138.39583333 269.33333333 -137.0625 270 C-137.0625 270.99 -137.0625 271.98 -137.0625 273 C-137.97539795 273.0501123 -138.8882959 273.10022461 -139.82885742 273.15185547 C-143.23051842 273.34265134 -146.63155811 273.54108113 -150.0324707 273.74462891 C-151.50169594 273.83100635 -152.97110121 273.91437809 -154.44067383 273.99462891 C-156.55865623 274.11082029 -158.67574585 274.23797151 -160.79296875 274.3671875 C-162.06551514 274.44050293 -163.33806152 274.51381836 -164.64916992 274.58935547 C-167.86739814 274.97652805 -170.1117561 275.73918648 -173.0625 277 C-174.88320797 277.37420278 -176.71585791 277.69334616 -178.5546875 277.96484375 C-179.58980469 278.12533203 -180.62492187 278.28582031 -181.69140625 278.45117188 C-183.84725703 278.77416035 -186.00350734 279.09449381 -188.16015625 279.41210938 C-193.96176159 280.31658325 -198.76007677 281.50233346 -204.0625 284 C-205.61374341 284.36428889 -207.1765162 284.68608158 -208.75 284.9375 C-211.62582203 285.54603572 -213.12024726 286.03802869 -215.625 287.6875 C-217.65839807 290.95861864 -217.54284584 293.22585408 -217.0625 297 C-215.84606521 298.77082754 -215.84606521 298.77082754 -214.0625 300 C-211.04264063 300.20156257 -208.23327065 300.22841024 -205.22265625 300.1171875 C-203.41862999 300.08407508 -201.61459301 300.05154231 -199.81054688 300.01953125 C-196.9799924 299.9517014 -194.15006349 299.87578098 -191.32006836 299.78759766 C-180.02220916 299.45960491 -171.28075232 299.58081051 -161.0625 305 C-159.19812065 305.71580088 -157.32387797 306.40686337 -155.4375 307.0625 C-152.87225216 307.96468462 -150.36261557 308.86235707 -147.890625 309.99609375 C-141.1697907 313.05860158 -134.26414552 314.20733255 -127.04150391 315.4934082 C-120.49696404 316.67342798 -114.23551075 318.21148811 -107.875 320.16796875 C-105.28111288 320.93532702 -102.72207675 321.51599614 -100.0625 322 C-100.0625 322.66 -100.0625 323.32 -100.0625 324 C-99.10601562 324.39316406 -98.14953125 324.78632813 -97.1640625 325.19140625 C-92.46654755 327.2068222 -87.95973018 329.55979616 -83.4375 331.9375 C-82.60476562 332.36740234 -81.77203125 332.79730469 -80.9140625 333.24023438 C-76.59136924 335.50827168 -72.81117301 337.83838333 -69.0625 341 C-68.2375 341.33 -67.4125 341.66 -66.5625 342 C-64.0625 343 -64.0625 343 -61.9375 344.9375 C-55.17124028 349.79155588 -47.34014866 350.26710857 -39.25 350.3125 C-38.53295898 350.31797852 -37.81591797 350.32345703 -37.07714844 350.32910156 C-33.88487256 350.28598279 -31.21124813 350.05222869 -28.18945312 348.99121094 C-24.94910447 347.96405482 -22.49683069 347.78269012 -19.11328125 347.83984375 C-18.01822266 347.85080078 -16.92316406 347.86175781 -15.79492188 347.87304688 C-14.66634766 347.89431641 -13.53777344 347.91558594 -12.375 347.9375 C-10.1211573 347.97190009 -7.86724451 348.00204824 -5.61328125 348.02734375 C-4.61981689 348.04531006 -3.62635254 348.06327637 -2.6027832 348.08178711 C0.06241116 348.11699403 0.06241116 348.11699403 2.9375 347 C2.9375 346.34 2.9375 345.68 2.9375 345 C3.845 344.87625 4.7525 344.7525 5.6875 344.625 C8.82717583 344.20645722 8.82717583 344.20645722 10.875 342.875 C16.18380772 340.62277854 23.92482524 343.97040366 29.25 345.4375 C32.47192746 346.32241406 35.69853063 347.17953475 38.9375 348 C39.69417969 348.19634033 40.45085937 348.39268066 41.23046875 348.5949707 C48.21815008 350.21638555 55.12378316 350.33893324 62.27734375 350.31567383 C64.30263269 350.31251539 66.32645303 350.33605107 68.3515625 350.36132812 C76.65057687 350.36539627 84.00516628 349.46590897 91.9375 347 C91.9375 346.34 91.9375 345.68 91.9375 345 C92.66969757 344.87703552 93.40189514 344.75407104 94.15628052 344.62738037 C96.84671419 344.02047923 98.95383601 343.13670916 101.43701172 341.96191406 C107.61354424 339.4399903 113.34960891 339.49111557 119.9453125 339.609375 C121.1519455 339.61503479 122.35857849 339.62069458 123.60177612 339.62652588 C127.42243606 339.648759 131.24212771 339.69893323 135.0625 339.75 C137.66665304 339.77008178 140.27082091 339.78832959 142.875 339.8046875 C149.22949213 339.84858103 155.58342686 339.91536219 161.9375 340 C161.9375 339.34 161.9375 338.68 161.9375 338 C162.90236328 337.87238281 162.90236328 337.87238281 163.88671875 337.7421875 C180.89722128 333.60390903 197.31669468 321.8581365 209.82421875 309.97265625 C211.9375 308 211.9375 308 214.37890625 306.16015625 C217.48772568 303.53545832 219.76560725 300.62352681 222.1875 297.375 C222.63351562 296.78976562 223.07953125 296.20453125 223.5390625 295.6015625 C226.90951895 291.14847459 228.37113981 288.64604386 228.27734375 282.9140625 C228.08161761 280.7504525 228.08161761 280.7504525 225.875 278.9375 C222.02028843 277.7072729 219.83645996 277.9055551 215.9375 279 C211.9218396 281.83458381 208.76387469 284.97785141 205.9375 289 C205.9375 289.66 205.9375 290.32 205.9375 291 C204.9475 291.33 203.9575 291.66 202.9375 292 C202.174375 292.763125 201.41125 293.52625 200.625 294.3125 C195.81007142 299.12742858 192.73533269 301.26434404 185.83203125 301.49609375 C176.51864973 301.37779237 168.63138955 298.13602063 160.0625 294.75 C143.81072271 288.44955447 129.14388502 283.23562457 111.4375 283.75 C110.22191406 283.76804687 109.00632812 283.78609375 107.75390625 283.8046875 C104.81420229 283.85098205 101.87632957 283.91614402 98.9375 284 C104.88627034 274.71671713 113.25362331 265.48533438 124.23046875 262.34375 C124.79378906 262.2303125 125.35710937 262.116875 125.9375 262 C125.9375 261.34 125.9375 260.68 125.9375 260 C128.93551213 259.32302952 131.93481144 258.65570759 134.9375 258 C136.00484375 257.76603516 136.00484375 257.76603516 137.09375 257.52734375 C139.70214304 256.98086704 142.31736259 256.48731218 144.9375 256 C146.22785156 255.74992188 147.51820313 255.49984375 148.84765625 255.2421875 C158.27075773 253.52518213 167.42377243 252.80625352 177 252.625 C190.66585804 252.35129183 203.63289019 250.01058058 216.9375 247 C216.9375 246.34 216.9375 245.68 216.9375 245 C217.9584375 244.8453125 217.9584375 244.8453125 219 244.6875 C224.04032345 243.50784983 228.00870162 242.39319757 230.9375 238 C230.80809529 234.3766682 230.68762072 231.93014969 228.375 229.0625 C222.28083074 226.40606725 216.03286288 228.25846775 209.9375 230 C209.9375 230.66 209.9375 231.32 209.9375 232 C201.26573824 230.03320867 193.03744453 227.68906166 185.14453125 223.52734375 C181.52075828 221.80152739 177.85033374 220.6455582 174 219.5625 C173.25709717 219.35077148 172.51419434 219.13904297 171.7487793 218.92089844 C170.21937856 218.48694745 168.68918244 218.05578987 167.15820312 217.62744141 C165.0944375 217.0443414 163.03922247 216.43786241 160.984375 215.82421875 C152.52815161 213.39172771 144.72365058 212.27075965 135.9375 212 C138.56655872 205.52353827 141.76309497 199.37832314 145 193.1875 C145.54205078 192.13884766 146.08410156 191.09019531 146.64257812 190.00976562 C147.4247168 188.51026367 147.4247168 188.51026367 148.22265625 186.98046875 C148.69582275 186.07192139 149.16898926 185.16337402 149.65649414 184.22729492 C150.9375 182 150.9375 182 152.9375 180 C153.72648817 178.2582925 153.72648817 178.2582925 154.375 176.26171875 C154.63023437 175.52373047 154.88546875 174.78574219 155.1484375 174.02539062 C155.40882813 173.25388672 155.66921875 172.48238281 155.9375 171.6875 C156.45740439 170.17025428 156.97821573 168.653319 157.5 167.13671875 C157.74709717 166.41572998 157.99419434 165.69474121 158.2487793 164.9519043 C158.79955777 163.39094226 159.40131322 161.84800183 160.01953125 160.3125 C161.06343246 157.68275737 161.8397641 155.03062426 162.625 152.3125 C169.29235772 130.45838301 178.36676273 108.55248619 193.50976562 91.22827148 C209.81914948 73.38238549 209.81914948 73.38238549 218.5625 51.9375 C217.88229312 48.74052766 217.45282546 47.95447587 214.9375 46 C212.83559318 45.45245961 212.83559318 45.45245961 210.5625 45.5 C209.81226563 45.4690625 209.06203125 45.438125 208.2890625 45.40625 C202.60710921 46.84089601 198.79776197 53.5189489 195.3125 58 C194.83554687 58.60328125 194.35859375 59.2065625 193.8671875 59.828125 C191.8584166 62.39488782 190.06901149 64.73889411 188.59765625 67.66015625 C186.10592907 71.17202585 182.80390094 72.56270544 179 74.4375 C178.23437744 74.83018066 177.46875488 75.22286133 176.67993164 75.62744141 C173.37992102 77.31256794 170.06009069 78.94196978 166.7109375 80.52734375 C160.5524649 83.45389065 154.9350047 86.84905328 149.3125 90.6875 C148.6124585 91.16364746 147.91241699 91.63979492 147.19116211 92.13037109 C146.53768799 92.58621582 145.88421387 93.04206055 145.2109375 93.51171875 C144.62747559 93.91865967 144.04401367 94.32560059 143.44287109 94.74487305 C141.65715402 96.11302168 141.65715402 96.11302168 139.9375 99 C139.18726563 99.29003906 138.43703125 99.58007812 137.6640625 99.87890625 C134.18580592 101.30907765 132.04903024 103.3705894 129.3125 105.9375 C128.37148438 106.81277344 127.43046875 107.68804687 126.4609375 108.58984375 C125.07060826 109.91775883 123.68655911 111.25277257 122.33203125 112.6171875 C120.70641828 114.22913986 118.99085363 115.70088868 117.25 117.1875 C113.51678731 120.42387108 110.03895921 123.85148233 106.6015625 127.3984375 C104.9375 129 104.9375 129 102.9375 130 C102.9375 127.36 102.9375 124.72 102.9375 122 C102.2775 122 101.6175 122 100.9375 122 C100.74423001 116.47033085 100.66060905 112.12300465 102.9375 107 C103.10507757 103.79129767 103.10507757 103.79129767 102.9375 101 C103.5975 101 104.2575 101 104.9375 101 C109.59245667 76.70001788 112.52039112 44.59794652 100.25 21.875 C97.50070697 19.64584349 95.4374804 19.27021171 91.91015625 19.52734375 C88.28886287 20.39501999 86.9401557 21.93343346 84.9375 25 C84.0493447 30.16999873 84.86210707 34.23880446 86.9375 39 C87.41362658 41.7139215 87.73199533 44.26450444 87.9375 47 C88.02644531 47.86496094 88.11539062 48.72992188 88.20703125 49.62109375 C88.78683842 59.55871895 85.45540897 69.72313654 79.9375 78 C79.9375 78.99 79.9375 79.98 79.9375 81 C79.2775 81 78.6175 81 77.9375 81 C76.76595707 83.28929053 75.60011926 85.58118362 74.4375 87.875 C73.93669922 88.85146484 73.93669922 88.85146484 73.42578125 89.84765625 C71.56906283 93.2524471 71.56906283 93.2524471 70.9375 97 C70.2775 97 69.6175 97 68.9375 97 C68.39480469 97.95261719 67.85210937 98.90523438 67.29296875 99.88671875 C66.57034161 101.15366244 65.84768373 102.42058859 65.125 103.6875 C64.76857422 104.31333984 64.41214844 104.93917969 64.04492188 105.58398438 C63.34131968 106.81690198 62.63546485 108.04853706 61.92724609 109.27880859 C61.04480002 110.81340277 60.17210653 112.35359562 59.30078125 113.89453125 C57.9375 116 57.9375 116 55.9375 117 C57.41619027 109.04879706 59.36341047 101.52605184 61.9375 93.875 C66.42377411 80.23182908 68.0031911 66.46221485 68.52246094 52.15991211 C68.77205888 46.2097195 69.53988782 40.43690689 70.5 34.5625 C73.18288101 21.41631863 73.18288101 21.41631863 69.9375 9 C67.61063547 7.83656773 66.09028587 7.80104012 63.5 7.75 C62.71753906 7.72421875 61.93507813 7.6984375 61.12890625 7.671875 C58.35494369 8.08722768 57.69127872 8.8484385 55.9375 11 C55.21704914 13.07210918 55.21704914 13.07210918 54.875 15.38671875 C54.71773438 16.24330078 54.56046875 17.09988281 54.3984375 17.98242188 C54.17027344 19.32143555 54.17027344 19.32143555 53.9375 20.6875 C52.81588042 27.12730731 51.42098238 32.94161008 48.9375 39 C48.63328125 39.76828125 48.3290625 40.5365625 48.015625 41.328125 C44.28776073 49.97958358 40.39456876 58.10480548 32.9375 64 C31.13457227 66.43819988 31.13457227 66.43819988 29.6875 69.0625 C28.93726563 70.34833984 28.93726563 70.34833984 28.171875 71.66015625 C26.83101005 74.0478696 26.83101005 74.0478696 25.9375 77 C24.9475 77 23.9575 77 22.9375 77 C22.97875 75.9171875 23.02 74.834375 23.0625 73.71875 C23.0625 68.19139458 21.98805923 62.90896036 20.9375 57.5 C20.74671875 56.48679688 20.5559375 55.47359375 20.359375 54.4296875 C19.89185389 51.95182561 19.41776672 49.47541732 18.9375 47 C18.2775 47 17.6175 47 16.9375 47 C16.81375 46.030625 16.69 45.06125 16.5625 44.0625 C16.13343741 41.13057234 15.6399523 38.21900993 15.0625 35.3125 C14.92070312 34.58675781 14.77890625 33.86101562 14.6328125 33.11328125 C14.03362873 30.91226775 14.03362873 30.91226775 12.48046875 29.05859375 C10.7039183 26.68836062 10.00721646 24.56986997 9.125 21.75 C6.85031622 15.21465851 3.75981159 9.88154106 -2.0625 6 C-4.24436947 5.6842006 -4.24436947 5.6842006 -6.5625 5.75 C-7.3359375 5.74484375 -8.109375 5.7396875 -8.90625 5.734375 C-11.35763844 5.87261938 -11.35763844 5.87261938 -14.0625 8 Z " fill="#061908" transform="translate(266.0625,94)"/>
<path d="M0 0 C0.99 0.495 0.99 0.495 2 1 C1.37723001 4.15569092 0.30931905 6.34687344 -1.4765625 9.01171875 C-2.22981812 10.14154175 -2.22981812 10.14154175 -2.99829102 11.29418945 C-3.53510498 12.08398193 -4.07191895 12.87377441 -4.625 13.6875 C-5.17406006 14.50114014 -5.72312012 15.31478027 -6.28881836 16.15307617 C-10.71695831 22.67197329 -15.26930884 28.93433275 -20.515625 34.82421875 C-39.07459134 55.76144327 -49.14733658 82.84885942 -56.92578125 109.41455078 C-59.36311 117.73587299 -62.77499733 125.18250001 -66.84814453 132.82714844 C-68.0950281 135.1792603 -69.3124898 137.54525878 -70.52734375 139.9140625 C-72.96097287 144.64107771 -75.45817587 149.33037383 -78 154 C-78.54527344 155.010625 -79.09054687 156.02125 -79.65234375 157.0625 C-81.91488217 160.87309102 -83.77560787 163.20388006 -87.9140625 164.921875 C-88.71175049 165.25630615 -89.50943848 165.5907373 -90.33129883 165.93530273 C-94.23692804 167.49348122 -98.1497137 169.03155582 -102.07104492 170.54980469 C-130.11581789 181.47452908 -145.4502906 197.78275479 -161.7265625 222.5859375 C-164.32168083 226.52089137 -167.11150406 230.2753605 -170 234 C-170.66 233.67 -171.32 233.34 -172 233 C-170.27195302 224.60662897 -167.54898599 216.89424191 -164.33764648 208.96923828 C-162.62858778 205.10963666 -162.62858778 205.10963666 -162 201 C-162.20568604 201.56807373 -162.41137207 202.13614746 -162.62329102 202.72143555 C-167.92830552 217.27161809 -173.07332724 230.65052995 -183.13671875 242.6484375 C-186.78352974 247.25091174 -189.76943038 252.22279948 -191 258 C-208.75994214 259.11257178 -208.75994214 259.11257178 -215.859375 253.95703125 C-224.46181305 246.09239355 -231.24011627 235.65839344 -232.27734375 223.83984375 C-231.92346587 218.94037961 -230.43978942 215.06764591 -228.5625 210.5625 C-228.20196533 209.68722656 -227.84143066 208.81195313 -227.4699707 207.91015625 C-221.59315176 193.98291772 -214.73735241 182.6556374 -204 172 C-203.02353516 170.98679687 -203.02353516 170.98679687 -202.02734375 169.953125 C-197.9072242 165.71099735 -193.49809457 161.83419669 -189 158 C-187.50919922 156.72769531 -187.50919922 156.72769531 -185.98828125 155.4296875 C-182.6703694 152.60602804 -179.33718496 149.8008338 -176 147 C-175.02160156 146.17628906 -174.04320312 145.35257813 -173.03515625 144.50390625 C-167.57048561 139.95895578 -162.01645134 135.78813603 -156 132 C-155 133 -155 133 -154.86938477 135.04589844 C-154.89950876 143.94715289 -155.31666396 152.81518853 -155.79956055 161.70117188 C-155.93798145 164.25889613 -156.06989325 166.81690027 -156.20117188 169.375 C-156.28867605 171.02606219 -156.37655362 172.67710465 -156.46484375 174.328125 C-156.52272316 175.45652802 -156.52272316 175.45652802 -156.58177185 176.60772705 C-156.84962151 181.44285716 -157.35246295 186.20056788 -158 191 C-157.57871826 190.07441284 -157.57871826 190.07441284 -157.14892578 189.13012695 C-153.78427322 181.74495345 -150.39884012 174.36949942 -147 167 C-146.56800293 166.06172363 -146.13600586 165.12344727 -145.69091797 164.15673828 C-140.23479642 152.35143825 -134.32604572 140.88450363 -128.01953125 129.51171875 C-125.47107016 124.9011942 -123.04707063 120.23635835 -120.65063477 115.54541016 C-110.9483108 96.61429381 -97.46411342 79.00654479 -80.75 65.625 C-77.96773189 63.39240868 -75.19289252 61.16478105 -72.48046875 58.84765625 C-58.23307634 46.74503259 -41.56887032 35.79015211 -24.5625 28 C-13.1220202 22.35602996 -6.87588172 10.30118309 0 0 Z " fill="#96ED12" transform="translate(476,144)"/>
<path d="M0 0 C3.73959958 3.27319072 5.80597401 7.02701355 7.9375 11.4375 C8.28594971 12.15196289 8.63439941 12.86642578 8.9934082 13.60253906 C20.37609844 37.27009337 24.85061718 62.71588292 25.70996094 88.83203125 C25.73273458 93.05080467 25.73273458 93.05080467 27 97 C27.3403125 96.030625 27.680625 95.06125 28.03125 94.0625 C33.70903792 78.21816 40.24749025 64.86721618 51.484375 52.19921875 C54.23838046 48.87406267 56.17250822 45.30495271 58.0625 41.4375 C58.58009888 40.38369141 58.58009888 40.38369141 59.1081543 39.30859375 C63.73830631 29.63881306 66.3120574 19.77281643 67.87426758 9.203125 C68.15702466 7.4512936 68.57010821 5.72164394 69 4 C69.99 3.34 70.98 2.68 72 2 C73.28670088 5.72786797 72.80060405 8.80770363 72.2578125 12.671875 C72.07863281 13.97640625 71.89945312 15.2809375 71.71484375 16.625 C71.5184572 18.00003259 71.32184088 19.37503238 71.125 20.75 C70.93549169 22.10927673 70.74668265 23.46865114 70.55859375 24.828125 C69.15326719 34.95946275 69.15326719 34.95946275 68.64355469 38.41992188 C68.17772972 41.74159953 67.97854792 44.94378695 68.0390625 48.2890625 C68.09749117 53.75097499 67.27976241 58.99908367 66.375 64.375 C66.2004126 65.42502197 66.0258252 66.47504395 65.84594727 67.55688477 C64.67203176 74.20571235 63.08885894 80.54154996 60.9375 86.9375 C55.97913416 101.69034067 54.50962011 115.47130343 55 131 C89.65673618 88.08307217 89.65673618 88.08307217 102 37 C101.01960993 29.95394457 99.83972097 22.87662693 98 16 C99.32 16 100.64 16 102 16 C102.63362121 17.93469776 103.25633651 19.87296739 103.875 21.8125 C104.39707031 23.43091797 104.39707031 23.43091797 104.9296875 25.08203125 C107.74627415 34.87733558 108.35768932 44.40006673 108.3125 54.5625 C108.30926727 55.55319489 108.30926727 55.55319489 108.30596924 56.56390381 C108.08710915 98.46485685 89.58726431 138.56203206 60.625 168.625 C56.93105825 172.20829373 52.90777374 175.38024598 48.90234375 178.60546875 C44.99011149 181.833192 41.26721207 185.24682603 37.53515625 188.6796875 C35.46674242 190.57281203 33.37594124 192.42251704 31.25 194.25 C28.55297701 196.58256043 25.938712 198.9886803 23.34765625 201.4375 C22.35427246 202.37480957 22.35427246 202.37480957 21.34082031 203.33105469 C20.01213022 204.58809659 18.68710989 205.84903147 17.36621094 207.11425781 C14.09334095 210.21012391 11.01959954 212.87875818 7 215 C6 213 6 213 6.57324219 211.0480957 C6.89454102 210.26523193 7.21583984 209.48236816 7.546875 208.67578125 C8.0728125 207.37930664 8.0728125 207.37930664 8.609375 206.05664062 C8.98578125 205.15107422 9.3621875 204.24550781 9.75 203.3125 C10.1109375 202.42626953 10.471875 201.54003906 10.84375 200.62695312 C12.84492578 195.72914791 14.90063352 190.85644588 17 186 C17.66 186 18.32 186 19 186 C19.16000488 185.39051514 19.32000977 184.78103027 19.48486328 184.15307617 C21.26877696 177.7561211 23.71269879 172.13854143 26.875 166.3125 C27.29652344 165.51005859 27.71804688 164.70761719 28.15234375 163.88085938 C30.77712886 158.96440408 33.66475431 154.46492568 37 150 C36.67 149.34 36.34 148.68 36 148 C26.34250767 166.41956924 26.34250767 166.41956924 17 185 C16.01 185 15.02 185 14 185 C14.23074219 183.9790625 14.46148437 182.958125 14.69921875 181.90625 C15.81583075 176.94107578 16.91189304 171.97149343 18 167 C18.20850586 166.04770508 18.41701172 165.09541016 18.63183594 164.11425781 C23.1824086 143.18993511 26.58201949 123.47005225 26 102 C25.94839722 103.0820874 25.94839722 103.0820874 25.89575195 104.18603516 C24.20835739 137.43686447 19.79558688 171.37682911 6 202 C5.01 202 4.02 202 3 202 C2.85304688 201.3915625 2.70609375 200.783125 2.5546875 200.15625 C-2.02723426 182.24988908 -9.94128007 166.55300636 -19.08984375 150.59375 C-19.59620361 149.70075195 -20.10256348 148.80775391 -20.62426758 147.88769531 C-21.60113258 146.17075217 -22.59123915 144.46125363 -23.59643555 142.76074219 C-27.29147033 136.26818151 -27.75018311 131.7490284 -25.96875 124.4609375 C-25.49240979 122.76185648 -25.00201997 121.06667144 -24.5 119.375 C-24.09080322 117.98704224 -24.09080322 117.98704224 -23.67333984 116.57104492 C-18.27107524 98.66218856 -10.80131324 81.90996541 -2.72314453 65.07739258 C5.35866105 48.23452514 11.32707094 35.72720631 5 17 C3.48178658 13.25805045 1.82164939 9.59052262 0.109375 5.93359375 C-1 3 -1 3 0 0 Z " fill="#93EA12" transform="translate(259,104)"/>
<path d="M0 0 C9.93146328 4.09544877 19.24590911 1.5117803 29.03125 -1.75 C29.03125 -0.76 29.03125 0.23 29.03125 1.25 C11.90089657 9.74289675 -6.45017333 11.62605346 -25.26464844 12.58935547 C-51.40468073 13.93350941 -77.74095588 17.89855447 -96.96875 37.25 C-97.87367188 38.11882812 -98.77859375 38.98765625 -99.7109375 39.8828125 C-105.03724005 45.06157205 -109.89015764 50.43191224 -114.52734375 56.23046875 C-144.06550587 92.76326767 -144.06550587 92.76326767 -162.36328125 95.81640625 C-171.12038733 96.71773353 -178.42014361 96.6186056 -185.6640625 91.25390625 C-190.17812763 87.35180622 -194.03181065 83.45639249 -196.96875 78.25 C-194.54820855 75.82945855 -188.86029055 76.25960224 -185.58203125 75.84765625 C-173.3594785 73.82597996 -165.72079202 66.11002296 -158.60839844 56.39111328 C-156.56331278 53.52867733 -154.54520025 50.64808946 -152.53442383 47.76147461 C-145.02066965 36.97779128 -136.91791296 26.71904751 -128.30371094 16.79345703 C-127.02767976 15.31813349 -125.76733841 13.82928312 -124.5078125 12.33984375 C-90.13106186 -27.21010723 -43.4574334 -19.46977616 0 0 Z " fill="#95EC12" transform="translate(461.96875,328.75)"/>
<path d="M0 0 C3.731646 3.52762303 6.71600679 7.21784093 9.5625 11.5 C14.71879476 19.60782729 14.71879476 19.60782729 22 25.625 C22.87914063 26.13289063 23.75828125 26.64078125 24.6640625 27.1640625 C27.23198417 28.5773215 29.80873773 29.96362735 32.3984375 31.3359375 C50.45727171 40.96284962 66.81877551 52.2766998 82 66 C83.05674631 66.93551222 84.11403373 67.87041359 85.171875 68.8046875 C103.78610121 85.38609045 116.814217 104.97825691 127.8125 127.125 C128.15328583 127.80800171 128.49407166 128.49100342 128.84518433 129.19470215 C133.75918923 139.07340871 138.35362037 149.05067483 142.5625 159.25 C143.03341064 160.37937988 143.50432129 161.50875977 143.98950195 162.67236328 C144.40675537 163.71376465 144.82400879 164.75516602 145.25390625 165.828125 C145.61814697 166.7346582 145.9823877 167.64119141 146.35766602 168.57519531 C147.04812345 171.18166557 146.90949422 172.49643033 146 175 C143.24851753 173.91906046 140.53233081 172.79323493 137.828125 171.59765625 C126.34314588 166.67014883 115.30588446 164.00819716 102.76171875 163.8828125 C101.68462646 163.86710205 100.60753418 163.8513916 99.49780273 163.83520508 C97.36833304 163.82031816 95.2382171 163.84231153 93.10961914 163.9050293 C85.96289069 163.87975923 85.96289069 163.87975923 83.39379883 161.5324707 C82.04439561 159.42037292 81.02778684 157.28544279 80 155 C79.067141 153.32836339 78.12255368 151.66323216 77.16796875 150.00390625 C74.05939119 144.3639845 71.01442838 138.6907228 68 133 C67.61376465 132.2766748 67.2275293 131.55334961 66.82958984 130.80810547 C61.55888272 120.80046515 58.03222413 110.35819281 54.55810547 99.61645508 C47.63403394 78.2587688 40.06556156 55.09273979 24.34765625 38.5390625 C15.77990779 29.2727788 8.80492364 18.58821146 2 8 C1.39027344 7.0925 0.78054687 6.185 0.15234375 5.25 C-0.22792969 4.5075 -0.60820313 3.765 -1 3 C-0.67 2.01 -0.34 1.02 0 0 Z " fill="#95ED12" transform="translate(61,148)"/>
<path d="M0 0 C0.73827026 -0.01221588 1.47654053 -0.02443176 2.23718262 -0.03701782 C22.32546952 -0.31659477 41.09412762 4.72103137 56.375 18.4375 C57.17292969 19.14261719 57.97085938 19.84773438 58.79296875 20.57421875 C73.34264133 34.22158605 80.77276164 51.88923446 88.27734375 70.015625 C91.73057731 78.29895955 95.65145779 85.44972156 101.375 92.4375 C101.89320313 93.118125 102.41140625 93.79875 102.9453125 94.5 C107.16940829 99.76419978 112.30132463 103.66348367 117.75244141 107.58203125 C119.55859375 108.921875 119.55859375 108.921875 122.375 111.4375 C122.375 112.7575 122.375 114.0775 122.375 115.4375 C120.29370896 116.42100025 118.20988641 117.39914458 116.125 118.375 C114.96484375 118.92027344 113.8046875 119.46554687 112.609375 120.02734375 C105.44859521 123.14937455 97.43071891 123.71295492 89.8046875 121.7890625 C71.60086938 114.36799379 64.79090551 93.79209334 57.62915039 77.05004883 C46.43232648 50.94070966 26.01520868 29.15056788 -0.625 18.4375 C-19.87623456 12.13018152 -38.80143651 12.8957818 -58.625 15.4375 C-60.13666433 15.62673727 -61.64838099 15.81555719 -63.16015625 16.00390625 C-64.30355469 16.14699219 -65.44695312 16.29007812 -66.625 16.4375 C-66.625 15.4475 -66.625 14.4575 -66.625 13.4375 C-65.64402344 13.13457031 -64.66304688 12.83164062 -63.65234375 12.51953125 C-62.28903042 12.09645752 -60.92575194 11.67327151 -59.5625 11.25 C-58.83659668 11.02586426 -58.11069336 10.80172852 -57.36279297 10.57080078 C-53.83629054 9.47388783 -50.3293976 8.3520533 -46.85546875 7.09765625 C-31.25108027 1.53552861 -16.47258868 0.14686749 0 0 Z " fill="#94EB12" transform="translate(156.625,313.5625)"/>
<path d="M0 0 C0.99 0.33 1.98 0.66 3 1 C0.32358254 6.01277246 -2.54566231 10.12149651 -6.4375 14.25 C-6.96118164 14.80792236 -7.48486328 15.36584473 -8.02441406 15.94067383 C-17.4940346 25.84776495 -27.88616053 33.86842272 -39.75738525 40.701828 C-41.19131245 41.53187879 -42.61807877 42.37450739 -44.03509521 43.23310852 C-58.33568228 51.77166477 -70.86424278 51.96090953 -87.1875 51.1875 C-102.72546758 50.52769727 -114.77154815 50.35049621 -129 57 C-150.0813315 64.57503313 -174.15735655 62.53430606 -195 55 C-196.69003414 54.0400196 -198.36386659 53.04921173 -200 52 C-199.67 51.34 -199.34 50.68 -199 50 C-197.845 50.0825 -196.69 50.165 -195.5 50.25 C-184.79475588 50.21622951 -171.34022926 46.8926417 -163 40 C-160.47765141 36.8388213 -158.27827418 33.5852526 -156.1015625 30.18359375 C-149.03865506 19.48420795 -137.46308011 10.94380762 -125.05078125 7.62890625 C-100.71238452 3.17668327 -78.33686435 10.29549672 -56.03417969 19.1652832 C-45.00420086 23.54313793 -35.08015656 27.11626675 -23.359375 23.09375 C-12.70079067 18.2548835 -6.49551412 9.39776511 0 0 Z " fill="#94EB12" transform="translate(486,377)"/>
<path d="M0 0 C1.5976914 0.98806723 3.21625567 1.94229623 4.83984375 2.88720703 C11.35668105 7.16109177 13.99781326 13.45684198 17.109375 20.35595703 C19.39364773 25.34747016 22.19665562 29.76508711 26.18359375 33.57080078 C27.54484375 34.87017578 27.54484375 34.87017578 28.93359375 36.19580078 C28.60359375 37.18580078 28.27359375 38.17580078 27.93359375 39.19580078 C21.39501285 41.77439607 12.86300031 41.22723643 6.39453125 38.94970703 C0.48357491 36.06094394 -4.91078543 32.66706783 -10.37890625 29.00830078 C-28.29569311 17.04542421 -48.41555544 8.78498106 -69.64257812 5.41918945 C-79.39240104 3.77752407 -88.48125093 0.13787066 -97.5625 -3.67919922 C-98.67818359 -4.1476123 -98.67818359 -4.1476123 -99.81640625 -4.62548828 C-101.21824695 -5.22064476 -102.615874 -5.82588666 -104.0078125 -6.44384766 C-112.95977348 -10.30014559 -121.33883877 -11.12651343 -131.00390625 -10.49169922 C-131.96377441 -10.43828369 -132.92364258 -10.38486816 -133.91259766 -10.32983398 C-140.30797711 -9.96018083 -146.69938029 -9.52010884 -153.06640625 -8.80419922 C-153.06640625 -9.79419922 -153.06640625 -10.78419922 -153.06640625 -11.80419922 C-98.41895512 -28.06815833 -49.66365092 -30.79281069 0 0 Z " fill="#93EA12" transform="translate(208.06640625,397.80419921875)"/>
<path d="M0 0 C3.33282883 2.22188588 3.42213554 2.49012315 4.2109375 6.1484375 C4.40099365 6.9832666 4.5910498 7.8180957 4.78686523 8.67822266 C4.98094971 9.56815918 5.17503418 10.4580957 5.375 11.375 C8.69453517 25.52041794 13.39025183 38.68786047 24 49 C42.54088794 67.9676942 58.98373332 87.70260918 70 112 C70.28359375 112.62374512 70.5671875 113.24749023 70.859375 113.89013672 C76.81061355 127.22778868 84.96899379 148.23683632 80.39111328 162.95800781 C78.1788903 168.23739287 75.25816432 173.13611016 71 177 C68 176 68 176 66.58056641 173.68115234 C66.09249512 172.65973145 65.60442383 171.63831055 65.1015625 170.5859375 C64.5461377 169.44350586 63.99071289 168.30107422 63.41845703 167.12402344 C62.98028656 166.20743958 62.98028656 166.20743958 62.53326416 165.27233887 C60.99437479 162.05764126 59.42121872 158.85997056 57.84375 155.6640625 C57.52391144 155.01566406 57.20407288 154.36726562 56.87454224 153.69921875 C53.83939549 147.59238372 50.52782881 141.65930272 47.125 135.75 C33.20566018 111.39271882 33.20566018 111.39271882 30.85058594 99.40429688 C29.15626705 91.51150701 26.14464676 84.10992943 23.1875 76.625 C22.78742737 75.61221985 22.78742737 75.61221985 22.37927246 74.57897949 C21.32003696 71.90209583 20.25875869 69.22604176 19.19351196 66.55154419 C17.03734779 61.12914638 14.98978989 55.67277554 13 50.1875 C11.37554744 45.71182199 9.72375265 41.26396791 7.875 36.875 C3.2812294 25.50937791 -0.21457292 13.26762295 -1 1 C-0.67 0.67 -0.34 0.34 0 0 Z " fill="#94EB12" transform="translate(180,165)"/>
<path d="M0 0 C3.38350892 2.67915615 4.41579643 6.25726182 5.77734375 10.1953125 C6.02996475 10.90219208 6.28258575 11.60907166 6.54286194 12.33737183 C7.34913361 14.59714696 8.14394554 16.86073104 8.9375 19.125 C9.9835657 22.08762691 11.03501754 25.04829419 12.08984375 28.0078125 C12.34230362 28.71955627 12.59476349 29.43130005 12.85487366 30.16461182 C14.18439527 33.87408142 15.60371472 37.48125827 17.2734375 41.0546875 C19.10767577 45.0159577 19.94793865 48.69087953 20.6875 53 C20.91824219 54.299375 21.14898437 55.59875 21.38671875 56.9375 C21.73710807 59.02082061 22.00089574 61.02069909 22.09228516 63.13256836 C22.45307213 70.07272802 25.33834243 74.77207881 29 80.5625 C30.1977931 82.52271785 31.39440292 84.48365923 32.58984375 86.4453125 C33.17620605 87.39696289 33.76256836 88.34861328 34.36669922 89.32910156 C36.50487787 92.82561493 38.55758989 96.36322272 40.5625 99.9375 C40.90555176 100.54843506 41.24860352 101.15937012 41.60205078 101.78881836 C46.51432613 110.62888878 51.15126175 119.62411292 55.77197266 128.61914062 C56.78371885 130.58068115 57.81847241 132.53033708 58.859375 134.4765625 C61.34807877 139.98239345 58.46345672 146.30419099 56.9140625 151.86328125 C56 154 56 154 53 156 C48.09965427 150.64270885 43.67734427 145.0240844 39.3828125 139.171875 C37.82625763 137.09987081 36.21792685 135.06551004 34.5546875 133.078125 C8.20669868 101.19623257 2.40077354 54.99354907 -0.25 15.125 C-0.29724213 14.42648926 -0.34448425 13.72797852 -0.39315796 13.00830078 C-0.52420126 11.02941542 -0.64514869 9.04986929 -0.765625 7.0703125 C-0.83555664 5.92320801 -0.90548828 4.77610352 -0.97753906 3.59423828 C-0.98495117 2.73813965 -0.99236328 1.88204102 -1 1 C-0.67 0.67 -0.34 0.34 0 0 Z " fill="#92E912" transform="translate(188,208)"/>
<path d="M0 0 C8.39230881 -0.9942108 15.23285715 4.85454596 22 9.11181641 C25.52034173 11.26679911 29.14787656 13.19785062 32.8046875 15.109375 C33.50795166 15.47788574 34.21121582 15.84639648 34.93579102 16.22607422 C44.53195503 21.22557082 54.1865916 26.08952991 64.00708008 30.6340332 C66.83755115 31.94832403 69.65683182 33.28480211 72.47021484 34.63525391 C73.95863853 35.34849964 75.45323981 36.04883372 76.94921875 36.74609375 C81.94564489 39.38798883 83.28809787 42.18460611 85.046875 47.4609375 C86.84048154 51.99770699 89.4146622 55.99615471 91.98217773 60.13037109 C98.2421875 70.23495277 98.2421875 70.23495277 98.2421875 73.484375 C94.75827074 72.89827759 93.09122762 71.68074035 90.5703125 69.25 C86.36901822 65.45141043 82.01749421 62.80926884 76.9921875 60.234375 C76.10031738 59.77111816 75.20844727 59.30786133 74.28955078 58.83056641 C65.59159877 54.43938171 56.58111675 50.95828078 47.49389648 47.4675293 C26.90533031 39.54580916 9.64367315 29.8301451 -7.2421875 15.5859375 C-10.72371006 12.67746058 -14.3383116 9.94608174 -17.95703125 7.2109375 C-18.55128906 6.64117187 -19.14554687 6.07140625 -19.7578125 5.484375 C-19.7578125 4.494375 -19.7578125 3.504375 -19.7578125 2.484375 C-14.78516921 1.8382775 -9.81197432 1.25041906 -4.82519531 0.72460938 C-3.20963283 0.5368775 -1.60191271 0.28135577 0 0 Z " fill="#93EA12" transform="translate(117.7578125,327.515625)"/>
<path d="M0 0 C0.66 0.33 1.32 0.66 2 1 C1.42685906 8.17294567 -0.5768246 14.57674013 -2.875 21.375 C-3.2764624 22.56544922 -3.6779248 23.75589844 -4.09155273 24.98242188 C-10.66862534 44.10378634 -19.13005944 62.42789447 -27.5 80.8125 C-27.85119904 81.58464844 -28.20239807 82.35679687 -28.5642395 83.15234375 C-29.5703102 85.35982093 -30.5810726 87.56507824 -31.59375 89.76953125 C-31.89333115 90.4267366 -32.19291229 91.08394196 -32.50157166 91.76106262 C-34.1411296 95.31296021 -35.91826011 98.68745904 -38 102 C-38.66 101.67 -39.32 101.34 -40 101 C-39.76216598 95.59176151 -39.51359311 90.18415894 -39.25537109 84.77685547 C-39.16913577 82.94007536 -39.08575619 81.10315872 -39.00537109 79.26611328 C-38.88883211 76.61449164 -38.76178332 73.96354264 -38.6328125 71.3125 C-38.59938751 70.50071289 -38.56596252 69.68892578 -38.53152466 68.85253906 C-38.12548014 60.91083722 -37.02167739 54.57043492 -31.75 48.3125 C-21.40859324 35.55146303 -12.55950196 21.59564267 -4.76953125 7.15234375 C-3.32303928 4.57548057 -1.84861556 2.29503047 0 0 Z " fill="#8FE412" transform="translate(360,217)"/>
<path d="M0 0 C0.66 0.70125 1.32 1.4025 2 2.125 C13.92340223 13.91480668 30.12646116 18.70408353 46.69921875 19.17578125 C47.51583984 19.19962891 48.33246094 19.22347656 49.17382812 19.24804688 C50.8610629 19.29130931 52.54865028 19.32239828 54.23632812 19.34179688 C55.04908203 19.36951172 55.86183594 19.39722656 56.69921875 19.42578125 C57.79496216 19.44765503 57.79496216 19.44765503 58.9128418 19.4699707 C61.92466625 20.23481699 63.05225166 21.60015779 65 24 C66.53979492 26.9609375 66.53979492 26.9609375 67.98046875 30.375 C68.23878983 30.98134277 68.4971109 31.58768555 68.76325989 32.21240234 C69.30463679 33.48799276 69.84140598 34.76554761 70.3737793 36.04492188 C71.18658738 37.99780731 72.01284684 39.94454389 72.84179688 41.890625 C77.19230056 52.17987866 77.19230056 52.17987866 78 56 C72.85675673 56 70.88864193 53.74691476 67.1875 50.5625 C55.70565133 41.10357728 44.41521748 34.90445454 30.4362793 29.80981445 C24.14583992 27.50245237 18.41497225 25.01619273 13 21 C12.28972656 20.48050781 11.57945313 19.96101563 10.84765625 19.42578125 C5.65286606 15.27575333 1.49023449 10.22037652 -1 4 C-0.65234375 1.69921875 -0.65234375 1.69921875 0 0 Z " fill="#8FE512" transform="translate(51,230)"/>
<path d="M0 0 C5.22420865 3.59164345 8.51862501 8.84043751 12 14.0625 C11.67 15.0525 11.34 16.0425 11 17.0625 C10.49210937 16.31484375 9.98421875 15.5671875 9.4609375 14.796875 C4.36255231 7.14787906 4.36255231 7.14787906 -3 2.0625 C-6.58399407 1.64557147 -6.58399407 1.64557147 -10 2.0625 C-11.1446875 2.1553125 -11.1446875 2.1553125 -12.3125 2.25 C-14.17701863 2.96690975 -14.17701863 2.96690975 -15.25 5 C-16.85475456 11.5527478 -17.05940143 16.92736156 -13.5625 22.875 C-12.39767229 24.61952 -11.20811624 26.34767384 -10 28.0625 C-9.33484375 29.06152344 -8.6696875 30.06054688 -7.984375 31.08984375 C-1.37453725 40.8976066 5.71948558 50.49077698 13.75 59.1875 C22.09428192 68.64171015 26.56013675 80.52386739 31.19775391 92.07373047 C31.85554938 93.70440665 32.53940917 95.32454622 33.23046875 96.94140625 C34 99.0625 34 99.0625 34 102.0625 C21.33946499 101.63550051 9.7290017 98.84984763 -2 94.0625 C-1.67 95.0525 -1.34 96.0425 -1 97.0625 C-4.36720387 95.66917426 -5.9859524 94.0835714 -8 91.0625 C-6.68 91.0625 -5.36 91.0625 -4 91.0625 C-5.12279462 90.08080524 -6.24831473 89.10222702 -7.375 88.125 C-8.00148438 87.57972656 -8.62796875 87.03445312 -9.2734375 86.47265625 C-12.78610508 83.60371282 -15.54185758 83.90877095 -20 84.0625 C-22.26424351 84.18813582 -22.26424351 84.18813582 -24 85.0625 C-26.57829166 88.45498903 -27.16506938 92.88552703 -27 97.0625 C-25.27094851 103.91345873 -21.75206463 109.86238356 -17 115.0625 C-16.34 115.3925 -15.68 115.7225 -15 116.0625 C-15 116.7225 -15 117.3825 -15 118.0625 C-14.47277344 118.31386719 -13.94554687 118.56523437 -13.40234375 118.82421875 C-10.98649862 120.06945925 -8.6645704 121.43827387 -6.33056641 122.8293457 C1.4388989 127.4242946 9.33990107 130.82258698 17.90844727 133.7043457 C22.82071038 135.42585853 26.91276238 137.67275032 31.1875 140.625 C31.82679443 141.05756104 32.46608887 141.49012207 33.12475586 141.93579102 C38.63215077 145.70601332 43.89195136 149.75965019 49.09765625 153.93359375 C51.94557039 156.15000976 51.94557039 156.15000976 55.21875 157.66015625 C58.81973782 159.47582286 60.15621711 161.52243686 62 165.0625 C61.67 166.0525 61.34 167.0425 61 168.0625 C53.26596304 170.70950138 44.16334188 172.22653208 36 171.0625 C35.01 170.0725 35.01 170.0725 34 169.0625 C22.07814967 165.70932685 8.76818495 165.75700813 -3.5 165.6875 C-4.74563721 165.67380371 -5.99127441 165.66010742 -7.2746582 165.64599609 C-8.4524585 165.65195801 -9.63025879 165.65791992 -10.84375 165.6640625 C-12.40899414 165.66913818 -12.40899414 165.66913818 -14.00585938 165.67431641 C-18.45240635 166.25080122 -21.8161105 167.84042052 -24.9375 171.0625 C-26.55944677 175.64211442 -26.37373415 180.40081199 -25 185.0625 C-20.45620761 188.14544891 -15.19523832 188.4033602 -9.875 188.9375 C-3.54811994 189.61602526 2.05539735 190.68465894 8 193.0625 C8 193.3925 8 193.7225 8 194.0625 C5.89241675 193.83023572 3.78490665 193.59729182 1.67773438 193.36132812 C-0.0914183 193.16389533 -1.86094944 192.9698217 -3.63085938 192.77929688 C-6.3403822 192.47956212 -9.04472344 192.14824759 -11.75 191.8125 C-12.66910156 191.71582031 -13.58820312 191.61914062 -14.53515625 191.51953125 C-20.27004083 190.78088476 -23.29800897 189.84454878 -27 185.0625 C-29.48499142 181.51251225 -29.43249013 178.31531959 -29 174.0625 C-27.31442712 169.83119077 -25.03085802 166.32985764 -21 164.0625 C-4.15112963 158.6945519 20.3397524 162.63618552 37.26171875 167.18359375 C40.56954333 167.96129545 42.69334095 168.21360254 46 167.75 C46.83273438 167.64171875 47.66546875 167.5334375 48.5234375 167.421875 C49.74933594 167.24398437 49.74933594 167.24398437 51 167.0625 C52.54141484 166.87294089 54.08306142 166.68525057 55.625 166.5 C57.295625 166.2834375 57.295625 166.2834375 59 166.0625 C56.90856544 161.968774 55.20748589 160.30445745 51.0625 158.375 C46.56972865 156.08144612 42.98246533 153.50936643 39.1875 150.1875 C30.04695109 142.35274379 20.33824815 137.34047227 9.05419922 133.3527832 C4.12571125 131.57893435 -0.50025984 129.45791999 -5.125 127 C-5.72820068 126.68353516 -6.33140137 126.36707031 -6.95288086 126.04101562 C-13.26437005 122.59565176 -18.02980308 118.47565136 -22.1875 112.625 C-22.84105469 111.71878906 -23.49460937 110.81257813 -24.16796875 109.87890625 C-28.77065332 102.80313743 -30.03398507 97.44926781 -29 89.0625 C-27.29134278 85.39205115 -26.13679827 83.7384341 -22.6875 81.6875 C-18.18677386 80.6408195 -14.51905651 80.53413252 -10.125 82.0625 C-7.29722338 83.87227703 -5.18035087 85.71035365 -2.75 88 C6.65595828 96.49019666 18.94123991 97.73493645 31 100.0625 C25.35480785 83.98225568 19.09649217 68.86878376 7.4375 56.1875 C-3.23793193 44.34412255 -19.47514081 26.17611896 -19.28125 9.57421875 C-18.8641349 5.84914915 -17.51881251 3.78554055 -15 1.0625 C-10.21417419 -1.78312616 -5.22357346 -1.63236671 0 0 Z " fill="#001C00" transform="translate(68,137.9375)"/>
<path d="M0 0 C3.25300759 2.14402773 4.37748086 3.15244896 5.75 6.8125 C7.43859155 16.20919926 3.91904177 22.1982229 -1.25 29.8125 C-1.84425781 30.72257812 -2.43851562 31.63265625 -3.05078125 32.5703125 C-4.42815971 34.66760954 -5.8259014 36.74677456 -7.25 38.8125 C-7.58 37.8225 -7.91 36.8325 -8.25 35.8125 C-6.8515625 33.21875 -6.8515625 33.21875 -4.875 30.3125 C-2.13968963 26.27332942 -2.13968963 26.27332942 -0.25 21.8125 C-0.91 21.8125 -1.57 21.8125 -2.25 21.8125 C-2.25 22.8025 -2.25 23.7925 -2.25 24.8125 C-2.91 24.8125 -3.57 24.8125 -4.25 24.8125 C-2.42708333 20.125 -2.42708333 20.125 -1.1875 17.9375 C0.12123644 14.97103073 0.38046254 12.01515802 0.75 8.8125 C1.74 9.3075 1.74 9.3075 2.75 9.8125 C3.08081082 6.71509459 3.08081082 6.71509459 0.875 4.6875 C-1.89992972 2.2390326 -2.80994549 1.84571166 -6.5625 1.5625 C-10.65131589 1.83970786 -11.99798559 2.41055623 -15.25 4.8125 C-16.97085624 6.99655571 -18.53276163 9.12930027 -20.0625 11.4375 C-26.97155697 21.76084968 -33.57092225 28.66875972 -44.8125 34.25 C-46.96366441 35.36846877 -49.1121147 36.49217318 -51.2578125 37.62109375 C-52.29067383 38.16362793 -53.32353516 38.70616211 -54.38769531 39.26513672 C-70.69212529 48.07931935 -85.74708133 60.2196141 -99.25 72.8125 C-100.70267492 74.11052715 -102.16072218 75.40257613 -103.625 76.6875 C-104.23085938 77.22117187 -104.83671875 77.75484375 -105.4609375 78.3046875 C-107.33755271 79.88628896 -109.2734765 81.35840562 -111.25 82.8125 C-113.18866964 80.50100927 -114.33348988 78.80510187 -114.07421875 75.72265625 C-113.55106752 73.38644656 -112.93394364 71.10664239 -112.25 68.8125 C-112.05535156 68.10738281 -111.86070312 67.40226562 -111.66015625 66.67578125 C-111.20823896 65.04953875 -110.73184642 63.43012726 -110.25 61.8125 C-109.92 61.8125 -109.59 61.8125 -109.25 61.8125 C-109.82021934 67.1628559 -110.45734361 72.49037852 -111.25 77.8125 C-109.19550667 78.03640157 -109.19550667 78.03640157 -107.91015625 76.59765625 C-107.38292969 76.02917969 -106.85570312 75.46070313 -106.3125 74.875 C-102.49546303 70.94732428 -98.37122541 67.53706754 -94.1015625 64.11328125 C-92.32427864 62.67928099 -90.56526887 61.2219471 -88.8359375 59.73046875 C-75.59041243 48.39818619 -60.56704389 39.19878531 -45.23046875 30.99609375 C-36.8416103 26.62185207 -36.8416103 26.62185207 -29.875 20.375 C-29.31167969 19.70210937 -28.74835938 19.02921875 -28.16796875 18.3359375 C-26.65600292 16.34667085 -25.21725542 14.34532265 -23.80078125 12.2890625 C-23.36878418 11.66572021 -22.93678711 11.04237793 -22.49169922 10.40014648 C-21.63978284 9.1589512 -20.80088437 7.90869175 -19.97705078 6.64868164 C-14.93920474 -0.75020621 -8.48895701 -3.10173429 0 0 Z " fill="#001C01" transform="translate(483.25,134.1875)"/>
<path d="M0 0 C7.50604411 0.06373585 14.83945266 0.49564201 22.26977539 1.56567383 C23.09380859 1.68330078 23.9178418 1.80092773 24.7668457 1.92211914 C30.29609533 2.80852201 35.4504704 4.33626284 40.70727539 6.25317383 C38.14457817 10.09721966 36.40420064 10.25447461 32.01977539 11.50317383 C30.8196582 11.85895508 29.61954102 12.21473633 28.38305664 12.58129883 C22.34421825 13.68510351 17.83677958 12.59618443 12.45727539 9.81567383 C3.298477 5.47992616 -6.29087578 4.9164727 -16.29272461 4.25317383 C-16.29272461 -2.794504 -5.35318482 0.00479577 0 0 Z " fill="#86D912" transform="translate(67.292724609375,312.746826171875)"/>
<path d="M0 0 C16.75854784 11.41007512 23.30577218 42.35713053 26.9375 61 C27.5975 61 28.2575 61 28.9375 61 C37.61732393 52.18129888 43.31979137 41.8288674 46.296875 29.86328125 C46.9375 28 46.9375 28 48.9375 27 C48.23899243 37.01194181 43.90191472 46.34634946 38.07421875 54.390625 C36.84134722 55.80774478 36.84134722 55.80774478 36.9375 57 C38.2575 56.34 39.5775 55.68 40.9375 55 C38.9032952 59.60372665 36.61919728 62.5876952 32.9375 66 C31.7928125 67.1446875 31.7928125 67.1446875 30.625 68.3125 C30.068125 68.869375 29.51125 69.42625 28.9375 70 C30.8125 64.25 30.8125 64.25 31.9375 62 C30.2875 63.98 28.6375 65.96 26.9375 68 C24.94897718 65.01721577 24.3905929 63.24091618 23.640625 59.80078125 C23.40754639 58.764375 23.17446777 57.72796875 22.93432617 56.66015625 C22.68787354 55.55542969 22.4414209 54.45070312 22.1875 53.3125 C18.9940771 39.61442215 14.80564288 27.26771444 8.375 14.75 C8.01108154 14.03392578 7.64716309 13.31785156 7.2722168 12.58007812 C4.68920434 7.75582881 1.94814145 4.50532073 -3.0625 2 C-8.71134902 1.62158617 -8.71134902 1.62158617 -14.0625 3 C-16.90498469 7.40585126 -16.61424133 12.94762582 -16.0625 18 C-15.23388978 20.44485542 -14.16229447 22.65695961 -13.0625 25 C-13.3925 25.99 -13.7225 26.98 -14.0625 28 C-18.2689225 21.07442581 -20.44457685 15.15169401 -19.0625 7 C-17.3529206 3.39088794 -16.1630495 1.65438079 -12.75 -0.375 C-8.16998241 -1.44012037 -4.48855924 -1.465652 0 0 Z " fill="#001D01" transform="translate(266.0625,94)"/>
<path d="M0 0 C4.07189441 1.73357881 7.33111706 4.50217691 10.75 7.25 C14.74058948 10.43280939 18.73579934 13.5730773 22.875 16.5625 C23.90625 17.366875 24.9375 18.17125 26 19 C26 19.66 26 20.32 26 21 C25.40388916 21.06469482 24.80777832 21.12938965 24.19360352 21.19604492 C3.52765856 23.48788936 -16.89900425 26.72565877 -36.76953125 32.984375 C-39.17466435 33.74052325 -41.5462646 34.43137618 -44 35 C-43.67 34.01 -43.34 33.02 -43 32 C-41.09594727 31.09619141 -41.09594727 31.09619141 -38.56640625 30.3515625 C-37.61999268 30.07078857 -36.6735791 29.79001465 -35.69848633 29.50073242 C-34.66361084 29.21174072 -33.62873535 28.92274902 -32.5625 28.625 C-31.49733154 28.32118408 -30.43216309 28.01736816 -29.3347168 27.7043457 C-13.14435223 23.22465363 3.40402103 20.48225427 20 18 C19.14277344 17.34773438 18.28554687 16.69546875 17.40234375 16.0234375 C4.44323941 6.13324596 4.44323941 6.13324596 0 2 C0 1.34 0 0.68 0 0 Z " fill="#001C00" transform="translate(93,343)"/>
<path d="M0 0 C2.65289457 1.0808089 4.13537365 2.14333681 6.125 4.25 C11.03665709 8.94810678 16.981802 11.93018594 22.94921875 15.11328125 C38.04090181 23.21445181 52.13658943 32.64588542 65.25 43.6875 C66.13606934 44.42685791 66.13606934 44.42685791 67.04003906 45.18115234 C68.42328679 46.38505893 69.72143647 47.68545041 71 49 C71 49.99 71 50.98 71 52 C70.443125 51.401875 69.88625 50.80375 69.3125 50.1875 C67.14369486 47.97191636 67.14369486 47.97191636 64.765625 46.6875 C61.43480057 44.65513255 58.46526541 42.25954043 55.4375 39.8125 C42.98705006 29.92016107 29.42029048 21.26850501 15.234375 14.0546875 C8.75914882 10.75793993 4.15110443 8.04875217 0 2 C0 1.34 0 0.68 0 0 Z " fill="#001900" transform="translate(81,156)"/>
<path d="M0 0 C6.59931199 -0.3729715 11.62006072 0.85820503 17.8125 3.0625 C18.72177246 3.37324463 19.63104492 3.68398926 20.56787109 4.00415039 C25.1520241 5.58553628 29.69312876 7.25162531 34.20703125 9.0234375 C46.24560611 14.20586052 46.24560611 14.20586052 59 14 C64.69666212 11.18720961 68.62761026 6.41594447 72.5546875 1.5390625 C73.03164063 1.03117187 73.50859375 0.52328125 74 0 C74.66 0 75.32 0 76 0 C73.65365057 7.06400946 68.0528786 11.80989144 62.125 16.0625 C52.41998961 18.97400312 44.17015984 16.05858483 35.125 12.375 C23.56608589 7.86595982 11.9913014 4.16169362 0 1 C0 0.67 0 0.34 0 0 Z " fill="#001E00" transform="translate(398,375)"/>
<path d="M0 0 C3.18056747 2.0962831 4.15492188 3.36805595 5.75 6.8125 C6.0185408 9.69426043 6.1291146 12.31543284 6.0625 15.1875 C6.0526709 15.9724585 6.0428418 16.75741699 6.03271484 17.56616211 C5.87257602 24.99016826 5.42089971 32.56162042 3.75 39.8125 C2.76 40.3075 2.76 40.3075 1.75 40.8125 C1.89241648 38.45808284 2.03884808 36.10402516 2.1875 33.75 C2.26871094 32.43902344 2.34992188 31.12804687 2.43359375 29.77734375 C2.72808156 26.08715696 3.20947304 22.47314192 3.75 18.8125 C4.28570979 13.04331767 3.60190713 8.90519131 0.75 3.8125 C-1.71247759 1.78975055 -3.42505191 1.79304979 -6.625 1.4375 C-11.09929418 1.90035802 -12.95472201 2.74190005 -16.25 5.8125 C-17.69048645 8.71670655 -18.49624176 11.66768084 -19.25 14.8125 C-19.45496094 15.66585937 -19.65992188 16.51921875 -19.87109375 17.3984375 C-20.35901774 19.5318431 -20.81887159 21.66700217 -21.25 23.8125 C-21.58 23.8125 -21.91 23.8125 -22.25 23.8125 C-22.67520625 16.15878747 -21.48546488 9.3892438 -17.375 2.8125 C-12.308182 -1.95626988 -6.43894763 -2.3526924 0 0 Z " fill="#001F00" transform="translate(337.25,96.1875)"/>
<path d="M0 0 C0.73589355 -0.00539795 1.47178711 -0.0107959 2.22998047 -0.01635742 C5.90346106 0.03363669 8.69223795 0.28876415 11.8125 2.3125 C6.72345065 3.2787622 1.69056592 3.6488096 -3.46875 3.9609375 C-5.29950769 4.08029243 -7.13023599 4.20009897 -8.9609375 4.3203125 C-11.81257151 4.504698 -14.66427036 4.68608874 -17.51660156 4.859375 C-27.74180032 5.48620711 -37.54423723 6.22465215 -47.49023438 8.81103516 C-50.17270918 9.30975015 -51.64897976 9.22074302 -54.1875 8.3125 C-38.47086192 1.40311005 -16.99425767 0.07550662 0 0 Z " fill="#0B100C" transform="translate(453.1875,346.6875)"/>
<path d="M0 0 C4.1785866 4.90529732 4.12586005 9.53985536 4.0625 15.8125 C4.05347656 16.97394531 4.04445313 18.13539063 4.03515625 19.33203125 C4.02355469 20.21246094 4.01195312 21.09289062 4 22 C4.33 22 4.66 22 5 22 C5.2954439 27.02254631 4.98514628 29.89542386 2 34 C0.68 33.67 -0.64 33.34 -2 33 C-2.24492187 33.81726563 -2.48984375 34.63453125 -2.7421875 35.4765625 C-4.22547612 39.63161324 -6.11800949 43.45321289 -8.125 47.375 C-8.49753906 48.11105469 -8.87007812 48.84710938 -9.25390625 49.60546875 C-10.1656122 51.40550358 -11.08229932 53.20301402 -12 55 C-13.34737255 50.95788236 -12.20140928 49.7765177 -10.32421875 46.01171875 C-9.45313477 44.23958008 -9.45313477 44.23958008 -8.56445312 42.43164062 C-7.93938452 41.18330194 -7.31372808 39.93525743 -6.6875 38.6875 C-5.77076358 36.84509869 -4.8569528 35.00134149 -3.94721985 33.1554718 C-3.11604328 31.47145778 -2.27638183 29.7916395 -1.4362793 28.11206055 C2.59615517 19.37477647 2.38512721 13.0932975 0 4 C0 2.68 0 1.36 0 0 Z " fill="#022102" transform="translate(253,123)"/>
<path d="M0 0 C3.75821117 1.43816023 5.35603707 3.41157105 7.234375 7.01171875 C8.8487516 11.20415593 8.72907353 14.92974307 7.26953125 19.07421875 C5.14907257 23.61805879 2.44755021 27.37099978 -1 31 C-1.66 31 -2.32 31 -3 31 C-2.01 28.03 -1.02 25.06 0 22 C0.66 22.33 1.32 22.66 2 23 C5.01759496 17.97067506 5.46070653 14.71276096 5 9 C4.17465186 6.38639757 3.52682862 5.40525278 1.375 3.75 C-2.11574748 2.64765869 -5.40881571 2.41297949 -9 3 C-12.34752558 4.81378992 -12.34752558 4.81378992 -15 7 C-15.99 7.495 -15.99 7.495 -17 8 C-16.77347501 4.82865008 -15.9392256 3.94390056 -13.5625 1.75 C-8.96756553 -0.50716079 -5.0429924 -0.71567219 0 0 Z " fill="#001C00" transform="translate(492,366)"/>
<path d="M0 0 C2 1 2 1 2.74609375 2.7578125 C3.54542582 5.49450873 4.28714061 8.23941707 5 11 C5.42539062 12.52753906 5.42539062 12.52753906 5.859375 14.0859375 C7.93815966 22.65602143 8.28649817 30.89283287 8.3125 39.6875 C8.31789795 40.83476562 8.3232959 41.98203125 8.32885742 43.1640625 C8.25157598 52.20666311 8.25157598 52.20666311 6 56 C5.98541748 55.28158936 5.97083496 54.56317871 5.95581055 53.82299805 C5.62086184 38.98228491 4.85745197 24.57898923 2 10 C1.78859375 8.88367188 1.5771875 7.76734375 1.359375 6.6171875 C0.92842297 4.40701923 0.46934983 2.2023338 0 0 Z " fill="#061D07" transform="translate(368,119)"/>
<path d="M0 0 C5.2675519 0.4540993 10.20287108 1.25794911 15.34375 2.5 C23.20049853 4.2103371 30.85611661 4.5497861 38.875 4.6875 C40.25654009 4.72079599 41.6380517 4.75529614 43.01953125 4.79101562 C46.34627195 4.87243935 49.672784 4.94192612 53 5 C53 5.33 53 5.66 53 6 C39.41484487 8.59517083 25.76751762 9.10314259 12.5078125 5.0078125 C8.62846448 3.89325594 5.00879366 3.41409517 1 3 C0.67 2.01 0.34 1.02 0 0 Z " fill="#071F08" transform="translate(292,439)"/>
<path d="M0 0 C1.485 0.99 1.485 0.99 3 2 C5.86209392 2.22932971 8.63514256 2.34901031 11.5 2.37890625 C12.33208984 2.39590073 13.16417969 2.4128952 14.02148438 2.43040466 C16.68091239 2.48353898 19.34032547 2.52382518 22 2.5625 C24.65959403 2.60645825 27.31906846 2.65320102 29.97851562 2.70530701 C31.63337226 2.73720281 33.28833407 2.76411194 34.94335938 2.78553772 C38.20451294 2.84412564 40.88536237 2.96178746 44 4 C44 4.66 44 5.32 44 6 C38.50073576 6.02470469 33.00150378 6.04286223 27.50219727 6.05493164 C25.63109779 6.05996279 23.76000225 6.06678835 21.88891602 6.07543945 C19.20067372 6.08755829 16.51248336 6.09324047 13.82421875 6.09765625 C12.98662521 6.10281754 12.14903168 6.10797882 11.28605652 6.11329651 C7.93624258 6.11362064 5.20053544 6.06684515 2 5 C0.8125 2.4375 0.8125 2.4375 0 0 Z " fill="#061807" transform="translate(49,391)"/>
<path d="M0 0 C4.83330765 2.51331998 7.72977419 5.76794307 11 10 C8.07459296 9.37312706 5.5164751 8.64872507 3 7 C2.38671875 4.92578125 2.38671875 4.92578125 2 3 C0.58344207 2.9727585 -0.83327045 2.95349533 -2.25 2.9375 C-3.03890625 2.92589844 -3.8278125 2.91429687 -4.640625 2.90234375 C-6.90691002 2.99614694 -8.8288895 3.36758937 -11 4 C-11 3.34 -11 2.68 -11 2 C-7.33237392 -0.34728069 -4.28301385 -0.4430704 0 0 Z M-12 4 C-11.4375 5.9375 -11.4375 5.9375 -11 8 C-11.33 8.33 -11.66 8.66 -12 9 C-11.79510922 14.02913736 -11.14375899 19.09817576 -10 24 C-13.06869079 20.37336544 -15.04134545 16.7701454 -14.96875 11.90625 C-14.41129032 6.41129032 -14.41129032 6.41129032 -12 4 Z " fill="#0A100D" transform="translate(55,221)"/>
<path d="M0 0 C2.49361571 1.20381448 4.68143083 2.45428722 7 4 C7 4.99 7 5.98 7 7 C-0.90793192 8.83731499 -8.49107259 9.37249575 -16.58398438 9.56640625 C-21.21329878 9.72127786 -24.73571346 10.04748785 -29 12 C-31.23828125 12.1953125 -31.23828125 12.1953125 -33.3125 12.125 C-34.529375 12.08375 -35.74625 12.0425 -37 12 C-37 11.67 -37 11.34 -37 11 C-29.81528659 8.97452228 -22.9569991 7.62708362 -15.49609375 7.2109375 C-12.87089945 7.08764367 -12.87089945 7.08764367 -10 6 C-7.77425665 5.77548542 -5.54418481 5.59217122 -3.3125 5.4375 C-2.13300781 5.35371094 -0.95351562 5.26992188 0.26171875 5.18359375 C1.16535156 5.12300781 2.06898437 5.06242187 3 5 C2.01 3.35 1.02 1.7 0 0 Z " fill="#08290A" transform="translate(122,360)"/>
<path d="M0 0 C1.25148438 3.75445313 0.56996854 4.60964515 -1.01953125 8.1484375 C-1.46490234 9.15390625 -1.91027344 10.159375 -2.36914062 11.1953125 C-2.84544922 12.24460938 -3.32175781 13.29390625 -3.8125 14.375 C-4.7361112 16.44511887 -5.65930285 18.51542499 -6.58203125 20.5859375 C-6.99686768 21.5042334 -7.4117041 22.4225293 -7.83911133 23.36865234 C-8.95222552 25.89171118 -9.9920677 28.43335273 -11 31 C-11.33 31 -11.66 31 -12 31 C-11.83102578 22.33623087 -10.44634483 14.56906678 -6 7 C-5.01 6.67 -4.02 6.34 -3 6 C-1.29144978 2.99992729 -1.29144978 2.99992729 0 0 Z " fill="#0A100C" transform="translate(446,207)"/>
<path d="M0 0 C6.43237241 -0.19239399 12.0639664 0.39051266 18.3125 1.875 C19.09689453 2.04902344 19.88128906 2.22304688 20.68945312 2.40234375 C24.3619456 3.24480167 27.72790891 4.0525356 31 6 C31 6.66 31 7.32 31 8 C30.05125 7.690625 29.1025 7.38125 28.125 7.0625 C19.28597993 4.56989634 10.1053957 4.87155398 1 5 C1.33 4.34 1.66 3.68 2 3 C1.34 2.67 0.68 2.34 0 2 C0 1.34 0 0.68 0 0 Z " fill="#072109" transform="translate(49,322)"/>
<path d="M0 0 C0.33 0 0.66 0 1 0 C1 1.98 1 3.96 1 6 C1.99 4.68 2.98 3.36 4 2 C4 2.66 4 3.32 4 4 C8.95 4.99 13.9 5.98 19 7 C19 7.33 19 7.66 19 8 C11.53806351 10.5402337 4.73011999 10.58566564 -3 9 C-2.01 6.03 -1.02 3.06 0 0 Z " fill="#061406" transform="translate(407,296)"/>
<path d="M0 0 C0.99 0.33 1.98 0.66 3 1 C0.21127062 6.27579332 -2.91455704 10.47930122 -7 14.8125 C-7.52078125 15.38419922 -8.0415625 15.95589844 -8.578125 16.54492188 C-11.16959192 19.32944 -13.36164995 21.6268727 -17 23 C-17.33 22.01 -17.66 21.02 -18 20 C-17.53851563 19.64550781 -17.07703125 19.29101562 -16.6015625 18.92578125 C-9.92191513 13.47381611 -5.06631663 6.90389459 0 0 Z " fill="#85D812" transform="translate(486,377)"/>
<path d="M0 0 C8.95009384 3.97123369 15.07757931 13.59697414 21 21 C21.33 16.38 21.66 11.76 22 7 C22.33 7 22.66 7 23 7 C23 12.94 23 18.88 23 25 C19.30235595 23.15117797 17.84673103 22.01842239 15.25 19 C14.63640625 18.29875 14.0228125 17.5975 13.390625 16.875 C12 15 12 15 12 13 C11.34 13 10.68 13 10 13 C8.4169795 11.26303438 6.90646276 9.45943503 5.4375 7.625 C4.63183594 6.62726563 3.82617188 5.62953125 2.99609375 4.6015625 C1 2 1 2 0 0 Z " fill="#001100" transform="translate(154,208)"/>
<path d="M0 0 C0.33 0 0.66 0 1 0 C1.66 4.62 2.32 9.24 3 14 C3.66 14 4.32 14 5 14 C5.268125 14.845625 5.53625 15.69125 5.8125 16.5625 C6.90456297 20.01071742 6.90456297 20.01071742 8.625 23.0625 C10.94752921 28.32061181 10.56520185 34.38468297 10 40 C8.98046875 42.39453125 8.98046875 42.39453125 8 44 C6.65989253 41.31978507 6.97622047 39.30227342 7.0625 36.3125 C7.10372131 31.41305254 6.82003576 27.55008939 5 23 C4.34 22.67 3.68 22.34 3 22 C2.64159778 19.67038557 2.31151288 17.33634657 2 15 C1.649375 14.236875 1.29875 13.47375 0.9375 12.6875 C-0.5138231 8.52704045 -0.15255685 4.3648211 0 0 Z " fill="#09100D" transform="translate(249,102)"/>
<path d="M0 0 C3.85048477 0.69879168 7.50926601 1.73150549 11.25 2.875 C19.39541357 5.24426042 27.63193612 6.66273071 36 8 C36.33 7.01 36.66 6.02 37 5 C37.495 7.475 37.495 7.475 38 10 C30.27505991 10.56754662 23.89363884 9.38843094 16.5234375 7.078125 C12.14190862 5.73743545 7.71019404 4.76134906 3.23046875 3.80859375 C2.49441406 3.54175781 1.75835937 3.27492187 1 3 C0.67 2.01 0.34 1.02 0 0 Z " fill="#09100C" transform="translate(66,232)"/>
<path d="M0 0 C0.66 0.33 1.32 0.66 2 1 C0.52648479 5.08806015 -1.48084219 8.52728765 -3.8125 12.1875 C-9.19170449 20.77503309 -13.3960632 29.53714919 -17 39 C-18.23088984 36.1029002 -17.99686255 34.99144683 -16.8918457 31.97900391 C-16.32554443 30.82319824 -15.75924316 29.66739258 -15.17578125 28.4765625 C-14.87310837 27.85276703 -14.57043549 27.22897156 -14.2585907 26.58627319 C-13.61586277 25.26735555 -12.96742319 23.95120816 -12.3137207 22.63769531 C-11.32223467 20.64456903 -10.34814997 18.64370307 -9.37695312 16.640625 C-6.54342383 10.85067789 -3.66947085 5.30386593 0 0 Z " fill="#1D5A10" transform="translate(295,251)"/>
<path d="M0 0 C0.66 0.33 1.32 0.66 2 1 C1.09245169 5.29001493 -1.03147606 8.60122222 -3.375 12.25 C-3.77460938 12.8996875 -4.17421875 13.549375 -4.5859375 14.21875 C-5.64001795 15.86921808 -6.81303045 17.44236276 -8 19 C-8.99 19 -9.98 19 -11 19 C-11.66 19.33 -12.32 19.66 -13 20 C-11.66349743 17.19607216 -10.1678969 14.66068855 -8.3984375 12.109375 C-7.90859375 11.40039062 -7.41875 10.69140625 -6.9140625 9.9609375 C-6.40617187 9.23132813 -5.89828125 8.50171875 -5.375 7.75 C-4.859375 7.00492188 -4.34375 6.25984375 -3.8125 5.4921875 C-2.54395914 3.6598507 -1.27306421 1.82919561 0 0 Z " fill="#81D312" transform="translate(476,144)"/>
<path d="M0 0 C9.45546886 2.03941485 18.41029954 5.57617529 27 10 C25.20703125 10.609375 25.20703125 10.609375 23 11 C21.20648394 10.05248208 19.41512487 9.10058278 17.63671875 8.125 C12.09494966 5.76051185 5.91683416 5.01695587 0 4 C0 2.68 0 1.36 0 0 Z " fill="#071D09" transform="translate(95,395)"/>
<path d="M0 0 C0 3 0 3 -2.625 6 C-8.32224241 11.48492282 -14.73289101 16.19318825 -21 21 C-21.66 20.67 -22.32 20.34 -23 20 C-19.50794062 16.40523299 -15.95966325 13.07973809 -12 10 C-11.34 10 -10.68 10 -10 10 C-10 9.34 -10 8.68 -10 8 C-8.38542921 6.56418526 -6.70780925 5.19855217 -5 3.875 C-4.071875 3.15054687 -3.14375 2.42609375 -2.1875 1.6796875 C-1.1046875 0.84824219 -1.1046875 0.84824219 0 0 Z " fill="#001400" transform="translate(487,399)"/>
<path d="M0 0 C1.2375 -0.103125 2.475 -0.20625 3.75 -0.3125 C4.79414063 -0.39951172 4.79414063 -0.39951172 5.859375 -0.48828125 C8 0 8 0 10.2421875 2.08984375 C15.19816649 10.29474229 11.90947319 25.80624021 10 35 C9.34 35.99 8.68 36.98 8 38 C8.8744186 27.87906977 8.8744186 27.87906977 9.5625 23.0625 C10.36921573 16.89048444 10.98018274 9.94054823 9 4 C6.89415562 3.19436362 6.89415562 3.19436362 4.4375 2.8125 C3.61121094 2.65394531 2.78492188 2.49539062 1.93359375 2.33203125 C1.29550781 2.22246094 0.65742188 2.11289063 0 2 C0 1.34 0 0.68 0 0 Z " fill="#072509" transform="translate(327,100)"/>
<path d="M0 0 C4.96916636 0.51405169 9.29026351 1.23384882 14 3 C14 3.66 14 4.32 14 5 C14.763125 4.95875 15.52625 4.9175 16.3125 4.875 C19 5 19 5 22 7 C22 7.66 22 8.32 22 9 C23.32 9 24.64 9 26 9 C26 9.66 26 10.32 26 11 C27.32 11 28.64 11 30 11 C30.33 11.99 30.66 12.98 31 14 C25.95625691 12.46460187 21.35350659 10.35523674 16.625 8.0625 C11.16197915 5.41450698 5.71463703 3.05752733 0 1 C0 0.67 0 0.34 0 0 Z " fill="#0B100D" transform="translate(154,416)"/>
<path d="M0 0 C0.33 0 0.66 0 1 0 C1.99 3.96 2.98 7.92 4 12 C5.98 9.69 7.96 7.38 10 5 C10 8.65725087 8.95781236 9.95451411 7 13 C6.2575 14.3921875 6.2575 14.3921875 5.5 15.8125 C5.005 16.534375 4.51 17.25625 4 18 C3.01 18 2.02 18 1 18 C0.67 12.06 0.34 6.12 0 0 Z " fill="#0A100C" transform="translate(289,149)"/>
<path d="M0 0 C0.66 0.33 1.32 0.66 2 1 C1.34 7.6 0.68 14.2 0 21 C-0.33 21 -0.66 21 -1 21 C-1.33 18.69 -1.66 16.38 -2 14 C-2.66 14.99 -3.32 15.98 -4 17 C-2.77419355 2.77419355 -2.77419355 2.77419355 0 0 Z " fill="#6FBD12" transform="translate(330,106)"/>
<path d="M0 0 C0.66 0 1.32 0 2 0 C2 0.66 2 1.32 2 2 C-0.7881022 3.5066972 -3.58103958 5.00419804 -6.375 6.5 C-7.1690625 6.92925781 -7.963125 7.35851562 -8.78125 7.80078125 C-9.54179687 8.20683594 -10.30234375 8.61289062 -11.0859375 9.03125 C-11.7876709 9.40830078 -12.4894043 9.78535156 -13.21240234 10.17382812 C-15 11 -15 11 -17 11 C-16.6875 8.625 -16.6875 8.625 -16 6 C-12.83825079 3.89216719 -10.54831926 3.282806 -6.875 2.4375 C-3.12980201 1.83335605 -3.12980201 1.83335605 0 0 Z " fill="#08140B" transform="translate(396,355)"/>
<path d="M0 0 C0.66 0.66 1.32 1.32 2 2 C-2.81585285 5.16040343 -8.15606472 8 -14 8 C-14 6.68 -14 5.36 -14 4 C-13.15695312 3.79503906 -12.31390625 3.59007812 -11.4453125 3.37890625 C-10.34960938 3.10949219 -9.25390625 2.84007812 -8.125 2.5625 C-7.03445313 2.29566406 -5.94390625 2.02882813 -4.8203125 1.75390625 C-2.07515279 1.1213522 -2.07515279 1.1213522 0 0 Z " fill="#71C012" transform="translate(490,327)"/>
<path d="M0 0 C0.66 0.33 1.32 0.66 2 1 C-0.78358481 3.84137242 -3.57815727 6.67168155 -6.375 9.5 C-7.1690625 10.31082031 -7.963125 11.12164062 -8.78125 11.95703125 C-9.92207031 13.10751953 -9.92207031 13.10751953 -11.0859375 14.28125 C-11.7876709 14.99345703 -12.4894043 15.70566406 -13.21240234 16.43945312 C-15 18 -15 18 -17 18 C-17 14.37 -17 10.74 -17 7 C-16.67 7 -16.34 7 -16 7 C-16 9.64 -16 12.28 -16 15 C-10.4069024 10.23991693 -5.13122145 5.25404324 0 0 Z " fill="#0A350C" transform="translate(385,209)"/>
<path d="M0 0 C0.66 0.33 1.32 0.66 2 1 C-3.90968685 4.46625863 -9.82569131 6.70858487 -16.4375 8.375 C-17.13552734 8.55450195 -17.83355469 8.73400391 -18.55273438 8.91894531 C-21.88147726 9.7146672 -23.69091268 10.10302911 -27 9 C-26.20078125 8.75765625 -25.4015625 8.5153125 -24.578125 8.265625 C-12.03622058 4.79800797 -12.03622058 4.79800797 0 0 Z " fill="#0C100F" transform="translate(493,338)"/>
<path d="M0 0 C0 0.66 0 1.32 0 2 C-0.79664063 2.31453125 -1.59328125 2.6290625 -2.4140625 2.953125 C-8.00831807 5.21260535 -13.16332246 7.37249184 -18 11 C-18.66 10.67 -19.32 10.34 -20 10 C-16.98844003 6.66990964 -14.01469324 4.73727315 -10 2.75 C-8.96875 2.22921875 -7.9375 1.7084375 -6.875 1.171875 C-4 0 -4 0 0 0 Z " fill="#001B00" transform="translate(400,357)"/>
<path d="M0 0 C6.17398461 3.15267299 10.94783982 7.28006804 16 12 C15.01 12.33 14.02 12.66 13 13 C13 12.34 13 11.68 13 11 C12.443125 10.9175 11.88625 10.835 11.3125 10.75 C6.72687225 9.26276938 3.17810386 5.53122651 0 2 C0 1.34 0 0.68 0 0 Z " fill="#0A100C" transform="translate(129,190)"/>
<path d="M0 0 C3 2 3 2 3.51171875 4.1640625 C3.56972656 4.97617188 3.62773437 5.78828125 3.6875 6.625 C3.75324219 7.44226563 3.81898438 8.25953125 3.88671875 9.1015625 C3.92410156 9.72804687 3.96148437 10.35453125 4 11 C3.34 11 2.68 11 2 11 C1.67 12.32 1.34 13.64 1 15 C0.63911385 12.68853911 0.28645809 10.37579171 -0.0625 8.0625 C-0.25972656 6.77472656 -0.45695313 5.48695313 -0.66015625 4.16015625 C-0.82837891 2.59587891 -0.82837891 2.59587891 -1 1 C-0.67 0.67 -0.34 0.34 0 0 Z " fill="#71C012" transform="translate(180,165)"/>
<path d="M0 0 C-1.72672034 0.36590746 -3.45653655 0.71722195 -5.1875 1.0625 C-6.15042969 1.25972656 -7.11335938 1.45695312 -8.10546875 1.66015625 C-11.03610862 2.00423947 -13.16307068 1.74164697 -16 1 C-15 -1 -15 -1 -13.2578125 -1.66796875 C-12.55398437 -1.83941406 -11.85015625 -2.01085937 -11.125 -2.1875 C-10.42632812 -2.36667969 -9.72765625 -2.54585938 -9.0078125 -2.73046875 C-5.58968334 -3.18932266 -2.95909534 -1.53056656 0 0 Z " fill="#75C412" transform="translate(105,328)"/>
<path d="M0 0 C0.99 0.33 1.98 0.66 3 1 C3.73046875 3.06640625 3.73046875 3.06640625 4.1875 5.5625 C4.34605469 6.38878906 4.50460937 7.21507813 4.66796875 8.06640625 C4.77753906 8.70449219 4.88710938 9.34257812 5 10 C4.34 10 3.68 10 3 10 C2.67 11.32 2.34 12.64 2 14 C1.47216999 11.85587698 0.95290681 9.70964319 0.4375 7.5625 C0.00244141 5.77005859 0.00244141 5.77005859 -0.44140625 3.94140625 C-0.62574219 2.97074219 -0.81007813 2.00007813 -1 1 C-0.67 0.67 -0.34 0.34 0 0 Z " fill="#6EBB12" transform="translate(358,119)"/>
<path d="M0 0 C0.66 0.66 1.32 1.32 2 2 C1.625 4.125 1.625 4.125 1 6 C-1.24743045 6.53181175 -3.49807102 7.05007126 -5.75 7.5625 C-7.62945312 7.99755859 -7.62945312 7.99755859 -9.546875 8.44140625 C-13 9 -13 9 -17 8 C-11.72 6.68 -6.44 5.36 -1 4 C-0.67 2.68 -0.34 1.36 0 0 Z " fill="#072709" transform="translate(133,303)"/>
<path d="M0 0 C4.8105356 -0.07758928 9.5752755 -0.04042092 14.375 0.3125 C15.59316406 0.39951172 15.59316406 0.39951172 16.8359375 0.48828125 C19.38502315 1.09104338 20.34837071 2.01271702 22 4 C19.00876398 5.49561801 17.01225299 4.42769983 13.8125 3.625 C9.20314401 2.50587698 4.70862249 1.54751424 0 1 C0 0.67 0 0.34 0 0 Z " fill="#0B100D" transform="translate(54,326)"/>
<path d="M0 0 C2.15532614 1.06717122 4.29786091 2.15217471 6.4375 3.25 C7.04916016 3.55035156 7.66082031 3.85070312 8.29101562 4.16015625 C12.79629358 6.49991386 12.79629358 6.49991386 13.91015625 9.234375 C13.93980469 9.81703125 13.96945313 10.3996875 14 11 C12.68 10.34 11.36 9.68 10 9 C10 8.34 10 7.68 10 7 C9.236875 6.855625 8.47375 6.71125 7.6875 6.5625 C5 6 5 6 2 5 C0.8125 2.4375 0.8125 2.4375 0 0 Z " fill="#062008" transform="translate(116,287)"/>
<path d="M0 0 C-0.33 0.33 -0.66 0.66 -1 1 C-0.01 1.66 0.98 2.32 2 3 C-1.63 3.33 -5.26 3.66 -9 4 C-9 3.01 -9 2.02 -9 1 C-2.25 -1.125 -2.25 -1.125 0 0 Z " fill="#6EBB12" transform="translate(64,385)"/>
<path d="M0 0 C0.33 0.66 0.66 1.32 1 2 C3.5315866 2.63801836 5.99839502 3.16687368 8.5625 3.625 C9.27341797 3.7590625 9.98433594 3.893125 10.71679688 4.03125 C12.47642553 4.36191847 14.23804548 4.68195767 16 5 C16 5.33 16 5.66 16 6 C6.58997722 6.18451025 6.58997722 6.18451025 2 5 C2 4.34 2 3.68 2 3 C1.01 2.67 0.02 2.34 -1 2 C-0.67 1.34 -0.34 0.68 0 0 Z " fill="#001200" transform="translate(410,298)"/>
<path d="M0 0 C4.99913315 1.85682089 8.98567812 3.47851719 12 8 C7.03533083 6.83184255 3.7615584 5.64757179 0 2 C0 1.34 0 0.68 0 0 Z " fill="#071F08" transform="translate(97,274)"/>
<path d="M0 0 C0.66 0.33 1.32 0.66 2 1 C0.54997977 5.10839064 -1.3979134 8.50344613 -4 12 C-4.66 12 -5.32 12 -6 12 C-4.68139111 7.38486888 -2.78644563 3.90102388 0 0 Z " fill="#0D4610" transform="translate(295,251)"/>
<path d="M0 0 C0.98120464 3.05263664 0.98120464 4.94736336 0 8 C0.99 8.33 1.98 8.66 3 9 C1.625 11.5 1.625 11.5 0 14 C-0.66 14 -1.32 14 -2 14 C-1.85866501 12.22880197 -1.71176792 10.45804713 -1.5625 8.6875 C-1.48128906 7.70136719 -1.40007812 6.71523437 -1.31640625 5.69921875 C-1 3 -1 3 0 0 Z " fill="#08280A" transform="translate(324,197)"/>
<path d="M0 0 C3 1 3 1 5 4 C5.265625 6.62890625 5.265625 6.62890625 5.25 9.5625 C5.25515625 10.53316406 5.2603125 11.50382813 5.265625 12.50390625 C5 15 5 15 3 17 C3.03480469 16.32453125 3.06960938 15.6490625 3.10546875 14.953125 C3.13253906 14.06109375 3.15960938 13.1690625 3.1875 12.25 C3.22230469 11.36828125 3.25710938 10.4865625 3.29296875 9.578125 C2.94608156 6.52551769 1.88665282 5.35707806 0 3 C0 2.01 0 1.02 0 0 Z " fill="#0A0F0D" transform="translate(482,137)"/>
<path d="M0 0 C2.1519437 3.22791555 2.20086443 4.28400809 2 8 C3.65 7.34 5.3 6.68 7 6 C6 8 5 10 4 12 C3.01 12 2.02 12 1 12 C0.67 8.04 0.34 4.08 0 0 Z " fill="#08290A" transform="translate(288,159)"/>
<path d="M0 0 C0.515625 0.391875 1.03125 0.78375 1.5625 1.1875 C1.5625 1.5175 1.5625 1.8475 1.5625 2.1875 C-5.86607143 4.33035714 -5.86607143 4.33035714 -9.4375 5.1875 C-9.4375 4.1975 -9.4375 3.2075 -9.4375 2.1875 C-3.0375 -1.0125 -3.0375 -1.0125 0 0 Z " fill="#051A07" transform="translate(182.4375,157.8125)"/>
<path d="M0 0 C0.66 0 1.32 0 2 0 C1.49477778 4.37859255 -1.17827222 6.81651224 -4 10 C-4.8125 8.375 -4.8125 8.375 -5 6 C-2.6875 2.75 -2.6875 2.75 0 0 Z " fill="#08100C" transform="translate(469,174)"/>
<path d="M0 0 C2 0 2 0 3.375 1.0625 C6.14244902 4.36215075 8.07686246 8.15372491 10 12 C6.60812721 10.58426179 4.90302459 8.95769034 2.75 6 C2.22921875 5.29875 1.7084375 4.5975 1.171875 3.875 C0 2 0 2 0 0 Z " fill="#061C07" transform="translate(77,156)"/>
<path d="M0 0 C1.31538327 4.15771494 0.34433068 6.8879297 -1 11 C-1.66 11 -2.32 11 -3 11 C-3.33 11.99 -3.66 12.98 -4 14 C-4.33 13.34 -4.66 12.68 -5 12 C-4.26821134 9.92803369 -3.44100997 7.8891448 -2.5625 5.875 C-2.08941406 4.77929688 -1.61632812 3.68359375 -1.12890625 2.5546875 C-0.75636719 1.71164063 -0.38382812 0.86859375 0 0 Z " fill="#072008" transform="translate(440,214)"/>
<path d="M0 0 C0.33 0.66 0.66 1.32 1 2 C2.99287612 2.3925004 2.99287612 2.3925004 5.3125 2.5 C9.02904523 2.745722 10.46487904 3.23243952 14 5 C9.05 4.67 4.1 4.34 -1 4 C-0.67 2.68 -0.34 1.36 0 0 Z " fill="#0D0F0E" transform="translate(407,300)"/>
<path d="M0 0 C0.99 0.33 1.98 0.66 3 1 C2.505 2.051875 2.01 3.10375 1.5 4.1875 C0.17220212 7.25452609 -0.30715006 9.62134936 0 13 C-2.80541099 8.79188352 -1.85569482 6.90079759 -1 2 C-0.67 1.34 -0.34 0.68 0 0 Z " fill="#0D100E" transform="translate(47,380)"/>
<path d="M0 0 C1.70884005 1.62339805 3.37446717 3.29319053 5 5 C5 5.66 5 6.32 5 7 C4.01 7.33 3.02 7.66 2 8 C0.4375 5.6875 0.4375 5.6875 -1 3 C-0.67 2.01 -0.34 1.02 0 0 Z " fill="#79CA12" transform="translate(61,148)"/>
<path d="M0 0 C0.99 0.33 1.98 0.66 3 1 C2.01 2.98 1.02 4.96 0 7 C-0.99 7 -1.98 7 -3 7 C-3 3.48283697 -2.17554415 2.62878252 0 0 Z " fill="#78C812" transform="translate(486,377)"/>
<path d="M0 0 C1.60332791 -0.08121924 3.20784026 -0.13929134 4.8125 -0.1875 C6.15248047 -0.23970703 6.15248047 -0.23970703 7.51953125 -0.29296875 C10.41647515 0.04918998 11.22555028 0.75393573 13 3 C8.62065881 2.48041715 4.31196609 1.94324258 0 1 C0 0.67 0 0.34 0 0 Z " fill="#082A0A" transform="translate(94,309)"/>
<path d="M0 0 C3.26460973 1.80412643 4.88929795 2.83394693 7 6 C2.25 5.25 2.25 5.25 0 3 C0 2.01 0 1.02 0 0 Z " fill="#0B100B" transform="translate(146,204)"/>
<path d="M0 0 C1.37562854 1.28965176 2.70766393 2.62689293 4 4 C4 4.66 4 5.32 4 6 C3.01 6.33 2.02 6.66 1 7 C0.34 5.02 -0.32 3.04 -1 1 C-0.67 0.67 -0.34 0.34 0 0 Z " fill="#76C612" transform="translate(259,104)"/>
<path d="M0 0 C2.31 0.33 4.62 0.66 7 1 C7.33 2.32 7.66 3.64 8 5 C5.04590299 3.62845496 2.55991624 2.01136276 0 0 Z " fill="#0A100D" transform="translate(87,338)"/>
<path d="M0 0 C0.66 0.33 1.32 0.66 2 1 C1.42655063 3.86724686 1.1385485 4.8614515 -1 7 C-1.66 6.67 -2.32 6.34 -3 6 C-1.125 1.125 -1.125 1.125 0 0 Z " fill="#74C412" transform="translate(476,144)"/>
<path d="M0 0 C-4.16138263 0.08159574 -7.9472484 -0.01751476 -12 -1 C-12 -1.33 -12 -1.66 -12 -2 C-7.05687635 -3.20238143 -4.43956276 -2.29632557 0 0 Z " fill="#62AD12" transform="translate(105,328)"/>
<path d="M0 0 C0.33 0 0.66 0 1 0 C1 3.63 1 7.26 1 11 C0.01 10.34 -0.98 9.68 -2 9 C-1.34 6.03 -0.68 3.06 0 0 Z " fill="#092D0A" transform="translate(182,238)"/>
<path d="M0 0 C0.99 0.99 1.98 1.98 3 3 C1.25 7.875 1.25 7.875 -1 9 C-0.67 6.03 -0.34 3.06 0 0 Z " fill="#003300" transform="translate(333,180)"/>
<path d="M0 0 C0.99 0.33 1.98 0.66 3 1 C3 2.65 3 4.3 3 6 C2.01 5.67 1.02 5.34 0 5 C-0.75 3 -0.75 3 -1 1 C-0.67 0.67 -0.34 0.34 0 0 Z " fill="#76C612" transform="translate(358,119)"/>
</svg>
