<?xml version="1.0" encoding="UTF-8"?>
<svg version="1.1" xmlns="http://www.w3.org/2000/svg" width="542" height="542">
<path d="M0 0 C16.75854784 11.41007512 23.30577218 42.35713053 26.9375 61 C27.5975 61 28.2575 61 28.9375 61 C40.65529146 49.09472388 45.3152534 35.37913369 48.70703125 19.3671875 C51.49056969 6.29795354 51.49056969 6.29795354 57.75 2.125 C62.684757 0.38332106 66.27115717 0.39114396 71.1875 2.1875 C74.3588626 4.27771626 75.33538269 5.57350634 76.9375 9 C77.23560286 11.7852159 77.36391967 14.2846281 77.3125 17.0625 C77.30524902 17.85269531 77.29799805 18.64289063 77.29052734 19.45703125 C77.14116791 26.06521202 76.24538192 32.44938752 75.14819336 38.95751953 C73.97694393 46.09728078 73.37488455 53.22208826 72.875 60.4375 C72.27720002 69.05057207 71.55341511 77.50785036 69.9375 86 C79.85181048 68.12034605 85.48354133 54.53184504 80.36328125 34.01171875 C79.24235512 28.71559988 79.1312983 23.92330874 81.6875 19.0625 C83.89298787 16.06058596 84.62212867 15.27468248 87.9375 14 C92.66682777 13.32884127 96.77652605 13.56189662 101.25 15.25 C105.46828053 19.56638007 107.09017484 24.31592259 108.9375 30 C109.53111328 31.77890625 109.53111328 31.77890625 110.13671875 33.59375 C117.2068447 57.74875528 114.38222796 87.51000976 106.609375 111.08203125 C105.90192829 114.15448876 106.07232229 115.99960806 106.9375 119 C107.38738281 118.52691406 107.83726562 118.05382812 108.30078125 117.56640625 C112.97433147 112.76173438 117.88855319 108.45165745 123.12109375 104.265625 C124.88618449 102.84571844 126.6320217 101.40115795 128.34765625 99.921875 C141.59288766 88.58681167 156.61916464 79.38697605 171.95703125 71.18359375 C180.3458897 66.80935207 180.3458897 66.80935207 187.3125 60.5625 C187.87582031 59.88960937 188.43914062 59.21671875 189.01953125 58.5234375 C190.53149708 56.53417085 191.97024458 54.53282265 193.38671875 52.4765625 C194.03471436 51.54154907 194.03471436 51.54154907 194.69580078 50.58764648 C195.54771716 49.3464512 196.38661563 48.09619175 197.21044922 46.83618164 C199.959637 42.79855685 202.37184863 40.73433468 206.9375 39 C212.15281417 38.44121634 215.54432104 39.10449569 219.9375 42 C222.79678019 45.04989887 223.25938127 48.01120157 223.5625 52.0625 C223.31288988 59.27239238 219.92854389 64.21847565 215.9375 70 C215.27814453 70.97960693 215.27814453 70.97960693 214.60546875 71.97900391 C209.4661784 79.60122276 204.13227646 86.97406972 198.125 93.9375 C181.02936351 113.82891351 171.71422865 138.76280054 164.25 163.6875 C162.08583838 170.80664445 159.25735981 177.35555573 155.9375 184 C155.49470703 184.89251465 155.05191406 185.7850293 154.59570312 186.70458984 C151.39796363 193.14734159 148.17662123 199.57796227 144.9375 206 C146.29742065 206.24000732 146.29742065 206.24000732 147.68481445 206.48486328 C156.46970281 208.12579178 164.76112716 210.31800393 173.22729492 213.22412109 C175.13187722 213.87735876 177.04093863 214.51584321 178.95117188 215.15234375 C185.87238439 217.49160627 192.60729301 220.03252225 199.265625 223.04370117 C206.34145421 225.57623251 212.96036845 224.10630386 219.9375 222 C223.77988347 221.54839038 227.05406874 221.6385963 230.6875 223.125 C234.61463874 226.39761562 236.69517473 229.33401377 237.4375 234.4375 C236.84612416 238.65105284 235.74713079 241.77718821 232.9375 245 C226.57671709 249.77741206 219.47855336 251.85600885 211.9375 254 C211.26654297 254.19126465 210.59558594 254.3825293 209.90429688 254.57958984 C198.36864641 257.72242107 186.78227925 258.53675386 174.89337158 259.17572021 C140.90974754 260.78704941 140.90974754 260.78704941 111.9375 277 C112.70449219 277.01417969 113.47148437 277.02835937 114.26171875 277.04296875 C128.51307893 277.65539654 141.90320101 281.04700221 155.23828125 286 C155.96386734 286.26914719 156.68945343 286.53829437 157.43702698 286.81559753 C161.07238449 288.17262214 164.69347015 289.55879359 168.30200195 290.9855957 C175.69437456 293.85469745 182.88578595 296.56244186 190.9375 295 C198.79234129 291.0350307 204.29613742 283.30582506 209.6875 276.5625 C212.39728678 273.47635394 214.27235028 272.18145862 218.375 271.734375 C219.6434375 271.74210938 219.6434375 271.74210938 220.9375 271.75 C221.783125 271.74484375 222.62875 271.7396875 223.5 271.734375 C226.14442157 272.02254914 227.70897951 272.56193763 229.9375 274 C233.02712089 278.29114012 234.62839933 281.50993327 234.32397461 286.97583008 C233.06480629 293.57075398 228.71473072 298.96658579 224.375 303.875 C223.84471191 304.47940918 223.31442383 305.08381836 222.76806641 305.70654297 C207.05242532 323.35094311 183.36397215 340.80032957 159.9375 346 C156.24445769 346.1955155 152.57404494 346.09128185 148.87890625 345.984375 C146.6959827 345.94930696 144.51303871 345.91549386 142.33007812 345.8828125 C138.92689858 345.82130484 135.52477437 345.75068047 132.12231445 345.65722656 C117.81292632 345.28563548 107.00104273 346.01531801 93.9375 352 C70.42140767 360.22035506 43.05415731 357.47744825 19.89599609 349.27709961 C15.26460394 347.66371003 12.73904387 348.35277712 8.3125 350.3125 C2.6688879 352.75895893 -1.91156694 354.15860518 -8.08203125 354.02734375 C-9.02240234 354.01509766 -9.96277344 354.00285156 -10.93164062 353.99023438 C-12.88223952 353.95528668 -14.83277013 353.9162734 -16.78320312 353.87304688 C-21.11110093 353.82282554 -25.0791096 353.84181119 -29.2734375 354.98046875 C-43.48260997 358.80376155 -55.64098229 354.77240569 -68.00390625 347.828125 C-70.93198185 346.07801085 -73.80164512 344.25837779 -76.67138672 342.4152832 C-92.2839877 332.42344545 -108.93281887 324.47475727 -127.375 321.5625 C-141.48400688 319.33383046 -154.59252418 313.97310254 -167.68359375 308.41796875 C-171.88436406 306.65510213 -174.87475814 305.87254495 -179.39453125 305.8671875 C-180.44060547 305.86589844 -181.48667969 305.86460937 -182.56445312 305.86328125 C-183.65693359 305.86714844 -184.74941406 305.87101562 -185.875 305.875 C-187.49631836 305.86919922 -187.49631836 305.86919922 -189.15039062 305.86328125 C-190.20033203 305.86457031 -191.25027344 305.86585938 -192.33203125 305.8671875 C-193.28698486 305.86831543 -194.24193848 305.86944336 -195.22583008 305.87060547 C-198.23949482 306.00807361 -201.09346517 306.47842976 -204.0625 307 C-209.90114235 307.37070745 -213.88645441 307.08571949 -219.0625 304 C-221.90989878 300.74942971 -222.95441983 297.75656122 -223.5625 293.5 C-222.96342062 289.30644436 -221.95066324 286.10660807 -219.0625 283 C-213.17737893 279.54320559 -206.42422128 277.74677588 -199.875 276 C-198.92955322 275.74508789 -197.98410645 275.49017578 -197.01000977 275.22753906 C-186.80129306 272.55244204 -176.47501761 270.68045473 -166.0625 269 C-165.32950684 268.88140625 -164.59651367 268.7628125 -163.84130859 268.640625 C-160.25231666 268.06570186 -156.66043921 267.51593091 -153.0625 267 C-153.87332031 266.38253906 -154.68414062 265.76507813 -155.51953125 265.12890625 C-156.63828288 264.27378023 -157.75675123 263.41828351 -158.875 262.5625 C-159.75599365 261.88948853 -159.75599365 261.88948853 -160.65478516 261.20288086 C-164.50008509 258.24914696 -168.23420089 255.19407978 -171.9375 252.0625 C-174.82449156 249.66994241 -177.3758602 247.62056023 -180.875 246.25 C-184.05753186 245.00194829 -185.89035013 243.41887144 -188.42822266 241.19189453 C-195.13522574 236.30041126 -204.63809641 236.11849151 -212.59765625 235.359375 C-217.14896525 234.81927755 -219.48020552 234.47297483 -223.12109375 231.515625 C-226.71596548 226.85748135 -227.67515125 224.02440397 -227.0625 218 C-225.37692712 213.76869077 -223.09335802 210.26735764 -219.0625 208 C-202.21362963 202.6320519 -177.7227476 206.57368552 -160.80078125 211.12109375 C-157.49295667 211.89879545 -155.36915905 212.15110254 -152.0625 211.6875 C-151.22976562 211.57921875 -150.39703125 211.4709375 -149.5390625 211.359375 C-148.31316406 211.18148437 -148.31316406 211.18148437 -147.0625 211 C-145.52108516 210.81044089 -143.97943858 210.62275057 -142.4375 210.4375 C-140.766875 210.2209375 -140.766875 210.2209375 -139.0625 210 C-141.15393456 205.906274 -142.85501411 204.24195745 -147 202.3125 C-151.49277135 200.01894612 -155.08003467 197.44686643 -158.875 194.125 C-168.01554891 186.29024379 -177.72425185 181.27797227 -189.00830078 177.2902832 C-193.93678875 175.51643435 -198.56275984 173.39541999 -203.1875 170.9375 C-203.79070068 170.62103516 -204.39390137 170.30457031 -205.01538086 169.97851562 C-211.32687005 166.53315176 -216.09230308 162.41315136 -220.25 156.5625 C-220.90355469 155.65628906 -221.55710937 154.75007812 -222.23046875 153.81640625 C-226.83315332 146.74063743 -228.09648507 141.38676781 -227.0625 133 C-225.35384278 129.32955115 -224.19929827 127.6759341 -220.75 125.625 C-216.24927386 124.5783195 -212.58155651 124.47163252 -208.1875 126 C-205.35972338 127.80977703 -203.24285087 129.64785365 -200.8125 131.9375 C-191.40654172 140.42769666 -179.12126009 141.67243645 -167.0625 144 C-172.70769215 127.91975568 -178.96600783 112.80628376 -190.625 100.125 C-201.30043193 88.28162255 -217.53764081 70.11361896 -217.34375 53.51171875 C-216.9266349 49.78664915 -215.58131251 47.72304055 -213.0625 45 C-209.14950456 42.67335407 -205.54671565 42.60664775 -201.0625 43 C-193.68972617 45.30399182 -190.0343373 52.10065575 -185.88671875 58.19921875 C-180.36511017 66.10405612 -174.64272608 70.74270552 -165.9453125 75.05957031 C-147.66556886 84.18996094 -130.78100329 95.88752616 -115.63427734 109.58398438 C-114.07928115 110.98488185 -112.50512297 112.36103437 -110.92578125 113.734375 C-103.53601735 120.23849187 -97.23742935 127.35427054 -91.0625 135 C-90.35306516 118.89764821 -90.84707201 105.0225499 -96.41870117 89.82348633 C-98.08311673 85.10922019 -98.27979136 80.53840399 -98.375 75.5625 C-98.43107422 73.64630859 -98.43107422 73.64630859 -98.48828125 71.69140625 C-97.99386421 67.40494661 -96.76203589 65.31983366 -94.0625 62 C-90.14950456 59.67335407 -86.54671565 59.60664775 -82.0625 60 C-77.03541309 61.77426597 -74.4189946 64.31083182 -72.0625 69 C-70.92096024 72.45180743 -70.09445697 75.96553411 -69.25 79.5 C-66.30705551 91.02669151 -62.53265295 104.14501525 -52.75 111.8125 C-49.05866523 114.81707482 -46.12136963 118.36814327 -43.0625 122 C-41.38389559 119.48209339 -40.55924842 117.8297446 -39.65234375 115.03515625 C-39.25861572 113.85179687 -39.25861572 113.85179687 -38.85693359 112.64453125 C-38.57414551 111.79246094 -38.29135742 110.94039063 -38 110.0625 C-34.3442293 99.37432783 -29.8452423 89.22290041 -25.0625 79 C-23.62034217 75.89914796 -22.17919775 72.79783024 -20.73898315 69.69607544 C-19.26852565 66.52991997 -17.79554149 63.36500863 -16.31591797 60.203125 C-15.77854004 59.05199219 -15.24116211 57.90085938 -14.6875 56.71484375 C-13.96433594 55.16978149 -13.96433594 55.16978149 -13.2265625 53.59350586 C-9.08950485 44.37623166 -11.97754849 36.14021107 -15.0625 27 C-15.78539357 25.42477584 -16.53182799 23.85990346 -17.3125 22.3125 C-19.66885949 17.30056077 -19.89657166 12.44252818 -19.0625 7 C-17.3529206 3.39088794 -16.1630495 1.65438079 -12.75 -0.375 C-8.16998241 -1.44012037 -4.48855924 -1.465652 0 0 Z " fill="#154110" transform="translate(266.0625,94)"/>
<path d="M0 0 C0.99 0.495 0.99 0.495 2 1 C1.37723001 4.15569092 0.30931905 6.34687344 -1.4765625 9.01171875 C-2.22981812 10.14154175 -2.22981812 10.14154175 -2.99829102 11.29418945 C-3.53510498 12.08398193 -4.07191895 12.87377441 -4.625 13.6875 C-5.17406006 14.50114014 -5.72312012 15.31478027 -6.28881836 16.15307617 C-10.71695831 22.67197329 -15.26930884 28.93433275 -20.515625 34.82421875 C-39.07459134 55.76144327 -49.14733658 82.84885942 -56.92578125 109.41455078 C-59.36311 117.73587299 -62.77499733 125.18250001 -66.84814453 132.82714844 C-68.0950281 135.1792603 -69.3124898 137.54525878 -70.52734375 139.9140625 C-72.96097287 144.64107771 -75.45817587 149.33037383 -78 154 C-78.54527344 155.010625 -79.09054687 156.02125 -79.65234375 157.0625 C-81.91488217 160.87309102 -83.77560787 163.20388006 -87.9140625 164.921875 C-88.71175049 165.25630615 -89.50943848 165.5907373 -90.33129883 165.93530273 C-94.23692804 167.49348122 -98.1497137 169.03155582 -102.07104492 170.54980469 C-130.11581789 181.47452908 -145.4502906 197.78275479 -161.7265625 222.5859375 C-164.32168083 226.52089137 -167.11150406 230.2753605 -170 234 C-170.66 233.67 -171.32 233.34 -172 233 C-171.7834375 232.14535156 -171.566875 231.29070312 -171.34375 230.41015625 C-171.0653125 229.30542969 -170.786875 228.20070313 -170.5 227.0625 C-170.2215625 225.96035156 -169.943125 224.85820312 -169.65625 223.72265625 C-168.96094627 221.30474496 -168.96094627 221.30474496 -169 220 C-169.4846875 220.96679688 -169.969375 221.93359375 -170.46875 222.9296875 C-174.16729833 230.16196969 -177.96488596 236.55097728 -183.234375 242.78515625 C-186.74128629 247.18431267 -189 251.27062199 -189 257 C-178.34941 250.99197487 -171.78321057 240.04408168 -164.9765625 230.24609375 C-157.99930478 220.22890542 -150.3332897 210.75941639 -142.33496094 201.54345703 C-141.05892976 200.06813349 -139.79858841 198.57928312 -138.5390625 197.08984375 C-125.52613239 182.11865716 -108.01850155 170.65388135 -88 168 C-61.53855945 166.18508638 -38.0267976 173.99952755 -14.03125 184.75 C-4.09978672 188.84544877 5.21465911 186.2617803 15 183 C15 183.99 15 184.98 15 186 C-2.13035343 194.49289675 -20.48142333 196.37605346 -39.29589844 197.33935547 C-65.43593073 198.68350941 -91.77220588 202.64855447 -111 222 C-112.35738281 223.30324219 -112.35738281 223.30324219 -113.7421875 224.6328125 C-119.06849005 229.81157205 -123.92140764 235.18191224 -128.55859375 240.98046875 C-158.09675587 277.51326767 -158.09675587 277.51326767 -176.39453125 280.56640625 C-185.15163733 281.46773353 -192.45139361 281.3686056 -199.6953125 276.00390625 C-204.20937763 272.10180622 -208.06306065 268.20639249 -211 263 C-209.04848373 261.04848373 -205.54831255 261.29031251 -202.9375 260.9375 C-201.64714844 260.76089844 -200.35679687 260.58429688 -199.02734375 260.40234375 C-198.02832031 260.26957031 -197.02929688 260.13679688 -196 260 C-196.89138672 259.99613281 -196.89138672 259.99613281 -197.80078125 259.9921875 C-206.85420988 259.56978803 -214.43659571 256.06763534 -220.75 249.5 C-227.37910985 241.2376312 -232.77470842 230.72589263 -232 220 C-231.09224433 216.75115191 -229.85903768 213.6739496 -228.5625 210.5625 C-228.20196533 209.68722656 -227.84143066 208.81195313 -227.4699707 207.91015625 C-221.59315176 193.98291772 -214.73735241 182.6556374 -204 172 C-203.02353516 170.98679687 -203.02353516 170.98679687 -202.02734375 169.953125 C-197.9072242 165.71099735 -193.49809457 161.83419669 -189 158 C-187.50919922 156.72769531 -187.50919922 156.72769531 -185.98828125 155.4296875 C-182.6703694 152.60602804 -179.33718496 149.8008338 -176 147 C-175.02160156 146.17628906 -174.04320312 145.35257813 -173.03515625 144.50390625 C-167.57048561 139.95895578 -162.01645134 135.78813603 -156 132 C-155 133 -155 133 -154.86938477 135.04589844 C-154.89950876 143.94715289 -155.31666396 152.81518853 -155.79956055 161.70117188 C-155.93798145 164.25889613 -156.06989325 166.81690027 -156.20117188 169.375 C-156.28867605 171.02606219 -156.37655362 172.67710465 -156.46484375 174.328125 C-156.52272316 175.45652802 -156.52272316 175.45652802 -156.58177185 176.60772705 C-156.84962151 181.44285716 -157.35246295 186.20056788 -158 191 C-157.57871826 190.07441284 -157.57871826 190.07441284 -157.14892578 189.13012695 C-153.78427322 181.74495345 -150.39884012 174.36949942 -147 167 C-146.56800293 166.06172363 -146.13600586 165.12344727 -145.69091797 164.15673828 C-140.23479642 152.35143825 -134.32604572 140.88450363 -128.01953125 129.51171875 C-125.47107016 124.9011942 -123.04707063 120.23635835 -120.65063477 115.54541016 C-110.9483108 96.61429381 -97.46411342 79.00654479 -80.75 65.625 C-77.96773189 63.39240868 -75.19289252 61.16478105 -72.48046875 58.84765625 C-58.23307634 46.74503259 -41.56887032 35.79015211 -24.5625 28 C-13.1220202 22.35602996 -6.87588172 10.30118309 0 0 Z " fill="#FEFEFE" transform="translate(476,144)"/>
<path d="M0 0 C16.75854784 11.41007512 23.30577218 42.35713053 26.9375 61 C27.5975 61 28.2575 61 28.9375 61 C40.65529146 49.09472388 45.3152534 35.37913369 48.70703125 19.3671875 C51.49056969 6.29795354 51.49056969 6.29795354 57.75 2.125 C62.684757 0.38332106 66.27115717 0.39114396 71.1875 2.1875 C74.3588626 4.27771626 75.33538269 5.57350634 76.9375 9 C77.23560286 11.7852159 77.36391967 14.2846281 77.3125 17.0625 C77.30524902 17.85269531 77.29799805 18.64289063 77.29052734 19.45703125 C77.14116791 26.06521202 76.24538192 32.44938752 75.14819336 38.95751953 C73.97694393 46.09728078 73.37488455 53.22208826 72.875 60.4375 C72.27720002 69.05057207 71.55341511 77.50785036 69.9375 86 C79.85181048 68.12034605 85.48354133 54.53184504 80.36328125 34.01171875 C79.24235512 28.71559988 79.1312983 23.92330874 81.6875 19.0625 C83.89298787 16.06058596 84.62212867 15.27468248 87.9375 14 C92.66682777 13.32884127 96.77652605 13.56189662 101.25 15.25 C105.46828053 19.56638007 107.09017484 24.31592259 108.9375 30 C109.53111328 31.77890625 109.53111328 31.77890625 110.13671875 33.59375 C117.2068447 57.74875528 114.38222796 87.51000976 106.609375 111.08203125 C105.90192829 114.15448876 106.07232229 115.99960806 106.9375 119 C107.38738281 118.52691406 107.83726562 118.05382812 108.30078125 117.56640625 C112.97433147 112.76173438 117.88855319 108.45165745 123.12109375 104.265625 C124.88618449 102.84571844 126.6320217 101.40115795 128.34765625 99.921875 C141.59288766 88.58681167 156.61916464 79.38697605 171.95703125 71.18359375 C180.3458897 66.80935207 180.3458897 66.80935207 187.3125 60.5625 C187.87582031 59.88960937 188.43914062 59.21671875 189.01953125 58.5234375 C190.53149708 56.53417085 191.97024458 54.53282265 193.38671875 52.4765625 C194.03471436 51.54154907 194.03471436 51.54154907 194.69580078 50.58764648 C195.54771716 49.3464512 196.38661563 48.09619175 197.21044922 46.83618164 C199.959637 42.79855685 202.37184863 40.73433468 206.9375 39 C212.15281417 38.44121634 215.54432104 39.10449569 219.9375 42 C222.79678019 45.04989887 223.25938127 48.01120157 223.5625 52.0625 C223.31288988 59.27239238 219.92854389 64.21847565 215.9375 70 C215.27814453 70.97960693 215.27814453 70.97960693 214.60546875 71.97900391 C209.4661784 79.60122276 204.13227646 86.97406972 198.125 93.9375 C181.02936351 113.82891351 171.71422865 138.76280054 164.25 163.6875 C162.08583838 170.80664445 159.25735981 177.35555573 155.9375 184 C155.49470703 184.89251465 155.05191406 185.7850293 154.59570312 186.70458984 C151.39796363 193.14734159 148.17662123 199.57796227 144.9375 206 C146.29742065 206.24000732 146.29742065 206.24000732 147.68481445 206.48486328 C156.46970281 208.12579178 164.76112716 210.31800393 173.22729492 213.22412109 C175.13187722 213.87735876 177.04093863 214.51584321 178.95117188 215.15234375 C185.87238439 217.49160627 192.60729301 220.03252225 199.265625 223.04370117 C206.34145421 225.57623251 212.96036845 224.10630386 219.9375 222 C223.77988347 221.54839038 227.05406874 221.6385963 230.6875 223.125 C234.61463874 226.39761562 236.69517473 229.33401377 237.4375 234.4375 C236.84612416 238.65105284 235.74713079 241.77718821 232.9375 245 C226.57671709 249.77741206 219.47855336 251.85600885 211.9375 254 C211.26654297 254.19126465 210.59558594 254.3825293 209.90429688 254.57958984 C198.36864641 257.72242107 186.78227925 258.53675386 174.89337158 259.17572021 C140.90974754 260.78704941 140.90974754 260.78704941 111.9375 277 C112.70449219 277.01417969 113.47148437 277.02835937 114.26171875 277.04296875 C128.51307893 277.65539654 141.90320101 281.04700221 155.23828125 286 C155.96386734 286.26914719 156.68945343 286.53829437 157.43702698 286.81559753 C161.07238449 288.17262214 164.69347015 289.55879359 168.30200195 290.9855957 C175.69437456 293.85469745 182.88578595 296.56244186 190.9375 295 C198.79234129 291.0350307 204.29613742 283.30582506 209.6875 276.5625 C212.39728678 273.47635394 214.27235028 272.18145862 218.375 271.734375 C219.6434375 271.74210938 219.6434375 271.74210938 220.9375 271.75 C221.783125 271.74484375 222.62875 271.7396875 223.5 271.734375 C226.14442157 272.02254914 227.70897951 272.56193763 229.9375 274 C233.02712089 278.29114012 234.62839933 281.50993327 234.32397461 286.97583008 C233.06480629 293.57075398 228.71473072 298.96658579 224.375 303.875 C223.84471191 304.47940918 223.31442383 305.08381836 222.76806641 305.70654297 C207.05242532 323.35094311 183.36397215 340.80032957 159.9375 346 C156.24445769 346.1955155 152.57404494 346.09128185 148.87890625 345.984375 C146.6959827 345.94930696 144.51303871 345.91549386 142.33007812 345.8828125 C138.92689858 345.82130484 135.52477437 345.75068047 132.12231445 345.65722656 C117.81292632 345.28563548 107.00104273 346.01531801 93.9375 352 C70.42140767 360.22035506 43.05415731 357.47744825 19.89599609 349.27709961 C15.26460394 347.66371003 12.73904387 348.35277712 8.3125 350.3125 C2.6688879 352.75895893 -1.91156694 354.15860518 -8.08203125 354.02734375 C-9.02240234 354.01509766 -9.96277344 354.00285156 -10.93164062 353.99023438 C-12.88223952 353.95528668 -14.83277013 353.9162734 -16.78320312 353.87304688 C-21.11110093 353.82282554 -25.0791096 353.84181119 -29.2734375 354.98046875 C-43.48260997 358.80376155 -55.64098229 354.77240569 -68.00390625 347.828125 C-70.93198185 346.07801085 -73.80164512 344.25837779 -76.67138672 342.4152832 C-92.2839877 332.42344545 -108.93281887 324.47475727 -127.375 321.5625 C-141.48400688 319.33383046 -154.59252418 313.97310254 -167.68359375 308.41796875 C-171.88436406 306.65510213 -174.87475814 305.87254495 -179.39453125 305.8671875 C-180.44060547 305.86589844 -181.48667969 305.86460937 -182.56445312 305.86328125 C-183.65693359 305.86714844 -184.74941406 305.87101562 -185.875 305.875 C-187.49631836 305.86919922 -187.49631836 305.86919922 -189.15039062 305.86328125 C-190.20033203 305.86457031 -191.25027344 305.86585938 -192.33203125 305.8671875 C-193.28698486 305.86831543 -194.24193848 305.86944336 -195.22583008 305.87060547 C-198.23949482 306.00807361 -201.09346517 306.47842976 -204.0625 307 C-209.90114235 307.37070745 -213.88645441 307.08571949 -219.0625 304 C-221.90989878 300.74942971 -222.95441983 297.75656122 -223.5625 293.5 C-222.96342062 289.30644436 -221.95066324 286.10660807 -219.0625 283 C-213.17737893 279.54320559 -206.42422128 277.74677588 -199.875 276 C-198.92955322 275.74508789 -197.98410645 275.49017578 -197.01000977 275.22753906 C-186.80129306 272.55244204 -176.47501761 270.68045473 -166.0625 269 C-165.32950684 268.88140625 -164.59651367 268.7628125 -163.84130859 268.640625 C-160.25231666 268.06570186 -156.66043921 267.51593091 -153.0625 267 C-153.87332031 266.38253906 -154.68414062 265.76507813 -155.51953125 265.12890625 C-156.63828288 264.27378023 -157.75675123 263.41828351 -158.875 262.5625 C-159.75599365 261.88948853 -159.75599365 261.88948853 -160.65478516 261.20288086 C-164.50008509 258.24914696 -168.23420089 255.19407978 -171.9375 252.0625 C-174.82449156 249.66994241 -177.3758602 247.62056023 -180.875 246.25 C-184.05753186 245.00194829 -185.89035013 243.41887144 -188.42822266 241.19189453 C-195.13522574 236.30041126 -204.63809641 236.11849151 -212.59765625 235.359375 C-217.14896525 234.81927755 -219.48020552 234.47297483 -223.12109375 231.515625 C-226.71596548 226.85748135 -227.67515125 224.02440397 -227.0625 218 C-225.37692712 213.76869077 -223.09335802 210.26735764 -219.0625 208 C-202.21362963 202.6320519 -177.7227476 206.57368552 -160.80078125 211.12109375 C-157.49295667 211.89879545 -155.36915905 212.15110254 -152.0625 211.6875 C-151.22976562 211.57921875 -150.39703125 211.4709375 -149.5390625 211.359375 C-148.31316406 211.18148437 -148.31316406 211.18148437 -147.0625 211 C-145.52108516 210.81044089 -143.97943858 210.62275057 -142.4375 210.4375 C-140.766875 210.2209375 -140.766875 210.2209375 -139.0625 210 C-141.15393456 205.906274 -142.85501411 204.24195745 -147 202.3125 C-151.49277135 200.01894612 -155.08003467 197.44686643 -158.875 194.125 C-168.01554891 186.29024379 -177.72425185 181.27797227 -189.00830078 177.2902832 C-193.93678875 175.51643435 -198.56275984 173.39541999 -203.1875 170.9375 C-203.79070068 170.62103516 -204.39390137 170.30457031 -205.01538086 169.97851562 C-211.32687005 166.53315176 -216.09230308 162.41315136 -220.25 156.5625 C-220.90355469 155.65628906 -221.55710937 154.75007812 -222.23046875 153.81640625 C-226.83315332 146.74063743 -228.09648507 141.38676781 -227.0625 133 C-225.35384278 129.32955115 -224.19929827 127.6759341 -220.75 125.625 C-216.24927386 124.5783195 -212.58155651 124.47163252 -208.1875 126 C-205.35972338 127.80977703 -203.24285087 129.64785365 -200.8125 131.9375 C-191.40654172 140.42769666 -179.12126009 141.67243645 -167.0625 144 C-172.70769215 127.91975568 -178.96600783 112.80628376 -190.625 100.125 C-201.30043193 88.28162255 -217.53764081 70.11361896 -217.34375 53.51171875 C-216.9266349 49.78664915 -215.58131251 47.72304055 -213.0625 45 C-209.14950456 42.67335407 -205.54671565 42.60664775 -201.0625 43 C-193.68972617 45.30399182 -190.0343373 52.10065575 -185.88671875 58.19921875 C-180.36511017 66.10405612 -174.64272608 70.74270552 -165.9453125 75.05957031 C-147.66556886 84.18996094 -130.78100329 95.88752616 -115.63427734 109.58398438 C-114.07928115 110.98488185 -112.50512297 112.36103437 -110.92578125 113.734375 C-103.53601735 120.23849187 -97.23742935 127.35427054 -91.0625 135 C-90.35306516 118.89764821 -90.84707201 105.0225499 -96.41870117 89.82348633 C-98.08311673 85.10922019 -98.27979136 80.53840399 -98.375 75.5625 C-98.43107422 73.64630859 -98.43107422 73.64630859 -98.48828125 71.69140625 C-97.99386421 67.40494661 -96.76203589 65.31983366 -94.0625 62 C-90.14950456 59.67335407 -86.54671565 59.60664775 -82.0625 60 C-77.03541309 61.77426597 -74.4189946 64.31083182 -72.0625 69 C-70.92096024 72.45180743 -70.09445697 75.96553411 -69.25 79.5 C-66.30705551 91.02669151 -62.53265295 104.14501525 -52.75 111.8125 C-49.05866523 114.81707482 -46.12136963 118.36814327 -43.0625 122 C-41.38389559 119.48209339 -40.55924842 117.8297446 -39.65234375 115.03515625 C-39.25861572 113.85179687 -39.25861572 113.85179687 -38.85693359 112.64453125 C-38.57414551 111.79246094 -38.29135742 110.94039063 -38 110.0625 C-34.3442293 99.37432783 -29.8452423 89.22290041 -25.0625 79 C-23.62034217 75.89914796 -22.17919775 72.79783024 -20.73898315 69.69607544 C-19.26852565 66.52991997 -17.79554149 63.36500863 -16.31591797 60.203125 C-15.77854004 59.05199219 -15.24116211 57.90085938 -14.6875 56.71484375 C-13.96433594 55.16978149 -13.96433594 55.16978149 -13.2265625 53.59350586 C-9.08950485 44.37623166 -11.97754849 36.14021107 -15.0625 27 C-15.78539357 25.42477584 -16.53182799 23.85990346 -17.3125 22.3125 C-19.66885949 17.30056077 -19.89657166 12.44252818 -19.0625 7 C-17.3529206 3.39088794 -16.1630495 1.65438079 -12.75 -0.375 C-8.16998241 -1.44012037 -4.48855924 -1.465652 0 0 Z M-13.125 7.625 C-15.09355497 12.61200592 -14.04804445 16.68481856 -12.02734375 21.51757812 C-11.75019531 22.15115234 -11.47304687 22.78472656 -11.1875 23.4375 C-6.59502864 34.1715778 -3.73580364 44.32274095 -8.01171875 55.69140625 C-9.66319441 59.31974125 -11.61826688 62.7635761 -13.58203125 66.23046875 C-15.40342661 69.63777564 -16.76272154 73.13188478 -18.1328125 76.73828125 C-19.20485505 79.34631753 -20.61184489 81.6904997 -22.06640625 84.1015625 C-23.75287687 87.3157771 -24.80853155 90.76062035 -25.99609375 94.18359375 C-27.01679809 96.87930008 -28.21057122 99.33238164 -29.5625 101.875 C-32.55914298 107.67525069 -34.3078383 113.73120862 -36.0625 120 C-36.36414063 121.05703125 -36.66578125 122.1140625 -36.9765625 123.203125 C-38.47430298 128.03074249 -38.47430298 128.03074249 -39.0625 133 C-42.25613953 131.62140072 -44.05611769 130.11891172 -46.25 127.4375 C-48.9046644 124.28722229 -51.66989518 121.37053112 -54.625 118.5 C-66.2753065 106.88918606 -71.17092377 93.89695925 -74.984375 78.1875 C-76.41644158 72.21788654 -76.41644158 72.21788654 -79.75 67.1875 C-83.09135023 65.4716715 -85.36434404 65.47169201 -89.0625 66 C-91.85204178 68.07427465 -92.81831158 69.73298459 -93.4765625 73.1484375 C-94.06013303 83.130565 -90.48476349 93.54678567 -87.00561523 102.81567383 C-85.9568171 106.35682684 -85.75959176 109.39649051 -85.68359375 113.0859375 C-85.66659927 113.74655182 -85.6496048 114.40716614 -85.63209534 115.08779907 C-85.57939442 117.18343738 -85.53891209 119.2790642 -85.5 121.375 C-85.25865614 133.22088276 -85.25865614 133.22088276 -84.0625 145 C-84.00334706 146.6657469 -83.97395948 148.33340656 -84 150 C-84.00902344 150.763125 -84.01804688 151.52625 -84.02734375 152.3125 C-84.03894531 152.869375 -84.05054688 153.42625 -84.0625 154 C-84.47757813 153.30777344 -84.89265625 152.61554688 -85.3203125 151.90234375 C-91.21061173 142.54933723 -98.37047031 134.88225328 -106.0625 127 C-107.04966351 125.97283338 -108.03665547 124.94550185 -109.0234375 123.91796875 C-115.01463581 117.78085301 -121.34456007 112.32084622 -128.0625 107 C-128.79210937 106.37996094 -129.52171875 105.75992188 -130.2734375 105.12109375 C-143.07060135 94.36698588 -157.71856706 85.74639328 -172.63964844 78.30957031 C-180.74598024 74.11643247 -185.442202 68.78155453 -190.0625 61 C-190.7225 61 -191.3825 61 -192.0625 61 C-192.43375 59.9171875 -192.43375 59.9171875 -192.8125 58.8125 C-194.44648823 55.13602647 -196.38453419 51.83898291 -200.0625 50 C-205.24336833 49.55050528 -205.24336833 49.55050528 -210.0625 51 C-211.78761562 54.45023125 -211.85836528 57.31987109 -211.0625 61 C-205.49177504 73.80289422 -195.5318608 86.57054309 -185.875 96.5625 C-175.88048015 107.18978978 -169.91983658 120.63702676 -164.80126953 134.12988281 C-164.07637173 135.96488518 -163.2555158 137.76104466 -162.43359375 139.5546875 C-161.02884391 143.0845717 -160.44688979 146.23298009 -160.0625 150 C-163.48038271 149.72159206 -166.89644735 149.42496793 -170.3125 149.125 C-171.28058594 149.04636719 -172.24867188 148.96773437 -173.24609375 148.88671875 C-174.18066406 148.80292969 -175.11523438 148.71914062 -176.078125 148.6328125 C-176.93696289 148.55949707 -177.79580078 148.48618164 -178.68066406 148.41064453 C-181.15146954 147.98466105 -182.87319115 147.18956666 -185.0625 146 C-186.45124392 145.71322305 -187.84826815 145.46447263 -189.25 145.25 C-196.31603924 143.76485546 -201.5036866 139.52566724 -206.625 134.625 C-209.15551798 132.3887283 -210.85809267 131.55022768 -214.25 131.375 C-218.00135624 131.73822325 -218.00135624 131.73822325 -220.5625 133.5625 C-222.74556478 137.10998027 -222.72982152 138.86260657 -222.0625 143 C-216.97073115 154.1910962 -207.00477071 163.96451373 -195.77734375 169.03125 C-193.55434253 169.77359523 -191.32959545 170.40596836 -189.0625 171 C-174.72476832 174.94235748 -163.38583928 182.55699626 -152.0625 192 C-145.22308479 197.63449123 -145.22308479 197.63449123 -137.0625 200 C-136.794375 200.70125 -136.52625 201.4025 -136.25 202.125 C-135.09021744 205.08457393 -135.09021744 205.08457393 -133.375 208.0625 C-131.95118734 211.24912833 -132.05473951 211.85497566 -133.0625 215 C-134.20589844 215.13277344 -135.34929687 215.26554688 -136.52734375 215.40234375 C-138.0182562 215.5805031 -139.50914018 215.75890082 -141 215.9375 C-141.75474609 216.02451172 -142.50949219 216.11152344 -143.28710938 216.20117188 C-146.98437458 216.34324099 -146.98437458 216.34324099 -150.0625 218 C-151.91796875 218.16796875 -151.91796875 218.16796875 -154.25 218.1875 C-155.00667969 218.20167969 -155.76335937 218.21585938 -156.54296875 218.23046875 C-159.60165816 217.95068166 -162.14689815 216.97186728 -165.0625 216 C-176.8889621 213.35725562 -188.91768766 212.69574874 -201 212.625 C-202.20221191 212.61130371 -203.40442383 212.59760742 -204.64306641 212.58349609 C-212.84938149 212.5691694 -212.84938149 212.5691694 -220.0625 216 C-221.58741998 219.04983996 -221.29812548 221.6423369 -221.0625 225 C-219.40198832 227.36230238 -218.34190336 227.93234143 -215.51879883 228.6159668 C-214.52904053 228.72593994 -213.53928223 228.83591309 -212.51953125 228.94921875 C-211.44638672 229.07490234 -210.37324219 229.20058594 -209.26757812 229.33007812 C-208.14802734 229.44802734 -207.02847656 229.56597656 -205.875 229.6875 C-204.17827148 229.88182617 -204.17827148 229.88182617 -202.44726562 230.08007812 C-199.65343783 230.3983623 -196.85881431 230.70450093 -194.0625 231 C-194.0625 231.66 -194.0625 232.32 -194.0625 233 C-193.04929687 233.36351562 -193.04929687 233.36351562 -192.015625 233.734375 C-187.06076427 235.59602788 -183.71133823 237.09951775 -180.0625 241 C-178.33 241.7425 -178.33 241.7425 -176.5625 242.5 C-173.08417747 243.99070965 -171.59555424 245.29807548 -169.0625 248 C-168.32 248.433125 -167.5775 248.86625 -166.8125 249.3125 C-164.38224403 250.80379344 -162.58861446 252.27617994 -160.5 254.1875 C-154.48207561 259.57736776 -147.60639719 263.80077302 -140.7578125 268.05078125 C-138.0625 270 -138.0625 270 -137.0625 273 C-137.98659668 273.05945801 -138.91069336 273.11891602 -139.86279297 273.18017578 C-159.82606485 274.52293023 -178.68423522 276.77194962 -198.0625 282 C-199.6816881 282.41641649 -201.30143778 282.83065862 -202.921875 283.2421875 C-210.38998032 284.56312878 -210.38998032 284.56312878 -216.25 288.625 C-217.40931732 292.01377371 -216.82972709 294.5474781 -216.0625 298 C-214.08028467 300.4371869 -214.08028467 300.4371869 -210.21801758 300.13183594 C-208.5474725 300.09068464 -206.87712727 300.04088682 -205.20703125 299.984375 C-203.36786195 299.94927196 -201.52866761 299.9154624 -199.68945312 299.8828125 C-196.80177287 299.82151224 -193.91537178 299.75131583 -191.02856445 299.65722656 C-175.79117182 299.18687958 -165.64034096 301.2786052 -152.1875 308.625 C-142.19921427 313.77598371 -129.96847038 315.20373781 -118.94702148 316.87353516 C-115.37205056 317.44683386 -112.11569529 318.28269431 -108.75390625 319.58984375 C-105.25401819 321.17842921 -105.25401819 321.17842921 -102.0625 321 C-102.0625 321.66 -102.0625 322.32 -102.0625 323 C-100.99 323.350625 -99.9175 323.70125 -98.8125 324.0625 C-93.9395093 325.8812923 -89.65801376 328.50417499 -85.2109375 331.17578125 C-82.17374137 332.93554626 -79.10162327 334.48301031 -75.9375 336 C-71.92933853 337.94398444 -68.44062207 340.08267221 -64.875 342.75 C-60.33144977 346.08586427 -56.61529487 347.19394913 -51.0625 348 C-51.0625 348.66 -51.0625 349.32 -51.0625 350 C-44.1325 350 -37.2025 350 -30.0625 350 C-30.0625 349.34 -30.0625 348.68 -30.0625 348 C-28.83901855 348.03927612 -28.83901855 348.03927612 -27.59082031 348.0793457 C-24.50446363 348.16561169 -21.41872987 348.22774617 -18.33154297 348.2746582 C-16.36253527 348.31156222 -14.39408505 348.3751618 -12.42578125 348.43945312 C-3.53313203 348.552304 3.03664198 347.08301074 10.9375 343 C14.20947073 341.36401464 17.33202552 341.55165394 20.83984375 342.53125 C22.30696249 343.0339499 23.77024723 343.54791639 25.23046875 344.0703125 C30.72225901 345.95638188 36.34222526 347.45311209 41.9375 349 C42.50726563 349.17869629 43.07703125 349.35739258 43.6640625 349.54150391 C46.91476177 350.19708952 50.14624465 350.18292259 53.44921875 350.203125 C54.17687943 350.20882507 54.9045401 350.21452515 55.6542511 350.22039795 C57.1932328 350.22982699 58.73223449 350.23637359 60.27124023 350.24023438 C62.59981621 350.24989551 64.92749196 350.28091888 67.25585938 350.3125 C68.75780731 350.31903557 70.25976151 350.32428386 71.76171875 350.328125 C72.44642746 350.3404718 73.13113617 350.3528186 73.83659363 350.36553955 C80.75165893 350.33443128 86.66052263 348.13108849 92.84863281 345.18017578 C106.05233896 338.96020242 118.33274298 339.32825111 132.6875 339.875 C152.89159834 340.87722249 152.89159834 340.87722249 171.9375 335 C173.1138501 334.4735791 173.1138501 334.4735791 174.31396484 333.93652344 C176.33865935 333.0049299 178.2923477 332.00194986 180.25 330.9375 C180.94875244 330.56101318 181.64750488 330.18452637 182.36743164 329.79663086 C194.95460608 322.82935795 206.1805794 314.58222403 215.9375 304 C216.783125 303.16726563 217.62875 302.33453125 218.5 301.4765625 C220.60453535 299.33830062 222.41467941 297.22446907 224.1875 294.8125 C224.68765625 294.13832031 225.1878125 293.46414063 225.703125 292.76953125 C228.32925957 289.00485099 228.41378211 285.4788837 227.9375 281 C227.10416667 278.83333333 227.10416667 278.83333333 224.9375 278 C220.2879727 277.46644769 217.95787144 277.49981792 213.75 279.5625 C210.00174659 282.81098629 207.06036768 286.41384773 205.07421875 290.98828125 C203.61591671 293.56912507 201.85644416 294.90372207 199.5 296.6875 C198.71753906 297.28949219 197.93507813 297.89148438 197.12890625 298.51171875 C191.46586911 302.35773862 184.48313298 301.66832289 177.9375 301 C175.01404874 300.09569748 172.2707438 299.01480648 169.4753418 297.77612305 C162.79478858 294.83038728 155.92839407 292.54245946 149 290.25 C147.83831299 289.86142822 146.67662598 289.47285645 145.47973633 289.07250977 C142.30667371 288.0223046 139.12488866 287.00572159 135.9375 286 C135.26122559 285.76748535 134.58495117 285.5349707 133.88818359 285.29541016 C126.97307265 283.168117 119.5945908 283.78591456 112.4375 283.875 C111.02865219 283.88504931 109.61979745 283.89417171 108.2109375 283.90234375 C104.7862795 283.92580031 101.36198061 283.95862616 97.9375 284 C103.98539894 273.61350642 116.26643031 264.62573641 127.6875 261 C131.93605666 259.66450974 131.93605666 259.66450974 136.12109375 258.1484375 C147.10096221 253.91059353 159.58020726 253.99842063 171.1887207 253.35473633 C187.99311036 252.41280613 203.99122803 250.73115073 219.9375 245.0625 C220.59097412 244.83401367 221.24444824 244.60552734 221.91772461 244.37011719 C226.14592364 242.7317957 228.54710232 240.85586762 230.9375 237 C230.79134044 233.27293127 230.59538293 231.65788293 227.9375 229 C225.17539405 228.71786556 225.17539405 228.71786556 222.0625 228.8125 C221.01320313 228.81894531 219.96390625 228.82539063 218.8828125 228.83203125 C216.37494429 228.97505291 214.34126273 229.3522492 211.9375 230 C203.86162503 230.39717418 197.30503839 228.18590403 189.75 225.4375 C186.48328987 224.27978717 183.2107066 223.13919869 179.9375 222 C178.32149902 221.43442383 178.32149902 221.43442383 176.67285156 220.85742188 C156.78277296 213.80823522 156.78277296 213.80823522 135.9375 212 C138.44350185 205.8248009 141.50420832 200.00883526 144.625 194.125 C146.7375833 190.08768934 148.83947947 186.04489483 150.9375 182 C151.34258789 181.22237305 151.74767578 180.44474609 152.16503906 179.64355469 C157.52854332 169.23768538 161.093691 158.66229073 164.296875 147.41015625 C165.83764759 142.11886234 167.80053005 137.07543765 169.9375 132 C170.34766357 130.99803589 170.34766357 130.99803589 170.76611328 129.97583008 C176.77109623 115.36722762 183.61990612 102.13879602 194.11328125 90.265625 C199.16432942 84.51794074 203.58284514 78.28318902 207.9375 72 C208.41735352 71.30874023 208.89720703 70.61748047 209.39160156 69.90527344 C210.82857584 67.80700264 212.23185102 65.69006855 213.625 63.5625 C214.27674194 62.60573364 214.27674194 62.60573364 214.94165039 61.62963867 C217.96193505 56.88911833 218.48957157 53.61072739 217.9375 48 C216.15928295 45.52595889 214.78765535 45.15385274 211.84375 44.62109375 C209.37255641 44.42751692 207.35984807 44.4626634 204.9375 45 C202.14704248 47.60847116 200.45388375 50.12940261 198.51953125 53.390625 C196.9285619 56.01474235 195.24946096 58.54156182 193.5 61.0625 C192.92378906 61.89910156 192.34757812 62.73570312 191.75390625 63.59765625 C189.49433023 66.58612776 187.32280445 69.30734777 183.9375 71 C183.9375 71.66 183.9375 72.32 183.9375 73 C183.25429688 73.08636719 182.57109375 73.17273438 181.8671875 73.26171875 C178.2180187 74.18130929 175.26189998 75.90049415 172.0625 77.8125 C170.87760417 78.50651042 169.69270833 79.20052083 168.5078125 79.89453125 C167.92056396 80.24257812 167.33331543 80.590625 166.72827148 80.94921875 C164.92837594 82.00535377 163.11259556 83.0290985 161.29296875 84.05078125 C158.44025057 85.70794816 155.79140266 87.43992754 153.125 89.375 C149.87133104 91.69764923 146.60906939 93.79303895 143.125 95.75 C133.5184341 101.40535669 125.33648342 109.53346553 117.15625 117.02734375 C115.59347901 118.41677922 113.97465876 119.74440562 112.3203125 121.0234375 C110.14780611 122.82554936 108.81395915 124.33317119 107.3125 126.6875 C105.53278051 129.4765235 105.25224512 129.89508496 101.9375 131 C101.97005208 128.94921875 102.00260417 126.8984375 102.03515625 124.84765625 C102.14311184 122.98267859 102.14311184 122.98267859 100.9375 122 C100.50125602 116.52158725 100.69283727 112.05049114 102.9375 107 C103.10507757 103.79129767 103.10507757 103.79129767 102.9375 101 C103.5975 101 104.2575 101 104.9375 101 C109.47869764 78.75353773 113.46077621 45.5114812 101.3125 25 C99.09583243 22.08133185 99.09583243 22.08133185 96.9375 20 C93.43419966 19.67562034 90.90202799 19.5023446 87.734375 21.13671875 C85.67646451 22.91706515 85.67646451 22.91706515 85.4765625 25.8203125 C85.64157553 33.19865945 85.64157553 33.19865945 86.9375 40.4375 C90.36280353 54.13871412 86.92817719 66.61681909 79.8125 78.5 C79.30847656 79.28632813 78.80445313 80.07265625 78.28515625 80.8828125 C76.7868618 83.15640749 76.7868618 83.15640749 75.25 86.375 C73.9375 89 73.9375 89 72.375 91.0625 C70.83441074 92.95407121 70.83441074 92.95407121 70.06640625 95.30859375 C68.4635942 99.12983079 66.04240491 102.17978995 63.59375 105.5 C61.84264743 107.94008509 61.84264743 107.94008509 60.90625 110.75 C60.5865625 111.4925 60.266875 112.235 59.9375 113 C58.4525 113.495 58.4525 113.495 56.9375 114 C57.87128054 107.54715839 59.37232094 101.40615376 61.3125 95.1875 C66.14508157 79.2725078 68.29292894 63.20306679 69.25463867 46.62548828 C69.64615153 40.00736693 70.37766076 33.56580744 71.50024414 27.02978516 C72.88685985 18.11512958 72.88685985 18.11512958 70.6640625 9.68359375 C68.86563765 7.57787735 68.86563765 7.57787735 65 7.625 C61.83245294 7.68603174 59.53806334 8.13473108 56.9375 10 C55.64042473 12.70457309 55.64042473 12.70457309 54.8125 15.9375 C54.31169922 17.69900391 54.31169922 17.69900391 53.80078125 19.49609375 C53.06083114 22.49942067 52.4810401 25.44741844 52 28.5 C50.68036396 36.52385841 47.9915457 44.57272619 42.9375 51 C42.64875 51.804375 42.36 52.60875 42.0625 53.4375 C40.91009555 56.06242126 39.56541009 57.47729227 37.50390625 59.421875 C35.4500703 61.4910763 33.60506184 63.68853211 31.75 65.9375 C31.07582031 66.75089844 30.40164063 67.56429687 29.70703125 68.40234375 C27.80509675 71.1943668 26.85623015 73.76324301 25.9375 77 C25.2775 76.67 24.6175 76.34 23.9375 76 C23.34667969 73.70947266 23.34667969 73.70947266 22.859375 70.6640625 C22.67101074 69.54531738 22.48264648 68.42657227 22.28857422 67.27392578 C22.09021973 66.06978027 21.89186523 64.86563477 21.6875 63.625 C20.17680325 54.96512271 18.49890765 46.50274934 15.8125 38.125 C15.57112305 37.36654785 15.32974609 36.6080957 15.08105469 35.82666016 C13.76111625 31.88580428 12.1393733 28.50997544 9.9375 25 C9.19243105 23.28634142 8.48276619 21.55677541 7.8125 19.8125 C6.48252382 16.35855886 6.48252382 16.35855886 4.9375 13 C4.2775 13 3.6175 13 2.9375 13 C2.669375 12.21625 2.40125 11.4325 2.125 10.625 C1.08935568 7.71885077 1.08935568 7.71885077 -2.0625 6 C-6.09805646 5.371272 -9.83619347 5.0338191 -13.125 7.625 Z " fill="#0B1708" transform="translate(266.0625,94)"/>
<path d="M0 0 C3.73959958 3.27319072 5.80597401 7.02701355 7.9375 11.4375 C8.28594971 12.15196289 8.63439941 12.86642578 8.9934082 13.60253906 C20.37609844 37.27009337 24.85061718 62.71588292 25.70996094 88.83203125 C25.73273458 93.05080467 25.73273458 93.05080467 27 97 C27.3403125 96.030625 27.680625 95.06125 28.03125 94.0625 C33.70903792 78.21816 40.24749025 64.86721618 51.484375 52.19921875 C54.23838046 48.87406267 56.17250822 45.30495271 58.0625 41.4375 C58.58009888 40.38369141 58.58009888 40.38369141 59.1081543 39.30859375 C63.73830631 29.63881306 66.3120574 19.77281643 67.87426758 9.203125 C68.15702466 7.4512936 68.57010821 5.72164394 69 4 C69.99 3.34 70.98 2.68 72 2 C73.28670088 5.72786797 72.80060405 8.80770363 72.2578125 12.671875 C72.07863281 13.97640625 71.89945312 15.2809375 71.71484375 16.625 C71.5184572 18.00003259 71.32184088 19.37503238 71.125 20.75 C70.93549169 22.10927673 70.74668265 23.46865114 70.55859375 24.828125 C69.15326719 34.95946275 69.15326719 34.95946275 68.64355469 38.41992188 C68.17772972 41.74159953 67.97854792 44.94378695 68.0390625 48.2890625 C68.09749117 53.75097499 67.27976241 58.99908367 66.375 64.375 C66.2004126 65.42502197 66.0258252 66.47504395 65.84594727 67.55688477 C64.67203176 74.20571235 63.08885894 80.54154996 60.9375 86.9375 C55.97913416 101.69034067 54.50962011 115.47130343 55 131 C89.65673618 88.08307217 89.65673618 88.08307217 102 37 C101.01960993 29.95394457 99.83972097 22.87662693 98 16 C99.32 16 100.64 16 102 16 C102.63362121 17.93469776 103.25633651 19.87296739 103.875 21.8125 C104.39707031 23.43091797 104.39707031 23.43091797 104.9296875 25.08203125 C107.74627415 34.87733558 108.35768932 44.40006673 108.3125 54.5625 C108.30926727 55.55319489 108.30926727 55.55319489 108.30596924 56.56390381 C108.08710915 98.46485685 89.58726431 138.56203206 60.625 168.625 C56.93105825 172.20829373 52.90777374 175.38024598 48.90234375 178.60546875 C44.99011149 181.833192 41.26721207 185.24682603 37.53515625 188.6796875 C35.46674242 190.57281203 33.37594124 192.42251704 31.25 194.25 C28.55297701 196.58256043 25.938712 198.9886803 23.34765625 201.4375 C22.35427246 202.37480957 22.35427246 202.37480957 21.34082031 203.33105469 C20.01213022 204.58809659 18.68710989 205.84903147 17.36621094 207.11425781 C14.09334095 210.21012391 11.01959954 212.87875818 7 215 C6 213 6 213 6.57324219 211.06396484 C6.89454102 210.28746582 7.21583984 209.5109668 7.546875 208.7109375 C7.8975 207.85113281 8.248125 206.99132812 8.609375 206.10546875 C8.98578125 205.20441406 9.3621875 204.30335938 9.75 203.375 C10.47475 201.61230446 11.19871819 199.84928725 11.921875 198.0859375 C12.27314453 197.23354492 12.62441406 196.38115234 12.98632812 195.50292969 C14.3942611 192.02650173 15.70378574 188.51946784 17 185 C16.01 185 15.02 185 14 185 C14.23074219 183.9790625 14.46148437 182.958125 14.69921875 181.90625 C15.81583075 176.94107578 16.91189304 171.97149343 18 167 C18.20850586 166.04770508 18.41701172 165.09541016 18.63183594 164.11425781 C23.1824086 143.18993511 26.58201949 123.47005225 26 102 C25.94839722 103.0820874 25.94839722 103.0820874 25.89575195 104.18603516 C24.20835739 137.43686447 19.79558688 171.37682911 6 202 C5.01 202 4.02 202 3 202 C2.85304688 201.3915625 2.70609375 200.783125 2.5546875 200.15625 C-2.02723426 182.24988908 -9.94128007 166.55300636 -19.08984375 150.59375 C-19.59620361 149.70075195 -20.10256348 148.80775391 -20.62426758 147.88769531 C-21.60113258 146.17075217 -22.59123915 144.46125363 -23.59643555 142.76074219 C-27.29147033 136.26818151 -27.75018311 131.7490284 -25.96875 124.4609375 C-25.49240979 122.76185648 -25.00201997 121.06667144 -24.5 119.375 C-24.09080322 117.98704224 -24.09080322 117.98704224 -23.67333984 116.57104492 C-18.27107524 98.66218856 -10.80131324 81.90996541 -2.72314453 65.07739258 C5.35866105 48.23452514 11.32707094 35.72720631 5 17 C3.48178658 13.25805045 1.82164939 9.59052262 0.109375 5.93359375 C-1 3 -1 3 0 0 Z " fill="#FEFEFE" transform="translate(259,104)"/>
<path d="M0 0 C3.731646 3.52762303 6.71600679 7.21784093 9.5625 11.5 C14.71879476 19.60782729 14.71879476 19.60782729 22 25.625 C22.87914063 26.13289063 23.75828125 26.64078125 24.6640625 27.1640625 C27.23198417 28.5773215 29.80873773 29.96362735 32.3984375 31.3359375 C50.45727171 40.96284962 66.81877551 52.2766998 82 66 C83.05674631 66.93551222 84.11403373 67.87041359 85.171875 68.8046875 C103.78610121 85.38609045 116.814217 104.97825691 127.8125 127.125 C128.15328583 127.80800171 128.49407166 128.49100342 128.84518433 129.19470215 C133.75918923 139.07340871 138.35362037 149.05067483 142.5625 159.25 C143.03341064 160.37937988 143.50432129 161.50875977 143.98950195 162.67236328 C144.40675537 163.71376465 144.82400879 164.75516602 145.25390625 165.828125 C145.61814697 166.7346582 145.9823877 167.64119141 146.35766602 168.57519531 C147.04812345 171.18166557 146.90949422 172.49643033 146 175 C143.24851753 173.91906046 140.53233081 172.79323493 137.828125 171.59765625 C126.34314588 166.67014883 115.30588446 164.00819716 102.76171875 163.8828125 C101.68462646 163.86710205 100.60753418 163.8513916 99.49780273 163.83520508 C97.36833304 163.82031816 95.2382171 163.84231153 93.10961914 163.9050293 C85.96289069 163.87975923 85.96289069 163.87975923 83.39379883 161.5324707 C82.04439561 159.42037292 81.02778684 157.28544279 80 155 C79.067141 153.32836339 78.12255368 151.66323216 77.16796875 150.00390625 C74.05939119 144.3639845 71.01442838 138.6907228 68 133 C67.61376465 132.2766748 67.2275293 131.55334961 66.82958984 130.80810547 C61.55888272 120.80046515 58.03222413 110.35819281 54.55810547 99.61645508 C47.63403394 78.2587688 40.06556156 55.09273979 24.34765625 38.5390625 C15.77990779 29.2727788 8.80492364 18.58821146 2 8 C1.39027344 7.0925 0.78054687 6.185 0.15234375 5.25 C-0.22792969 4.5075 -0.60820313 3.765 -1 3 C-0.67 2.01 -0.34 1.02 0 0 Z " fill="#FFFFFF" transform="translate(61,148)"/>
<path d="M0 0 C8.43213543 -1.0229627 15.27709067 4.82786948 22.07421875 9.10400391 C25.59456048 11.25898661 29.22209531 13.19003812 32.87890625 15.1015625 C33.58217041 15.47007324 34.28543457 15.83858398 35.01000977 16.21826172 C44.60617378 21.21775832 54.26081035 26.08171741 64.08129883 30.6262207 C66.9117699 31.94051153 69.73105057 33.27698961 72.54443359 34.62744141 C74.03285728 35.34068714 75.52745856 36.04102122 77.0234375 36.73828125 C82.01986364 39.38017633 83.36231662 42.17679361 85.12109375 47.453125 C86.91470029 51.98989449 89.48888095 55.98834221 92.05639648 60.12255859 C94.3473836 63.82055066 96.55240719 67.48864383 98.31640625 71.4765625 C98.11015625 72.1571875 97.90390625 72.8378125 97.69140625 73.5390625 C97.50578125 74.498125 97.50578125 74.498125 97.31640625 75.4765625 C98.05375 76.18039062 98.79109375 76.88421875 99.55078125 77.609375 C102.76189003 80.93840585 104.30703167 84.12728942 106.19140625 88.2890625 C108.82424974 93.85218895 111.4612436 98.50909828 115.87109375 102.8984375 C117.45906623 104.63233178 118.35939756 106.33955281 119.31640625 108.4765625 C112.10626736 111.79295786 104.24042572 111.8640611 96.78125 109.2265625 C90.86526157 106.34526938 85.4728897 102.94840674 80.00390625 99.2890625 C62.08711939 87.32618593 41.96725706 79.06574278 20.74023438 75.69995117 C10.99041146 74.05828578 1.90156157 70.41863238 -7.1796875 66.6015625 C-7.92347656 66.28928711 -8.66726562 65.97701172 -9.43359375 65.65527344 C-10.83543445 65.06011696 -12.2330615 64.45487506 -13.625 63.83691406 C-22.57696098 59.98061613 -30.95602627 59.15424829 -40.62109375 59.7890625 C-41.58096191 59.84247803 -42.54083008 59.89589355 -43.52978516 59.95092773 C-49.92516461 60.32058088 -56.31656779 60.76065288 -62.68359375 61.4765625 C-62.68359375 60.4865625 -62.68359375 59.4965625 -62.68359375 58.4765625 C-17.11928521 44.91589251 29.54927082 37.96540606 73.31640625 60.4765625 C79.75124447 63.96959668 86.05978438 67.67484035 92.31640625 71.4765625 C92.31640625 71.1465625 92.31640625 70.8165625 92.31640625 70.4765625 C86.46138215 65.21157959 80.10892326 61.52137934 73.00390625 58.2265625 C72.02260742 57.76258057 71.04130859 57.29859863 70.03027344 56.82055664 C62.17019662 53.1736923 54.15602706 50.01063896 46.06640625 46.9140625 C29.96896417 40.73006215 15.23908417 33.84587788 1.91845703 22.79150391 C-0.42284201 20.86979763 -2.8190034 19.02078482 -5.21118164 17.16308594 C-10.48312437 13.06369239 -15.6715087 8.89197076 -20.68359375 4.4765625 C-16.89729313 0.69026188 -9.82394148 1.18259884 -4.62060547 0.68457031 C-3.07249217 0.51832472 -1.53302879 0.27224092 0 0 Z " fill="#FEFEFE" transform="translate(117.68359375,327.5234375)"/>
<path d="M0 0 C3.33282883 2.22188588 3.42213554 2.49012315 4.2109375 6.1484375 C4.40099365 6.9832666 4.5910498 7.8180957 4.78686523 8.67822266 C4.98094971 9.56815918 5.17503418 10.4580957 5.375 11.375 C8.69453517 25.52041794 13.39025183 38.68786047 24 49 C42.54088794 67.9676942 58.98373332 87.70260918 70 112 C70.28359375 112.62374512 70.5671875 113.24749023 70.859375 113.89013672 C76.81061355 127.22778868 84.96899379 148.23683632 80.39111328 162.95800781 C78.1788903 168.23739287 75.25816432 173.13611016 71 177 C68 176 68 176 66.58056641 173.68115234 C66.09249512 172.65973145 65.60442383 171.63831055 65.1015625 170.5859375 C64.5461377 169.44350586 63.99071289 168.30107422 63.41845703 167.12402344 C62.98028656 166.20743958 62.98028656 166.20743958 62.53326416 165.27233887 C60.99437479 162.05764126 59.42121872 158.85997056 57.84375 155.6640625 C57.52391144 155.01566406 57.20407288 154.36726562 56.87454224 153.69921875 C53.83939549 147.59238372 50.52782881 141.65930272 47.125 135.75 C32.74997532 110.5953215 32.74997532 110.5953215 29.7890625 95.546875 C29.14388424 92.64676679 28.49824843 90.52747995 27 88 C27.20496094 89.05058594 27.40992188 90.10117188 27.62109375 91.18359375 C27.89341213 92.60152737 28.16553711 94.01949815 28.4375 95.4375 C28.57220703 96.12521484 28.70691406 96.81292969 28.84570312 97.52148438 C29.97071045 103.42091302 29.97071045 103.42091302 30.10986328 106.17211914 C30.4645743 113.09973282 33.34435056 117.78157985 37 123.5625 C38.1977931 125.52271785 39.39440292 127.48365923 40.58984375 129.4453125 C41.17620605 130.39696289 41.76256836 131.34861328 42.36669922 132.32910156 C44.50487787 135.82561493 46.55758989 139.36322272 48.5625 142.9375 C48.90555176 143.54843506 49.24860352 144.15937012 49.60205078 144.78881836 C54.51432613 153.62888878 59.15126175 162.62411292 63.77197266 171.61914062 C64.78371885 173.58068115 65.81847241 175.53033708 66.859375 177.4765625 C69.34807877 182.98239345 66.46345672 189.30419099 64.9140625 194.86328125 C64 197 64 197 61 199 C56.09965427 193.64270885 51.67734427 188.0240844 47.3828125 182.171875 C45.82625763 180.09987081 44.21792685 178.06551004 42.5546875 176.078125 C12.99312188 140.30770391 9.43352743 88.39330731 7 44 C7.99 43.505 7.99 43.505 9 43 C7.66320774 37.96800961 6.30652083 32.94798695 4.7578125 27.9765625 C2.00600241 19.08303135 -0.40137725 10.3499173 -1 1 C-0.67 0.67 -0.34 0.34 0 0 Z " fill="#FEFEFE" transform="translate(180,165)"/>
<path d="M0 0 C0.73827026 -0.01221588 1.47654053 -0.02443176 2.23718262 -0.03701782 C22.32546952 -0.31659477 41.09412762 4.72103137 56.375 18.4375 C57.17292969 19.14261719 57.97085938 19.84773438 58.79296875 20.57421875 C73.34264133 34.22158605 80.77276164 51.88923446 88.27734375 70.015625 C91.73057731 78.29895955 95.65145779 85.44972156 101.375 92.4375 C101.89320313 93.118125 102.41140625 93.79875 102.9453125 94.5 C107.16940829 99.76419978 112.30132463 103.66348367 117.75244141 107.58203125 C119.55859375 108.921875 119.55859375 108.921875 122.375 111.4375 C122.375 112.7575 122.375 114.0775 122.375 115.4375 C120.29370896 116.42100025 118.20988641 117.39914458 116.125 118.375 C114.96484375 118.92027344 113.8046875 119.46554687 112.609375 120.02734375 C105.44859521 123.14937455 97.43071891 123.71295492 89.8046875 121.7890625 C71.60086938 114.36799379 64.79090551 93.79209334 57.62915039 77.05004883 C46.43232648 50.94070966 26.01520868 29.15056788 -0.625 18.4375 C-19.87623456 12.13018152 -38.80143651 12.8957818 -58.625 15.4375 C-60.13666433 15.62673727 -61.64838099 15.81555719 -63.16015625 16.00390625 C-64.30355469 16.14699219 -65.44695312 16.29007812 -66.625 16.4375 C-66.625 15.4475 -66.625 14.4575 -66.625 13.4375 C-65.64402344 13.13457031 -64.66304688 12.83164062 -63.65234375 12.51953125 C-62.28903042 12.09645752 -60.92575194 11.67327151 -59.5625 11.25 C-58.83659668 11.02586426 -58.11069336 10.80172852 -57.36279297 10.57080078 C-53.83629054 9.47388783 -50.3293976 8.3520533 -46.85546875 7.09765625 C-31.25108027 1.53552861 -16.47258868 0.14686749 0 0 Z " fill="#FFFFFF" transform="translate(156.625,313.5625)"/>
<path d="M0 0 C0.99 0.33 1.98 0.66 3 1 C0.32358254 6.01277246 -2.54566231 10.12149651 -6.4375 14.25 C-6.96118164 14.80792236 -7.48486328 15.36584473 -8.02441406 15.94067383 C-17.4940346 25.84776495 -27.88616053 33.86842272 -39.75738525 40.701828 C-41.19131245 41.53187879 -42.61807877 42.37450739 -44.03509521 43.23310852 C-58.33568228 51.77166477 -70.86424278 51.96090953 -87.1875 51.1875 C-102.72546758 50.52769727 -114.77154815 50.35049621 -129 57 C-150.0813315 64.57503313 -174.15735655 62.53430606 -195 55 C-196.69003414 54.0400196 -198.36386659 53.04921173 -200 52 C-199.67 51.34 -199.34 50.68 -199 50 C-197.845 50.0825 -196.69 50.165 -195.5 50.25 C-184.79475588 50.21622951 -171.34022926 46.8926417 -163 40 C-160.47765141 36.8388213 -158.27827418 33.5852526 -156.1015625 30.18359375 C-149.03865506 19.48420795 -137.46308011 10.94380762 -125.05078125 7.62890625 C-100.71238452 3.17668327 -78.33686435 10.29549672 -56.03417969 19.1652832 C-45.00420086 23.54313793 -35.08015656 27.11626675 -23.359375 23.09375 C-12.70079067 18.2548835 -6.49551412 9.39776511 0 0 Z " fill="#FFFFFF" transform="translate(486,377)"/>
<path d="M0 0 C5.29505428 3.64034982 8.59412267 8.99533028 12.17578125 14.26171875 C17.69738983 22.16655612 23.41977392 26.80520552 32.1171875 31.12207031 C50.39693114 40.25246094 67.28149671 51.95002616 82.42822266 65.64648438 C83.98321885 67.04738185 85.55737703 68.42353437 87.13671875 69.796875 C94.52648265 76.30099187 100.82507065 83.41677054 107 91.0625 C107.70943484 74.96014821 107.21542799 61.0850499 101.64379883 45.88598633 C99.97938327 41.17172019 99.78270864 36.60090399 99.6875 31.625 C99.63142578 29.70880859 99.63142578 29.70880859 99.57421875 27.75390625 C100.06863579 23.46744661 101.30046411 21.38233366 104 18.0625 C107.91299544 15.73585407 111.51578435 15.66914775 116 16.0625 C121.02708691 17.83676597 123.6435054 20.37333182 126 25.0625 C127.14153976 28.51430743 127.96804303 32.02803411 128.8125 35.5625 C131.75544449 47.08919151 135.52984705 60.20751525 145.3125 67.875 C149.00383477 70.87957482 151.94113037 74.43064327 155 78.0625 C156.67860441 75.54459339 157.50325158 73.8922446 158.41015625 71.09765625 C158.80497192 69.91175903 158.80497192 69.91175903 159.20776367 68.7019043 C159.48982666 67.85152588 159.77188965 67.00114746 160.0625 66.125 C162.60162096 58.66885116 165.44258932 51.427605 168.6875 44.25 C169.05560791 43.43345947 169.42371582 42.61691895 169.80297852 41.77563477 C171.97484217 37.05076716 174.35273152 32.53835573 177 28.0625 C177.33 28.7225 177.66 29.3825 178 30.0625 C177.22265625 32.2265625 177.22265625 32.2265625 176.0625 34.6875 C175.49208984 35.91339844 175.49208984 35.91339844 174.91015625 37.1640625 C174.45962891 38.10378906 174.45962891 38.10378906 174 39.0625 C174.99 38.7325 175.98 38.4025 177 38.0625 C176.01 41.0325 175.02 44.0025 174 47.0625 C173.67 46.0725 173.34 45.0825 173 44.0625 C168.37112716 48.82844652 166.64071823 54.68955962 164.4375 60.8125 C163.85838867 62.38257813 163.85838867 62.38257813 163.26757812 63.984375 C161.06928791 69.97630745 158.98586569 75.9970444 157 82.0625 C154.04301583 80.73665104 152.02214672 79.31696418 149.79296875 76.97265625 C149.20966797 76.35946533 148.62636719 75.74627441 148.02539062 75.11450195 C135.35077923 61.39433614 130.10014234 49.15964153 125.2565918 31.32519531 C125.00562744 30.43799805 124.75466309 29.55080078 124.49609375 28.63671875 C124.2736499 27.83451904 124.05120605 27.03231934 123.82202148 26.20581055 C122.34982171 22.36724748 120.58332626 21.09079788 117 19.0625 C113.43558264 18.42378937 110.21368098 18.7672803 106.6875 19.625 C103.85500345 22.03786743 102.74514266 24.5096598 102 28.0625 C101.4167385 35.8539932 103.02180764 42.38806631 105.58227539 49.63842773 C111.12299284 65.46017756 110.71397128 80.52818048 110 97.0625 C106.00743184 93.88789351 102.77569599 90.79671177 99.625 86.75 C93.26651085 78.83368101 86.3558494 72.36864233 78.41796875 66.04296875 C76 64.0625 76 64.0625 74.36328125 62.36328125 C72.91661695 60.79797636 72.91661695 60.79797636 70 60.0625 C69.27296875 59.33417969 68.5459375 58.60585937 67.796875 57.85546875 C64.52487676 54.58804034 61.03061972 52.01809579 57.25 49.375 C56.51064209 48.85607178 55.77128418 48.33714355 55.00952148 47.80249023 C45.53236321 41.24168881 35.6602073 35.21605444 25.25 30.25 C15.68561873 25.58052093 9.45860192 15.25858917 3.421875 6.75390625 C1.28736768 4.21478078 -0.66801668 2.30444228 -4 1.69921875 C-9.30478321 1.78152231 -9.30478321 1.78152231 -14 4.0625 C-17.07332034 8.67248051 -16.94120941 12.6701544 -16 18.0625 C-11.72704985 28.10625512 -4.78070663 36.61440649 2 45.0625 C3.23147215 46.6648975 4.46090042 48.2688696 5.6875 49.875 C7.82942045 52.64248133 10.06460489 55.24186364 12.4375 57.8125 C23.29636469 70.17751594 29.92091322 86.25118267 34 102.0625 C19.66595631 101.58628592 3.52355634 98.87927423 -7 88.3125 C-7.804375 87.42304688 -7.804375 87.42304688 -8.625 86.515625 C-11.04862094 83.95429833 -12.20956419 84.0523598 -15.875 83.875 C-20.2579905 83.95135188 -20.2579905 83.95135188 -24 86.0625 C-27.06158043 90.3909413 -27.368524 93.70462441 -26.5703125 98.765625 C-23.65125895 110.52181327 -14.79981979 117.7616936 -5 124.0625 C1.73485664 127.97120769 8.79534818 130.7750998 16.0625 133.5 C25.64567365 137.12609255 33.43722079 141.55127696 40.9375 148.625 C46.03660338 153.42029207 51.62639721 156.26994207 58 159.0625 C57.67 160.0525 57.34 161.0425 57 162.0625 C49.9271675 157.96213697 43.37654275 153.6904555 37.0625 148.5 C27.84620553 141.02573983 17.5553817 136.59612264 6.55517578 132.33300781 C-8.9113035 126.24346068 -19.32726479 118.65599656 -27.7109375 104.08984375 C-29.82662616 99.12118099 -29.65377805 94.36536638 -29 89.0625 C-27.29134278 85.39205115 -26.13679827 83.7384341 -22.6875 81.6875 C-18.18677386 80.6408195 -14.51905651 80.53413252 -10.125 82.0625 C-7.29722338 83.87227703 -5.18035087 85.71035365 -2.75 88 C6.65595828 96.49019666 18.94123991 97.73493645 31 100.0625 C25.35480785 83.98225568 19.09649217 68.86878376 7.4375 56.1875 C-3.23793193 44.34412255 -19.47514081 26.17611896 -19.28125 9.57421875 C-18.8641349 5.84914915 -17.51881251 3.78554055 -15 1.0625 C-10.21417419 -1.78312616 -5.22357346 -1.63236671 0 0 Z " fill="#011C00" transform="translate(68,137.9375)"/>
<path d="M0 0 C0.66 0.33 1.32 0.66 2 1 C1.42685906 8.17294567 -0.5768246 14.57674013 -2.875 21.375 C-3.2764624 22.56544922 -3.6779248 23.75589844 -4.09155273 24.98242188 C-10.66862534 44.10378634 -19.13005944 62.42789447 -27.5 80.8125 C-27.85119904 81.58464844 -28.20239807 82.35679687 -28.5642395 83.15234375 C-29.5703102 85.35982093 -30.5810726 87.56507824 -31.59375 89.76953125 C-31.89333115 90.4267366 -32.19291229 91.08394196 -32.50157166 91.76106262 C-34.1411296 95.31296021 -35.91826011 98.68745904 -38 102 C-38.66 101.67 -39.32 101.34 -40 101 C-39.76216598 95.59176151 -39.51359311 90.18415894 -39.25537109 84.77685547 C-39.16913577 82.94007536 -39.08575619 81.10315872 -39.00537109 79.26611328 C-38.88883211 76.61449164 -38.76178332 73.96354264 -38.6328125 71.3125 C-38.59938751 70.50071289 -38.56596252 69.68892578 -38.53152466 68.85253906 C-38.12548014 60.91083722 -37.02167739 54.57043492 -31.75 48.3125 C-21.40859324 35.55146303 -12.55950196 21.59564267 -4.76953125 7.15234375 C-3.32303928 4.57548057 -1.84861556 2.29503047 0 0 Z " fill="#FFFFFF" transform="translate(360,217)"/>
<path d="M0 0 C0.66 0.70125 1.32 1.4025 2 2.125 C13.92340223 13.91480668 30.12646116 18.70408353 46.69921875 19.17578125 C47.51583984 19.19962891 48.33246094 19.22347656 49.17382812 19.24804688 C50.8610629 19.29130931 52.54865028 19.32239828 54.23632812 19.34179688 C55.04908203 19.36951172 55.86183594 19.39722656 56.69921875 19.42578125 C57.79496216 19.44765503 57.79496216 19.44765503 58.9128418 19.4699707 C61.92466625 20.23481699 63.05225166 21.60015779 65 24 C66.53979492 26.9609375 66.53979492 26.9609375 67.98046875 30.375 C68.23878983 30.98134277 68.4971109 31.58768555 68.76325989 32.21240234 C69.30463679 33.48799276 69.84140598 34.76554761 70.3737793 36.04492188 C71.18658738 37.99780731 72.01284684 39.94454389 72.84179688 41.890625 C77.19230056 52.17987866 77.19230056 52.17987866 78 56 C72.85675673 56 70.88864193 53.74691476 67.1875 50.5625 C55.70565133 41.10357728 44.41521748 34.90445454 30.4362793 29.80981445 C24.14583992 27.50245237 18.41497225 25.01619273 13 21 C12.28972656 20.48050781 11.57945313 19.96101563 10.84765625 19.42578125 C5.65286606 15.27575333 1.49023449 10.22037652 -1 4 C-0.65234375 1.69921875 -0.65234375 1.69921875 0 0 Z " fill="#FFFFFF" transform="translate(51,230)"/>
<path d="M0 0 C16.75854784 11.41007512 23.30577218 42.35713053 26.9375 61 C27.5975 61 28.2575 61 28.9375 61 C40.65529146 49.09472388 45.3152534 35.37913369 48.70703125 19.3671875 C51.49056969 6.29795354 51.49056969 6.29795354 57.75 2.125 C62.684757 0.38332106 66.27115717 0.39114396 71.1875 2.1875 C74.3588626 4.27771626 75.33538269 5.57350634 76.9375 9 C77.23560286 11.7852159 77.36391967 14.2846281 77.3125 17.0625 C77.30162354 18.24779297 77.30162354 18.24779297 77.29052734 19.45703125 C77.14116791 26.06521202 76.24538192 32.44938752 75.14819336 38.95751953 C73.97694393 46.09728078 73.37488455 53.22208826 72.875 60.4375 C72.27720002 69.05057207 71.55341511 77.50785036 69.9375 86 C79.78740099 68.23650335 85.66754146 54.45165908 80.34765625 34.0390625 C79.60790258 30.36142998 79.81887606 26.73665403 79.9375 23 C80.5975 23 81.2575 23 81.9375 23 C82.07027344 24.08539063 82.20304687 25.17078125 82.33984375 26.2890625 C82.51816254 27.73438322 82.69655169 29.17969526 82.875 30.625 C82.96201172 31.33785156 83.04902344 32.05070312 83.13867188 32.78515625 C83.52642193 35.91587891 83.9413255 39.02239451 84.47265625 42.1328125 C87.68686341 61.95825837 78.34669641 77.45703624 67.94970703 93.63330078 C67.61567871 94.08431152 67.28165039 94.53532227 66.9375 95 C66.6075 95 66.2775 95 65.9375 95 C66.4092543 90.95833577 66.91715425 86.95103323 67.65625 82.94921875 C69.06756435 75.30123907 70.12073462 67.84067097 70.375 60.0625 C70.68063363 50.78833748 72.04231557 41.74817143 73.56616211 32.60180664 C75.95819673 19.98802911 75.95819673 19.98802911 73.125 7.875 C71.18956205 4.77096148 71.18956205 4.77096148 67.9375 4 C62.10938388 3.39492983 62.10938388 3.39492983 56.8671875 5.80859375 C52.55574146 9.65186228 51.99872924 15.00398285 50.875 20.4375 C50.37715735 22.60656711 49.87457024 24.77455088 49.3671875 26.94140625 C49.12581055 27.98570801 48.88443359 29.03000977 48.63574219 30.10595703 C44.94745982 45.39298471 37.577854 55.65994018 26.9375 67 C25.09878908 64.24193362 24.54727322 62.93029532 23.89453125 59.81640625 C23.62044434 58.56380005 23.62044434 58.56380005 23.34082031 57.28588867 C23.14584961 56.38717041 22.95087891 55.48845215 22.75 54.5625 C19.50600977 40.44138612 15.38843879 26.80437094 8.375 14.0625 C8.0234082 13.41821045 7.67181641 12.7739209 7.30957031 12.11010742 C4.77913519 7.76782034 2.06934086 4.89174707 -2.0625 2 C-5.60381941 1.09891695 -8.9773237 1.62875548 -12.4375 2.8125 C-14.76516961 4.51348933 -15.92209276 6.27366253 -16.46875 9.1015625 C-16.76992593 17.2082147 -14.33250232 23.82696351 -11.47265625 31.27734375 C-7.34603836 42.17115773 -8.76787887 50.56459877 -13.45703125 61.03125 C-14.819159 63.55002638 -15.8981362 65.18011452 -18.0625 67 C-17.44024894 63.11093088 -16.24621919 59.92843061 -14.5625 56.375 C-9.53325275 45.70246951 -11.37042057 37.93903265 -15.0625 27 C-15.78539357 25.42477584 -16.53182799 23.85990346 -17.3125 22.3125 C-19.66885949 17.30056077 -19.89657166 12.44252818 -19.0625 7 C-17.3529206 3.39088794 -16.1630495 1.65438079 -12.75 -0.375 C-8.16998241 -1.44012037 -4.48855924 -1.465652 0 0 Z " fill="#011F00" transform="translate(266.0625,94)"/>
<path d="M0 0 C7.50604411 0.06373585 14.83945266 0.49564201 22.26977539 1.56567383 C23.09380859 1.68330078 23.9178418 1.80092773 24.7668457 1.92211914 C30.29609533 2.80852201 35.4504704 4.33626284 40.70727539 6.25317383 C38.14457817 10.09721966 36.40420064 10.25447461 32.01977539 11.50317383 C30.8196582 11.85895508 29.61954102 12.21473633 28.38305664 12.58129883 C22.34421825 13.68510351 17.83677958 12.59618443 12.45727539 9.81567383 C3.298477 5.47992616 -6.29087578 4.9164727 -16.29272461 4.25317383 C-16.29272461 -2.794504 -5.35318482 0.00479577 0 0 Z " fill="#FFFFFF" transform="translate(67.292724609375,312.746826171875)"/>
<path d="M0 0 C-3.60397183 2.40264789 -7.38022161 4.35157666 -11.2109375 6.3671875 C-14.04345648 8.02544091 -16.48990625 9.89152125 -19 12 C-17.84951172 12.02126953 -17.84951172 12.02126953 -16.67578125 12.04296875 C-2.42442107 12.65539654 10.96570101 16.04700221 24.30078125 21 C25.02636734 21.26914719 25.75195343 21.53829437 26.49952698 21.81559753 C30.13488449 23.17262214 33.75597015 24.55879359 37.36450195 25.9855957 C44.7232986 28.84202305 51.98920128 31.64502116 60 30 C64.08333621 27.77835586 67.10748542 24.89251458 70.375 21.625 C70.91125 21.08875 71.4475 20.5525 72 20 C72.66 20 73.32 20 74 20 C71.58452832 25.62371356 66.72553714 29.43281615 61.5 32.4375 C51.04573403 34.78970984 41.56464574 30.31572864 31.8828125 26.765625 C30.23430298 26.1631897 30.23430298 26.1631897 28.55249023 25.54858398 C26.34289541 24.73691899 24.13653376 23.91638659 21.93383789 23.08618164 C16.22476992 20.97695505 11.08041578 19.4327437 5 19 C5 18.34 5 17.68 5 17 C-8.86 16.01 -8.86 16.01 -23 15 C-23 12 -23 12 -20.1875 9.1875 C-14.44080715 4.51758055 -7.66437644 -0.58105381 0 0 Z " fill="#011B00" transform="translate(397,359)"/>
<path d="M0 0 C2.93752254 0.30388164 3.84080893 0.80669656 5.75 3.125 C7.52459132 7.20656004 7.8853027 10.61418424 6.30859375 14.86328125 C2.90858655 21.50680997 -2.75872275 24.20333923 -9.6875 26.5 C-12.4460168 27.38017454 -15.21486505 28.2081604 -18 29 C-18.67095703 29.19126465 -19.34191406 29.3825293 -20.03320312 29.57958984 C-32.23948544 32.90513142 -44.55098024 33.6290056 -57.12451172 34.27978516 C-67.88948039 34.84808308 -78.38240988 36.15483786 -89 38 C-91.33130021 38.35076544 -93.66452243 38.67775934 -96 39 C-95.67 38.34 -95.34 37.68 -95 37 C-92.24156287 36.21537788 -89.55483615 35.57020331 -86.75 35 C-85.89736572 34.82484863 -85.04473145 34.64969727 -84.16625977 34.46923828 C-72.3549271 32.15844241 -60.41267611 31.3379234 -48.41796875 30.578125 C-36.48570405 29.79952327 -25.36760305 28.9474612 -14 25 C-12.79601562 24.59394531 -11.59203125 24.18789063 -10.3515625 23.76953125 C-2.86245019 21.15495552 -2.86245019 21.15495552 3 16 C4.20643566 12.38069302 4.32268559 9.80768995 4 6 C2.1353694 2.6167447 2.1353694 2.6167447 0 0 Z " fill="#001B00" transform="translate(496,319)"/>
<path d="M0 0 C-1.69189453 0.83917969 -1.69189453 0.83917969 -3.41796875 1.6953125 C-25.65685303 12.94146512 -45.74922396 27.05691196 -64 44 C-65.47308175 45.31932575 -66.9516436 46.63257815 -68.4375 47.9375 C-69.03433594 48.46214844 -69.63117188 48.98679688 -70.24609375 49.52734375 C-72.11240628 51.09438122 -74.03789518 52.55537338 -76 54 C-79.07692308 49.56923077 -79.07692308 49.56923077 -78.6875 46.6875 C-78.460625 46.130625 -78.23375 45.57375 -78 45 C-77.34 46.32 -76.68 47.64 -76 49 C-73.94550667 49.22390157 -73.94550667 49.22390157 -72.66015625 47.78515625 C-72.13292969 47.21667969 -71.60570312 46.64820313 -71.0625 46.0625 C-67.24546303 42.13482428 -63.12122541 38.72456754 -58.8515625 35.30078125 C-57.07427864 33.86678099 -55.31526887 32.4094471 -53.5859375 30.91796875 C-12.91826923 -3.87548077 -12.91826923 -3.87548077 0 0 Z " fill="#021B00" transform="translate(448,163)"/>
<path d="M0 0 C3.25300759 2.14402773 4.37748086 3.15244896 5.75 6.8125 C7.44101989 16.22271256 3.9567026 22.20995961 -1.25 29.8125 C-1.85134766 30.70146973 -1.85134766 30.70146973 -2.46484375 31.60839844 C-5.01486862 35.37584172 -7.61315481 39.10537071 -10.25 42.8125 C-10.91 42.4825 -11.57 42.1525 -12.25 41.8125 C-11.90743164 41.31435791 -11.56486328 40.81621582 -11.21191406 40.30297852 C-9.63367317 37.99875747 -8.06683401 35.68699111 -6.5 33.375 C-5.96117187 32.59189453 -5.42234375 31.80878906 -4.8671875 31.00195312 C1.79899827 21.53802042 1.79899827 21.53802042 3.6875 10.5 C2.81689187 7.07560803 2.26865823 5.23428676 -0.25 2.8125 C-4.59744774 1.36335075 -8.48405975 0.97866176 -12.70703125 2.97265625 C-15.71254852 5.14715492 -17.45118755 7.45827868 -19.5625 10.5 C-20.25988281 11.49386719 -20.95726562 12.48773438 -21.67578125 13.51171875 C-22.45501953 14.65060547 -22.45501953 14.65060547 -23.25 15.8125 C-23.58 14.8225 -23.91 13.8325 -24.25 12.8125 C-22.80859375 10.21875 -22.80859375 10.21875 -20.6875 7.3125 C-20.00558594 6.3534375 -19.32367188 5.394375 -18.62109375 4.40625 C-13.32522599 -1.3869233 -7.3308326 -2.67857345 0 0 Z " fill="#011E00" transform="translate(483.25,134.1875)"/>
<path d="M0 0 C4.1415955 4.23791168 5.8911493 9.16400579 7.6875 14.75 C7.95296631 15.5553418 8.21843262 16.36068359 8.49194336 17.19042969 C11.21072781 26.4629831 11.0302109 35.43939881 10.875 45 C10.85991456 46.63149796 10.84623304 48.26300953 10.83398438 49.89453125 C10.8013102 53.84669732 10.74974574 57.79819362 10.6875 61.75 C10.3575 61.75 10.0275 61.75 9.6875 61.75 C9.67348145 60.42947632 9.67348145 60.42947632 9.65917969 59.08227539 C10.11851574 30.80305908 10.11851574 30.80305908 0.6875 4.75 C-3.06868701 1.30077021 -5.9661716 1.25515128 -10.89453125 1.37890625 C-14.22816516 1.89053019 -16.03679062 3.32257666 -18.3125 5.75 C-18.0625 3.375 -18.0625 3.375 -17.3125 0.75 C-12.07776398 -2.67722628 -5.63773961 -2.12744891 0 0 Z " fill="#071E00" transform="translate(367.3125,109.25)"/>
<path d="M0 0 C0.33 0.99 0.66 1.98 1 3 C6.94 3.33 12.88 3.66 19 4 C18.01 3.67 17.02 3.34 16 3 C16 2.34 16 1.68 16 1 C18.64 1.33 21.28 1.66 24 2 C23.67 2.66 23.34 3.32 23 4 C23.99 4.33 24.98 4.66 26 5 C26 5.66 26 6.32 26 7 C27.093125 6.979375 28.18625 6.95875 29.3125 6.9375 C33 7 33 7 36 8 C36 8.99 36 9.98 36 11 C36.66386719 11.12117188 37.32773437 11.24234375 38.01171875 11.3671875 C42.53424459 12.22547708 46.79938524 13.03971311 51 15 C47.00188486 16.58765016 44.25739819 15.32918985 40.3203125 13.9453125 C38.98448147 13.49057253 37.6485401 13.0361566 36.3125 12.58203125 C34.23319807 11.86156285 32.15593772 11.13593094 30.08105469 10.40283203 C21.48386767 7.38449432 13.86453469 5.41992362 4.69091797 5.13623047 C2 5 2 5 0 4 C0 2.68 0 1.36 0 0 Z " fill="#0D240A" transform="translate(402,302)"/>
<path d="M0 0 C2.4375 0.75 2.4375 0.75 5 2 C5.8125 4.125 5.8125 4.125 6 6 C3.14656792 7.42671604 0.50608553 7.35042001 -2.67578125 7.578125 C-4.06624316 7.68482133 -5.45662137 7.79261287 -6.84692383 7.90136719 C-7.57666412 7.95788452 -8.30640442 8.01440186 -9.05825806 8.07263184 C-20.92318622 9.00618758 -32.34716508 10.23939627 -43.85473633 13.46191406 C-47.66711991 14.52538742 -50.20811898 15.19649538 -54 14 C-53.01 14 -52.02 14 -51 14 C-51 13.34 -51 12.68 -51 12 C-43.6712004 10.26505062 -36.32415609 9.03552259 -28.875 7.9375 C-27.68608154 7.7612207 -26.49716309 7.58494141 -25.2722168 7.40332031 C-16.85037803 6.18830628 -8.50567381 5.2849472 0 5 C0 3.68 0 2.36 0 1 C0 0.67 0 0.34 0 0 Z " fill="#0E280A" transform="translate(123,361)"/>
<path d="M0 0 C0 0.33 0 0.66 0 1 C-0.73114014 0.98952637 -1.46228027 0.97905273 -2.21557617 0.96826172 C-5.53951559 0.92659711 -8.86339995 0.90064044 -12.1875 0.875 C-13.91323242 0.84986328 -13.91323242 0.84986328 -15.67382812 0.82421875 C-16.78564453 0.81777344 -17.89746094 0.81132812 -19.04296875 0.8046875 C-20.06414795 0.79421387 -21.08532715 0.78374023 -22.13745117 0.77294922 C-25.1485072 1.01177925 -27.22854169 1.85380722 -30 3 C-32.31176758 3.22705078 -32.31176758 3.22705078 -34.64453125 3.1953125 C-35.48564453 3.18886719 -36.32675781 3.18242187 -37.19335938 3.17578125 C-38.05767578 3.15902344 -38.92199219 3.14226562 -39.8125 3.125 C-40.69615234 3.11597656 -41.57980469 3.10695313 -42.49023438 3.09765625 C-44.66027359 3.07419637 -46.83017247 3.03832865 -49 3 C-49 2.67 -49 2.34 -49 2 C-47.98679688 1.95101563 -46.97359375 1.90203125 -45.9296875 1.8515625 C-44.57810089 1.77647436 -43.22653962 1.70092919 -41.875 1.625 C-41.20984375 1.5940625 -40.5446875 1.563125 -39.859375 1.53125 C-5.96879664 -0.46231343 -5.96879664 -0.46231343 0 0 Z " fill="#13130F" transform="translate(265,445)"/>
<path d="M0 0 C0.66 0.33 1.32 0.66 2 1 C0.53928535 5.0467758 -1.43535893 8.44250903 -3.75 12.0625 C-7.60197035 18.17176032 -10.89643386 24.47545755 -14 31 C-15 28 -15 28 -14.05957031 25.51977539 C-13.57069336 24.55547607 -13.08181641 23.59117676 -12.578125 22.59765625 C-12.04703125 21.54255859 -11.5159375 20.48746094 -10.96875 19.40039062 C-10.11796875 17.74813477 -10.11796875 17.74813477 -9.25 16.0625 C-8.69828125 14.96486328 -8.1465625 13.86722656 -7.578125 12.73632812 C-3.0766703 3.86867878 -3.0766703 3.86867878 0 0 Z " fill="#164211" transform="translate(295,251)"/>
<path d="M0 0 C0.33 0.99 0.66 1.98 1 3 C-0.57659963 5.13858601 -2.15779689 7.04235519 -3.9375 9 C-9.01289125 14.7664875 -13.59374916 20.69994507 -18 27 C-18.33 26.34 -18.66 25.68 -19 25 C-14.62401845 18.38375486 -9.83253827 12.27886985 -4.64526367 6.29223633 C-2.04744935 3.33764231 -2.04744935 3.33764231 0 0 Z " fill="#001E00" transform="translate(469,178)"/>
<path d="M0 0 C0.99386719 0.02707031 1.98773438 0.05414063 3.01171875 0.08203125 C4.15060547 0.13423828 4.15060547 0.13423828 5.3125 0.1875 C5.3125 1.1775 5.3125 2.1675 5.3125 3.1875 C5.993125 3.826875 6.67375 4.46625 7.375 5.125 C8.014375 5.805625 8.65375 6.48625 9.3125 7.1875 C8.93359375 9.31640625 8.93359375 9.31640625 8.3125 11.1875 C7.97476563 10.69378906 7.63703125 10.20007813 7.2890625 9.69140625 C6.84304687 9.05074219 6.39703125 8.41007813 5.9375 7.75 C5.49664062 7.11191406 5.05578125 6.47382813 4.6015625 5.81640625 C3.39089147 4.05009072 3.39089147 4.05009072 1.3125 3.1875 C-0.39452735 3.11753986 -2.10418003 3.10309846 -3.8125 3.125 C-4.72257812 3.13402344 -5.63265625 3.14304688 -6.5703125 3.15234375 C-7.61832031 3.16974609 -7.61832031 3.16974609 -8.6875 3.1875 C-6.10291354 -0.17334451 -4.11082043 -0.14508778 0 0 Z " fill="#0B1F09" transform="translate(64.6875,141.8125)"/>
<path d="M0 0 C0.33 0.66 0.66 1.32 1 2 C0.67 2.66 0.34 3.32 0 4 C4.95 4.99 9.9 5.98 15 7 C15 7.33 15 7.66 15 8 C2.33029613 7.22095672 2.33029613 7.22095672 -3 5 C-2.01 3.35 -1.02 1.7 0 0 Z " fill="#001800" transform="translate(411,296)"/>
<path d="M0 0 C0.53625 0.268125 1.0725 0.53625 1.625 0.8125 C0.8125 3.25 0.8125 3.25 -0.375 5.8125 C-1.365 6.1425 -2.355 6.4725 -3.375 6.8125 C-3.705 7.4725 -4.035 8.1325 -4.375 8.8125 C-4.705 7.8225 -5.035 6.8325 -5.375 5.8125 C-6.365 5.4825 -7.355 5.1525 -8.375 4.8125 C-2.95961538 -0.23365385 -2.95961538 -0.23365385 0 0 Z " fill="#060F05" transform="translate(454.375,156.1875)"/>
<path d="M0 0 C4.49148859 0.51039643 8.8450008 1.35393829 13.25 2.375 C14.26578125 2.60960937 15.2815625 2.84421875 16.328125 3.0859375 C19.02609282 4.00892649 20.22190074 4.82000159 22 7 C16.73378394 6.40421223 12.05591981 5.18691204 7.0625 3.4375 C6.37865234 3.20353516 5.69480469 2.96957031 4.99023438 2.72851562 C3.32491499 2.15788171 1.66217507 1.57972902 0 1 C0 0.67 0 0.34 0 0 Z " fill="#0D270A" transform="translate(402,380)"/>
<path d="M0 0 C1.23666047 3.57257469 0.89093449 6.35526801 0 10 C-0.99 10.495 -0.99 10.495 -2 11 C-2.72159424 12.64363134 -3.39351421 14.31050386 -4 16 C-4.66 16 -5.32 16 -6 16 C-4.25192871 10.53262809 -2.34205919 5.24175152 0 0 Z " fill="#0A1D08" transform="translate(425,256)"/>
<path d="M0 0 C0.66 0.33 1.32 0.66 2 1 C3.27536232 6.44927536 3.27536232 6.44927536 2 9 C-0.97 9 -3.94 9 -7 9 C-4.64046906 6.64046906 -3.22104383 6.50858587 0 6 C0 4.02 0 2.04 0 0 Z " fill="#081206" transform="translate(130,300)"/>
<path d="M0 0 C0.66 0.33 1.32 0.66 2 1 C3.4465242 1.15067214 4.8987934 1.24861036 6.3515625 1.31640625 C7.62773437 1.37924805 7.62773437 1.37924805 8.9296875 1.44335938 C9.81914062 1.48267578 10.70859375 1.52199219 11.625 1.5625 C12.97078125 1.62727539 12.97078125 1.62727539 14.34375 1.69335938 C16.56234283 1.79956861 18.7810488 1.90161194 21 2 C21 2.33 21 2.66 21 3 C13.74 3 6.48 3 -1 3 C-0.67 2.01 -0.34 1.02 0 0 Z " fill="#141410" transform="translate(372,372)"/>
<path d="M0 0 C2.95409701 1.37154504 5.44008376 2.98863724 8 5 C8.33 4.34 8.66 3.68 9 3 C9 4.32 9 5.64 9 7 C4.71193127 6.52354792 2.73352513 5.34097516 0 2 C0 1.34 0 0.68 0 0 Z " fill="#0E0F0E" transform="translate(217,215)"/>
<path d="M0 0 C1.5625 1.75 1.5625 1.75 3 4 C2.75203633 6.16968209 2.55766393 7.44233607 1 9 C-1.33297433 9.04092937 -3.66705225 9.04241723 -6 9 C-6 8.67 -6 8.34 -6 8 C-4.02 8 -2.04 8 0 8 C0 5.36 0 2.72 0 0 Z " fill="#0D260A" transform="translate(132,301)"/>
<path d="M0 0 C1.093125 0.0825 2.18625 0.165 3.3125 0.25 C3.3125 0.91 3.3125 1.57 3.3125 2.25 C-3.3125 4.25 -3.3125 4.25 -6.6875 4.25 C-4.79150483 0.68106792 -4.16790733 0.28256999 0 0 Z " fill="#080F07" transform="translate(50.6875,221.75)"/>
<path d="M0 0 C0.6875 1.625 0.6875 1.625 1 4 C-0.4375 7.25 -0.4375 7.25 -2 10 C-2.66 10 -3.32 10 -4 10 C-2.8905928 6.51329166 -1.73662334 3.22515763 0 0 Z " fill="#0B2109" transform="translate(442,210)"/>
<path d="M0 0 C3.55780196 0.60990891 6.6828589 1.5783681 10 3 C10 3.66 10 4.32 10 5 C5.59885603 4.49701212 3.28804981 2.91227269 0 0 Z " fill="#080F07" transform="translate(93,170)"/>
<path d="M0 0 C0.66 0.33 1.32 0.66 2 1 C-0.31 3.31 -2.62 5.62 -5 8 C-5 5 -5 5 -2.5 2.3125 C-1.675 1.549375 -0.85 0.78625 0 0 Z " fill="#11340D" transform="translate(481,373)"/>
<path d="M0 0 C7.50769231 -0.36923077 7.50769231 -0.36923077 10 1.5 C10.495 2.2425 10.495 2.2425 11 3 C9.35 3 7.7 3 6 3 C6 2.34 6 1.68 6 1 C4.02 1 2.04 1 0 1 C0 0.67 0 0.34 0 0 Z " fill="#13140F" transform="translate(48,221)"/>
<path d="M0 0 C7.50769231 -0.36923077 7.50769231 -0.36923077 10 1.5 C10.495 2.2425 10.495 2.2425 11 3 C9.35 3 7.7 3 6 3 C6 2.34 6 1.68 6 1 C4.02 1 2.04 1 0 1 C0 0.67 0 0.34 0 0 Z " fill="#13140F" transform="translate(58,139)"/>
<path d="M0 0 C7.50769231 -0.36923077 7.50769231 -0.36923077 10 1.5 C10.495 2.2425 10.495 2.2425 11 3 C9.35 3 7.7 3 6 3 C6 2.34 6 1.68 6 1 C4.02 1 2.04 1 0 1 C0 0.67 0 0.34 0 0 Z " fill="#13140F" transform="translate(256,95)"/>
</svg>
